<ttFont>
    <TTGlyph name=".notdef" xMin="54" yMin="-50" xMax="969" yMax="1434">
      <contour>
        <pt x="969" y="-50" on="1"/>
        <pt x="54" y="-50" on="1"/>
        <pt x="54" y="1434" on="1"/>
        <pt x="969" y="1434" on="1"/>
      </contour>
      <contour>
        <pt x="248" y="1027" on="1"/>
        <pt x="262" y="1042" on="1"/>
        <pt x="513" y="795" on="1"/>
        <pt x="764" y="1042" on="1"/>
        <pt x="776" y="1029" on="1"/>
        <pt x="776" y="1242" on="1"/>
        <pt x="248" y="1242" on="1"/>
      </contour>
      <contour>
        <pt x="248" y="535" on="1"/>
        <pt x="405" y="690" on="1"/>
        <pt x="248" y="845" on="1"/>
      </contour>
      <contour>
        <pt x="776" y="537" on="1"/>
        <pt x="776" y="844" on="1"/>
        <pt x="620" y="690" on="1"/>
      </contour>
      <contour>
        <pt x="776" y="359" on="1"/>
        <pt x="760" y="342" on="1"/>
        <pt x="513" y="585" on="1"/>
        <pt x="265" y="342" on="1"/>
        <pt x="248" y="360" on="1"/>
        <pt x="248" y="143" on="1"/>
        <pt x="776" y="143" on="1"/>
      </contour>
    </TTGlyph>
    <TTGlyph name="A" xMin="-39" yMin="0" xMax="1467" yMax="1419">
      <contour>
        <pt x="1440" y="0" on="1"/>
        <pt x="807" y="0" on="1"/>
        <pt x="823" y="84" on="1"/>
        <pt x="982" y="149" on="1"/>
        <pt x="892" y="416" on="1"/>
        <pt x="633" y="402" on="0"/>
        <pt x="403" y="403" on="1"/>
        <pt x="316" y="151" on="1"/>
        <pt x="501" y="81" on="1"/>
        <pt x="485" y="0" on="1"/>
        <pt x="-39" y="0" on="1"/>
        <pt x="-21" y="94" on="1"/>
        <pt x="139" y="156" on="1"/>
        <pt x="585" y="1384" on="1"/>
        <pt x="819" y="1419" on="1"/>
        <pt x="1309" y="149" on="1"/>
        <pt x="1467" y="97" on="1"/>
      </contour>
      <contour>
        <pt x="645" y="1155" on="1"/>
        <pt x="635" y="1091" on="0"/>
        <pt x="459" y="568" on="1"/>
        <pt x="842" y="568" on="1"/>
      </contour>
    </TTGlyph>
    <TTGlyph name="AE" xMin="-44" yMin="0" xMax="1895" yMax="1397">
      <contour>
        <pt x="442" y="404" on="1"/>
        <pt x="309" y="151" on="1"/>
        <pt x="489" y="82" on="1"/>
        <pt x="470" y="0" on="1"/>
        <pt x="-44" y="0" on="1"/>
        <pt x="-26" y="93" on="1"/>
        <pt x="125" y="151" on="1"/>
        <pt x="697" y="1247" on="1"/>
        <pt x="546" y="1303" on="1"/>
        <pt x="564" y="1384" on="1"/>
        <pt x="1645" y="1384" on="1"/>
        <pt x="1784" y="1397" on="1"/>
        <pt x="1822" y="1046" on="1"/>
        <pt x="1699" y="1022" on="1"/>
        <pt x="1603" y="1234" on="1"/>
        <pt x="1378" y="1262" on="0"/>
        <pt x="1180" y="1296" on="1"/>
        <pt x="1180" y="741" on="1"/>
        <pt x="1227" y="752" on="0"/>
        <pt x="1403" y="774" on="0"/>
        <pt x="1429" y="775" on="1"/>
        <pt x="1491" y="945" on="1"/>
        <pt x="1583" y="923" on="1"/>
        <pt x="1566" y="454" on="1"/>
        <pt x="1472" y="468" on="1"/>
        <pt x="1428" y="628" on="1"/>
        <pt x="1408" y="628" on="0"/>
        <pt x="1227" y="648" on="0"/>
        <pt x="1180" y="659" on="1"/>
        <pt x="1180" y="99" on="1"/>
        <pt x="1210" y="107" on="0"/>
        <pt x="1522" y="152" on="0"/>
        <pt x="1661" y="165" on="1"/>
        <pt x="1783" y="359" on="1"/>
        <pt x="1895" y="343" on="1"/>
        <pt x="1815" y="0" on="1"/>
        <pt x="694" y="0" on="1"/>
        <pt x="709" y="88" on="1"/>
        <pt x="886" y="156" on="1"/>
        <pt x="886" y="419" on="1"/>
        <pt x="756" y="404" on="0"/>
      </contour>
      <contour>
        <pt x="840" y="1188" on="1"/>
        <pt x="526" y="568" on="1"/>
        <pt x="886" y="568" on="1"/>
        <pt x="886" y="1188" on="1"/>
      </contour>
    </TTGlyph>
    <TTGlyph name="Aacute" xMin="-39" yMin="0" xMax="1467" yMax="1801">
      <contour>
        <pt x="501" y="1597" on="1"/>
        <pt x="851" y="1801" on="1"/>
        <pt x="981" y="1801" on="1"/>
        <pt x="1014" y="1636" on="1"/>
        <pt x="525" y="1489" on="1"/>
      </contour>
      <contour>
        <pt x="1440" y="0" on="1"/>
        <pt x="807" y="0" on="1"/>
        <pt x="823" y="84" on="1"/>
        <pt x="982" y="149" on="1"/>
        <pt x="892" y="416" on="1"/>
        <pt x="633" y="402" on="0"/>
        <pt x="403" y="403" on="1"/>
        <pt x="316" y="151" on="1"/>
        <pt x="501" y="81" on="1"/>
        <pt x="485" y="0" on="1"/>
        <pt x="-39" y="0" on="1"/>
        <pt x="-21" y="94" on="1"/>
        <pt x="139" y="156" on="1"/>
        <pt x="585" y="1384" on="1"/>
        <pt x="819" y="1419" on="1"/>
        <pt x="1309" y="149" on="1"/>
        <pt x="1467" y="97" on="1"/>
      </contour>
      <contour>
        <pt x="645" y="1155" on="1"/>
        <pt x="635" y="1091" on="0"/>
        <pt x="459" y="568" on="1"/>
        <pt x="842" y="568" on="1"/>
      </contour>
    </TTGlyph>
    <TTGlyph name="Abreve" xMin="-39" yMin="0" xMax="1467" yMax="1793">
      <contour>
        <pt x="395" y="1719" on="1"/>
        <pt x="395" y="1782" on="0"/>
        <pt x="419" y="1793" on="1"/>
        <pt x="542" y="1793" on="1"/>
        <pt x="572" y="1626" on="0"/>
        <pt x="700" y="1626" on="1"/>
        <pt x="759" y="1626" on="0"/>
        <pt x="838" y="1707" on="0"/>
        <pt x="852" y="1793" on="1"/>
        <pt x="977" y="1793" on="1"/>
        <pt x="987" y="1786" on="0"/>
        <pt x="999" y="1751" on="0"/>
        <pt x="999" y="1725" on="1"/>
        <pt x="999" y="1656" on="0"/>
        <pt x="922" y="1543" on="0"/>
        <pt x="786" y="1478" on="0"/>
        <pt x="700" y="1478" on="1"/>
        <pt x="612" y="1478" on="0"/>
        <pt x="472" y="1542" on="0"/>
        <pt x="395" y="1653" on="0"/>
      </contour>
      <contour>
        <pt x="1440" y="0" on="1"/>
        <pt x="807" y="0" on="1"/>
        <pt x="823" y="84" on="1"/>
        <pt x="982" y="149" on="1"/>
        <pt x="892" y="416" on="1"/>
        <pt x="633" y="402" on="0"/>
        <pt x="403" y="403" on="1"/>
        <pt x="316" y="151" on="1"/>
        <pt x="501" y="81" on="1"/>
        <pt x="485" y="0" on="1"/>
        <pt x="-39" y="0" on="1"/>
        <pt x="-21" y="94" on="1"/>
        <pt x="139" y="156" on="1"/>
        <pt x="585" y="1384" on="1"/>
        <pt x="819" y="1419" on="1"/>
        <pt x="1309" y="149" on="1"/>
        <pt x="1467" y="97" on="1"/>
      </contour>
      <contour>
        <pt x="645" y="1155" on="1"/>
        <pt x="635" y="1091" on="0"/>
        <pt x="459" y="568" on="1"/>
        <pt x="842" y="568" on="1"/>
      </contour>
    </TTGlyph>
    <TTGlyph name="Acircumflex" xMin="-39" yMin="0" xMax="1467" yMax="1797">
      <contour>
        <pt x="358" y="1560" on="1"/>
        <pt x="638" y="1797" on="1"/>
        <pt x="756" y="1797" on="1"/>
        <pt x="1037" y="1560" on="1"/>
        <pt x="951" y="1486" on="1"/>
        <pt x="697" y="1612" on="1"/>
        <pt x="443" y="1486" on="1"/>
      </contour>
      <contour>
        <pt x="1440" y="0" on="1"/>
        <pt x="807" y="0" on="1"/>
        <pt x="823" y="84" on="1"/>
        <pt x="982" y="149" on="1"/>
        <pt x="892" y="416" on="1"/>
        <pt x="633" y="402" on="0"/>
        <pt x="403" y="403" on="1"/>
        <pt x="316" y="151" on="1"/>
        <pt x="501" y="81" on="1"/>
        <pt x="485" y="0" on="1"/>
        <pt x="-39" y="0" on="1"/>
        <pt x="-21" y="94" on="1"/>
        <pt x="139" y="156" on="1"/>
        <pt x="585" y="1384" on="1"/>
        <pt x="819" y="1419" on="1"/>
        <pt x="1309" y="149" on="1"/>
        <pt x="1467" y="97" on="1"/>
      </contour>
      <contour>
        <pt x="645" y="1155" on="1"/>
        <pt x="635" y="1091" on="0"/>
        <pt x="459" y="568" on="1"/>
        <pt x="842" y="568" on="1"/>
      </contour>
    </TTGlyph>
    <TTGlyph name="Adieresis" xMin="-39" yMin="0" xMax="1467" yMax="1783">
      <contour>
        <pt x="321" y="1616" on="1"/>
        <pt x="318" y="1635" on="0"/>
        <pt x="362" y="1717" on="0"/>
        <pt x="423" y="1783" on="0"/>
        <pt x="443" y="1783" on="1"/>
        <pt x="463" y="1783" on="0"/>
        <pt x="538" y="1741" on="0"/>
        <pt x="601" y="1686" on="0"/>
        <pt x="605" y="1667" on="1"/>
        <pt x="608" y="1647" on="0"/>
        <pt x="564" y="1565" on="0"/>
        <pt x="503" y="1499" on="0"/>
        <pt x="482" y="1499" on="1"/>
        <pt x="462" y="1499" on="0"/>
        <pt x="387" y="1541" on="0"/>
        <pt x="325" y="1597" on="0"/>
      </contour>
      <contour>
        <pt x="789" y="1616" on="1"/>
        <pt x="786" y="1636" on="0"/>
        <pt x="829" y="1718" on="0"/>
        <pt x="890" y="1783" on="0"/>
        <pt x="911" y="1783" on="1"/>
        <pt x="932" y="1783" on="0"/>
        <pt x="1011" y="1738" on="0"/>
        <pt x="1072" y="1680" on="0"/>
        <pt x="1072" y="1662" on="1"/>
        <pt x="1072" y="1640" on="0"/>
        <pt x="1028" y="1561" on="0"/>
        <pt x="971" y="1499" on="0"/>
        <pt x="951" y="1499" on="1"/>
        <pt x="930" y="1499" on="0"/>
        <pt x="855" y="1541" on="0"/>
        <pt x="793" y="1597" on="0"/>
      </contour>
      <contour>
        <pt x="1440" y="0" on="1"/>
        <pt x="807" y="0" on="1"/>
        <pt x="823" y="84" on="1"/>
        <pt x="982" y="149" on="1"/>
        <pt x="892" y="416" on="1"/>
        <pt x="633" y="402" on="0"/>
        <pt x="403" y="403" on="1"/>
        <pt x="316" y="151" on="1"/>
        <pt x="501" y="81" on="1"/>
        <pt x="485" y="0" on="1"/>
        <pt x="-39" y="0" on="1"/>
        <pt x="-21" y="94" on="1"/>
        <pt x="139" y="156" on="1"/>
        <pt x="585" y="1384" on="1"/>
        <pt x="819" y="1419" on="1"/>
        <pt x="1309" y="149" on="1"/>
        <pt x="1467" y="97" on="1"/>
      </contour>
      <contour>
        <pt x="645" y="1155" on="1"/>
        <pt x="635" y="1091" on="0"/>
        <pt x="459" y="568" on="1"/>
        <pt x="842" y="568" on="1"/>
      </contour>
    </TTGlyph>
    <TTGlyph name="Agrave" xMin="-39" yMin="0" xMax="1467" yMax="1801">
      <contour>
        <pt x="440" y="1637" on="1"/>
        <pt x="473" y="1801" on="1"/>
        <pt x="603" y="1801" on="1"/>
        <pt x="951" y="1599" on="1"/>
        <pt x="929" y="1488" on="1"/>
      </contour>
      <contour>
        <pt x="1440" y="0" on="1"/>
        <pt x="807" y="0" on="1"/>
        <pt x="823" y="84" on="1"/>
        <pt x="982" y="149" on="1"/>
        <pt x="892" y="416" on="1"/>
        <pt x="633" y="402" on="0"/>
        <pt x="403" y="403" on="1"/>
        <pt x="316" y="151" on="1"/>
        <pt x="501" y="81" on="1"/>
        <pt x="485" y="0" on="1"/>
        <pt x="-39" y="0" on="1"/>
        <pt x="-21" y="94" on="1"/>
        <pt x="139" y="156" on="1"/>
        <pt x="585" y="1384" on="1"/>
        <pt x="819" y="1419" on="1"/>
        <pt x="1309" y="149" on="1"/>
        <pt x="1467" y="97" on="1"/>
      </contour>
      <contour>
        <pt x="645" y="1155" on="1"/>
        <pt x="635" y="1091" on="0"/>
        <pt x="459" y="568" on="1"/>
        <pt x="842" y="568" on="1"/>
      </contour>
    </TTGlyph>
    <TTGlyph name="Amacron" xMin="-39" yMin="0" xMax="1467" yMax="1701">
      <contour>
        <pt x="384" y="1533" on="1"/>
        <pt x="417" y="1701" on="1"/>
        <pt x="1008" y="1701" on="1"/>
        <pt x="979" y="1545" on="1"/>
        <pt x="864" y="1539" on="0"/>
        <pt x="513" y="1533" on="0"/>
      </contour>
      <contour>
        <pt x="1440" y="0" on="1"/>
        <pt x="807" y="0" on="1"/>
        <pt x="823" y="84" on="1"/>
        <pt x="982" y="149" on="1"/>
        <pt x="892" y="416" on="1"/>
        <pt x="633" y="402" on="0"/>
        <pt x="403" y="403" on="1"/>
        <pt x="316" y="151" on="1"/>
        <pt x="501" y="81" on="1"/>
        <pt x="485" y="0" on="1"/>
        <pt x="-39" y="0" on="1"/>
        <pt x="-21" y="94" on="1"/>
        <pt x="139" y="156" on="1"/>
        <pt x="585" y="1384" on="1"/>
        <pt x="819" y="1419" on="1"/>
        <pt x="1309" y="149" on="1"/>
        <pt x="1467" y="97" on="1"/>
      </contour>
      <contour>
        <pt x="645" y="1155" on="1"/>
        <pt x="635" y="1091" on="0"/>
        <pt x="459" y="568" on="1"/>
        <pt x="842" y="568" on="1"/>
      </contour>
    </TTGlyph>
    <TTGlyph name="Aogonek" xMin="-40" yMin="-493" xMax="1463" yMax="1419">
      <contour>
        <pt x="914" y="-230" on="1"/>
        <pt x="914" y="-265" on="0"/>
        <pt x="951" y="-330" on="0"/>
        <pt x="981" y="-345" on="1"/>
        <pt x="1001" y="-355" on="0"/>
        <pt x="1021" y="-355" on="1"/>
        <pt x="1054" y="-355" on="0"/>
        <pt x="1147" y="-330" on="0"/>
        <pt x="1187" y="-309" on="1"/>
        <pt x="1216" y="-352" on="1"/>
        <pt x="1083" y="-493" on="0"/>
        <pt x="931" y="-493" on="1"/>
        <pt x="868" y="-493" on="0"/>
        <pt x="759" y="-446" on="0"/>
        <pt x="691" y="-350" on="0"/>
        <pt x="691" y="-280" on="1"/>
        <pt x="691" y="-227" on="0"/>
        <pt x="737" y="-145" on="0"/>
        <pt x="803" y="-85" on="0"/>
        <pt x="860" y="-43" on="1"/>
        <pt x="920" y="1" on="0"/>
        <pt x="947" y="26" on="1"/>
        <pt x="989" y="65" on="0"/>
        <pt x="989" y="113" on="1"/>
        <pt x="989" y="132" on="0"/>
        <pt x="980" y="157" on="1"/>
        <pt x="892" y="418" on="1"/>
        <pt x="757" y="405" on="0"/>
        <pt x="538" y="405" on="1"/>
        <pt x="449" y="405" on="0"/>
        <pt x="405" y="406" on="1"/>
        <pt x="376" y="321" on="0"/>
        <pt x="316" y="151" on="1"/>
        <pt x="501" y="82" on="1"/>
        <pt x="484" y="0" on="1"/>
        <pt x="-40" y="0" on="1"/>
        <pt x="-19" y="94" on="1"/>
        <pt x="140" y="156" on="1"/>
        <pt x="585" y="1384" on="1"/>
        <pt x="819" y="1419" on="1"/>
        <pt x="1309" y="149" on="1"/>
        <pt x="1463" y="98" on="1"/>
        <pt x="1435" y="0" on="1"/>
        <pt x="1194" y="0" on="1"/>
        <pt x="1151" y="0" on="0"/>
        <pt x="1081" y="-22" on="0"/>
        <pt x="1048" y="-47" on="1"/>
        <pt x="995" y="-85" on="0"/>
        <pt x="914" y="-192" on="0"/>
      </contour>
      <contour>
        <pt x="645" y="1155" on="1"/>
        <pt x="570" y="891" on="0"/>
        <pt x="461" y="568" on="1"/>
        <pt x="842" y="568" on="1"/>
      </contour>
    </TTGlyph>
    <TTGlyph name="Aring" xMin="-39" yMin="0" xMax="1467" yMax="1706">
      <contour>
        <pt x="1440" y="0" on="1"/>
        <pt x="807" y="0" on="1"/>
        <pt x="823" y="84" on="1"/>
        <pt x="982" y="149" on="1"/>
        <pt x="892" y="416" on="1"/>
        <pt x="633" y="402" on="0"/>
        <pt x="403" y="403" on="1"/>
        <pt x="316" y="151" on="1"/>
        <pt x="501" y="81" on="1"/>
        <pt x="485" y="0" on="1"/>
        <pt x="-39" y="0" on="1"/>
        <pt x="-21" y="94" on="1"/>
        <pt x="139" y="156" on="1"/>
        <pt x="576" y="1358" on="1"/>
        <pt x="539" y="1382" on="0"/>
        <pt x="496" y="1458" on="0"/>
        <pt x="496" y="1506" on="1"/>
        <pt x="496" y="1563" on="0"/>
        <pt x="547" y="1654" on="0"/>
        <pt x="640" y="1706" on="0"/>
        <pt x="702" y="1706" on="1"/>
        <pt x="752" y="1706" on="0"/>
        <pt x="841" y="1660" on="0"/>
        <pt x="896" y="1577" on="0"/>
        <pt x="896" y="1524" on="1"/>
        <pt x="896" y="1479" on="0"/>
        <pt x="864" y="1404" on="0"/>
        <pt x="835" y="1377" on="1"/>
        <pt x="1309" y="149" on="1"/>
        <pt x="1467" y="97" on="1"/>
      </contour>
      <contour>
        <pt x="623" y="1523" on="1"/>
        <pt x="623" y="1489" on="0"/>
        <pt x="664" y="1439" on="0"/>
        <pt x="702" y="1439" on="1"/>
        <pt x="732" y="1439" on="0"/>
        <pt x="767" y="1477" on="0"/>
        <pt x="767" y="1507" on="1"/>
        <pt x="767" y="1544" on="0"/>
        <pt x="724" y="1595" on="0"/>
        <pt x="688" y="1595" on="1"/>
        <pt x="659" y="1595" on="0"/>
        <pt x="623" y="1553" on="0"/>
      </contour>
      <contour>
        <pt x="645" y="1155" on="1"/>
        <pt x="635" y="1091" on="0"/>
        <pt x="459" y="568" on="1"/>
        <pt x="842" y="568" on="1"/>
      </contour>
    </TTGlyph>
    <TTGlyph name="Atilde" xMin="-39" yMin="0" xMax="1467" yMax="1831">
      <contour>
        <pt x="352" y="1537" on="1"/>
        <pt x="327" y="1670" on="1"/>
        <pt x="374" y="1723" on="0"/>
        <pt x="444" y="1788" on="0"/>
        <pt x="526" y="1831" on="0"/>
        <pt x="572" y="1831" on="1"/>
        <pt x="623" y="1831" on="0"/>
        <pt x="703" y="1786" on="0"/>
        <pt x="753" y="1744" on="1"/>
        <pt x="782" y="1720" on="0"/>
        <pt x="818" y="1696" on="0"/>
        <pt x="834" y="1696" on="1"/>
        <pt x="866" y="1696" on="0"/>
        <pt x="984" y="1760" on="0"/>
        <pt x="1043" y="1809" on="1"/>
        <pt x="1064" y="1675" on="1"/>
        <pt x="1017" y="1623" on="0"/>
        <pt x="948" y="1559" on="0"/>
        <pt x="865" y="1515" on="0"/>
        <pt x="818" y="1515" on="1"/>
        <pt x="768" y="1515" on="0"/>
        <pt x="687" y="1561" on="0"/>
        <pt x="639" y="1602" on="1"/>
        <pt x="609" y="1627" on="0"/>
        <pt x="574" y="1650" on="0"/>
        <pt x="559" y="1650" on="1"/>
        <pt x="525" y="1650" on="0"/>
        <pt x="404" y="1585" on="0"/>
      </contour>
      <contour>
        <pt x="1440" y="0" on="1"/>
        <pt x="807" y="0" on="1"/>
        <pt x="823" y="84" on="1"/>
        <pt x="982" y="149" on="1"/>
        <pt x="892" y="416" on="1"/>
        <pt x="633" y="402" on="0"/>
        <pt x="403" y="403" on="1"/>
        <pt x="316" y="151" on="1"/>
        <pt x="501" y="81" on="1"/>
        <pt x="485" y="0" on="1"/>
        <pt x="-39" y="0" on="1"/>
        <pt x="-21" y="94" on="1"/>
        <pt x="139" y="156" on="1"/>
        <pt x="585" y="1384" on="1"/>
        <pt x="819" y="1419" on="1"/>
        <pt x="1309" y="149" on="1"/>
        <pt x="1467" y="97" on="1"/>
      </contour>
      <contour>
        <pt x="645" y="1155" on="1"/>
        <pt x="635" y="1091" on="0"/>
        <pt x="459" y="568" on="1"/>
        <pt x="842" y="568" on="1"/>
      </contour>
    </TTGlyph>
    <TTGlyph name="B" xMin="58" yMin="0" xMax="1285" yMax="1384">
      <contour>
        <pt x="250" y="155" on="1"/>
        <pt x="250" y="1230" on="1"/>
        <pt x="63" y="1304" on="1"/>
        <pt x="80" y="1384" on="1"/>
        <pt x="477" y="1384" on="1"/>
        <pt x="731" y="1384" on="0"/>
        <pt x="1033" y="1347" on="0"/>
        <pt x="1222" y="1207" on="0"/>
        <pt x="1222" y="1060" on="1"/>
        <pt x="1222" y="969" on="0"/>
        <pt x="1132" y="836" on="0"/>
        <pt x="984" y="756" on="0"/>
        <pt x="894" y="740" on="1"/>
        <pt x="1004" y="729" on="0"/>
        <pt x="1181" y="641" on="0"/>
        <pt x="1285" y="491" on="0"/>
        <pt x="1285" y="392" on="1"/>
        <pt x="1285" y="246" on="0"/>
        <pt x="1138" y="75" on="0"/>
        <pt x="839" y="0" on="0"/>
        <pt x="599" y="0" on="1"/>
        <pt x="58" y="0" on="1"/>
        <pt x="75" y="85" on="1"/>
      </contour>
      <contour>
        <pt x="553" y="1305" on="1"/>
        <pt x="553" y="81" on="1"/>
        <pt x="679" y="100" on="0"/>
        <pt x="856" y="162" on="0"/>
        <pt x="969" y="287" on="0"/>
        <pt x="969" y="391" on="1"/>
        <pt x="969" y="517" on="0"/>
        <pt x="795" y="666" on="0"/>
        <pt x="659" y="701" on="1"/>
        <pt x="668" y="760" on="1"/>
        <pt x="788" y="797" on="0"/>
        <pt x="916" y="947" on="0"/>
        <pt x="916" y="1051" on="1"/>
        <pt x="916" y="1176" on="0"/>
        <pt x="710" y="1289" on="0"/>
      </contour>
    </TTGlyph>
    <TTGlyph name="C" xMin="85" yMin="-35" xMax="1242" yMax="1419">
      <contour>
        <pt x="85" y="646" on="1"/>
        <pt x="85" y="843" on="0"/>
        <pt x="221" y="1167" on="0"/>
        <pt x="347" y="1269" on="1"/>
        <pt x="530" y="1419" on="0"/>
        <pt x="799" y="1419" on="1"/>
        <pt x="894" y="1419" on="0"/>
        <pt x="1020" y="1398" on="1"/>
        <pt x="1166" y="1408" on="1"/>
        <pt x="1196" y="1027" on="1"/>
        <pt x="1073" y="1005" on="1"/>
        <pt x="986" y="1211" on="1"/>
        <pt x="931" y="1242" on="0"/>
        <pt x="800" y="1269" on="0"/>
        <pt x="720" y="1269" on="1"/>
        <pt x="656" y="1269" on="0"/>
        <pt x="546" y="1241" on="0"/>
        <pt x="520" y="1215" on="1"/>
        <pt x="465" y="1159" on="0"/>
        <pt x="403" y="900" on="0"/>
        <pt x="403" y="742" on="1"/>
        <pt x="403" y="477" on="0"/>
        <pt x="526" y="316" on="1"/>
        <pt x="584" y="240" on="0"/>
        <pt x="736" y="164" on="0"/>
        <pt x="810" y="164" on="1"/>
        <pt x="862" y="164" on="0"/>
        <pt x="1149" y="215" on="0"/>
        <pt x="1206" y="230" on="1"/>
        <pt x="1242" y="167" on="1"/>
        <pt x="1154" y="67" on="0"/>
        <pt x="900" y="-35" on="0"/>
        <pt x="739" y="-35" on="1"/>
        <pt x="545" y="-35" on="0"/>
        <pt x="249" y="123" on="0"/>
        <pt x="85" y="430" on="0"/>
      </contour>
    </TTGlyph>
    <TTGlyph name="Cacute" xMin="85" yMin="-35" xMax="1242" yMax="1801">
      <contour>
        <pt x="890" y="1801" on="1"/>
        <pt x="1020" y="1801" on="1"/>
        <pt x="1053" y="1636" on="1"/>
        <pt x="564" y="1489" on="1"/>
        <pt x="540" y="1597" on="1"/>
      </contour>
      <contour>
        <pt x="85" y="646" on="1"/>
        <pt x="85" y="843" on="0"/>
        <pt x="221" y="1167" on="0"/>
        <pt x="347" y="1269" on="1"/>
        <pt x="530" y="1419" on="0"/>
        <pt x="799" y="1419" on="1"/>
        <pt x="894" y="1419" on="0"/>
        <pt x="1020" y="1398" on="1"/>
        <pt x="1166" y="1408" on="1"/>
        <pt x="1196" y="1027" on="1"/>
        <pt x="1073" y="1005" on="1"/>
        <pt x="986" y="1211" on="1"/>
        <pt x="931" y="1242" on="0"/>
        <pt x="800" y="1269" on="0"/>
        <pt x="720" y="1269" on="1"/>
        <pt x="656" y="1269" on="0"/>
        <pt x="546" y="1241" on="0"/>
        <pt x="520" y="1215" on="1"/>
        <pt x="465" y="1159" on="0"/>
        <pt x="403" y="900" on="0"/>
        <pt x="403" y="742" on="1"/>
        <pt x="403" y="477" on="0"/>
        <pt x="526" y="316" on="1"/>
        <pt x="584" y="240" on="0"/>
        <pt x="736" y="164" on="0"/>
        <pt x="810" y="164" on="1"/>
        <pt x="862" y="164" on="0"/>
        <pt x="1149" y="215" on="0"/>
        <pt x="1206" y="230" on="1"/>
        <pt x="1242" y="167" on="1"/>
        <pt x="1154" y="67" on="0"/>
        <pt x="900" y="-35" on="0"/>
        <pt x="739" y="-35" on="1"/>
        <pt x="545" y="-35" on="0"/>
        <pt x="249" y="123" on="0"/>
        <pt x="85" y="430" on="0"/>
      </contour>
    </TTGlyph>
    <TTGlyph name="Ccaron" xMin="85" yMin="-35" xMax="1242" yMax="1815">
      <contour>
        <pt x="480" y="1815" on="1"/>
        <pt x="735" y="1688" on="1"/>
        <pt x="990" y="1815" on="1"/>
        <pt x="1072" y="1741" on="1"/>
        <pt x="799" y="1515" on="1"/>
        <pt x="672" y="1515" on="1"/>
        <pt x="398" y="1741" on="1"/>
      </contour>
      <contour>
        <pt x="85" y="646" on="1"/>
        <pt x="85" y="843" on="0"/>
        <pt x="221" y="1167" on="0"/>
        <pt x="347" y="1269" on="1"/>
        <pt x="530" y="1419" on="0"/>
        <pt x="799" y="1419" on="1"/>
        <pt x="894" y="1419" on="0"/>
        <pt x="1020" y="1398" on="1"/>
        <pt x="1166" y="1408" on="1"/>
        <pt x="1196" y="1027" on="1"/>
        <pt x="1073" y="1005" on="1"/>
        <pt x="986" y="1211" on="1"/>
        <pt x="931" y="1242" on="0"/>
        <pt x="800" y="1269" on="0"/>
        <pt x="720" y="1269" on="1"/>
        <pt x="656" y="1269" on="0"/>
        <pt x="546" y="1241" on="0"/>
        <pt x="520" y="1215" on="1"/>
        <pt x="465" y="1159" on="0"/>
        <pt x="403" y="900" on="0"/>
        <pt x="403" y="742" on="1"/>
        <pt x="403" y="477" on="0"/>
        <pt x="526" y="316" on="1"/>
        <pt x="584" y="240" on="0"/>
        <pt x="736" y="164" on="0"/>
        <pt x="810" y="164" on="1"/>
        <pt x="862" y="164" on="0"/>
        <pt x="1149" y="215" on="0"/>
        <pt x="1206" y="230" on="1"/>
        <pt x="1242" y="167" on="1"/>
        <pt x="1154" y="67" on="0"/>
        <pt x="900" y="-35" on="0"/>
        <pt x="739" y="-35" on="1"/>
        <pt x="545" y="-35" on="0"/>
        <pt x="249" y="123" on="0"/>
        <pt x="85" y="430" on="0"/>
      </contour>
    </TTGlyph>
    <TTGlyph name="Ccedilla" xMin="85" yMin="-500" xMax="1242" yMax="1419">
      <contour>
        <pt x="778" y="-34" on="1"/>
        <pt x="754" y="-102" on="1"/>
        <pt x="806" y="-105" on="0"/>
        <pt x="901" y="-145" on="0"/>
        <pt x="960" y="-216" on="0"/>
        <pt x="960" y="-263" on="1"/>
        <pt x="960" y="-343" on="0"/>
        <pt x="838" y="-450" on="0"/>
        <pt x="650" y="-500" on="0"/>
        <pt x="551" y="-500" on="1"/>
        <pt x="536" y="-430" on="1"/>
        <pt x="680" y="-378" on="0"/>
        <pt x="777" y="-309" on="0"/>
        <pt x="777" y="-284" on="1"/>
        <pt x="777" y="-225" on="0"/>
        <pt x="553" y="-192" on="1"/>
        <pt x="579" y="-105" on="0"/>
        <pt x="650" y="-31" on="1"/>
        <pt x="480" y="-13" on="0"/>
        <pt x="225" y="154" on="0"/>
        <pt x="85" y="447" on="0"/>
        <pt x="85" y="646" on="1"/>
        <pt x="85" y="843" on="0"/>
        <pt x="221" y="1167" on="0"/>
        <pt x="347" y="1269" on="1"/>
        <pt x="530" y="1419" on="0"/>
        <pt x="799" y="1419" on="1"/>
        <pt x="894" y="1419" on="0"/>
        <pt x="1020" y="1398" on="1"/>
        <pt x="1166" y="1408" on="1"/>
        <pt x="1196" y="1027" on="1"/>
        <pt x="1073" y="1005" on="1"/>
        <pt x="986" y="1211" on="1"/>
        <pt x="931" y="1242" on="0"/>
        <pt x="800" y="1269" on="0"/>
        <pt x="720" y="1269" on="1"/>
        <pt x="656" y="1269" on="0"/>
        <pt x="546" y="1241" on="0"/>
        <pt x="520" y="1215" on="1"/>
        <pt x="465" y="1159" on="0"/>
        <pt x="403" y="900" on="0"/>
        <pt x="403" y="742" on="1"/>
        <pt x="403" y="477" on="0"/>
        <pt x="526" y="316" on="1"/>
        <pt x="584" y="240" on="0"/>
        <pt x="736" y="164" on="0"/>
        <pt x="810" y="164" on="1"/>
        <pt x="862" y="164" on="0"/>
        <pt x="1149" y="215" on="0"/>
        <pt x="1206" y="230" on="1"/>
        <pt x="1242" y="167" on="1"/>
        <pt x="1076" y="-22" on="0"/>
      </contour>
    </TTGlyph>
    <TTGlyph name="D" xMin="58" yMin="0" xMax="1435" yMax="1384">
      <contour>
        <pt x="251" y="1230" on="1"/>
        <pt x="64" y="1303" on="1"/>
        <pt x="81" y="1384" on="1"/>
        <pt x="551" y="1384" on="1"/>
        <pt x="746" y="1384" on="0"/>
        <pt x="1044" y="1342" on="0"/>
        <pt x="1152" y="1276" on="1"/>
        <pt x="1301" y="1185" on="0"/>
        <pt x="1435" y="888" on="0"/>
        <pt x="1435" y="701" on="1"/>
        <pt x="1435" y="544" on="0"/>
        <pt x="1353" y="294" on="0"/>
        <pt x="1271" y="207" on="1"/>
        <pt x="1192" y="123" on="0"/>
        <pt x="966" y="32" on="0"/>
        <pt x="704" y="0" on="0"/>
        <pt x="538" y="0" on="1"/>
        <pt x="58" y="0" on="1"/>
        <pt x="75" y="84" on="1"/>
        <pt x="251" y="155" on="1"/>
      </contour>
      <contour>
        <pt x="1117" y="697" on="1"/>
        <pt x="1117" y="1012" on="0"/>
        <pt x="909" y="1165" on="1"/>
        <pt x="849" y="1209" on="0"/>
        <pt x="659" y="1274" on="0"/>
        <pt x="554" y="1288" on="1"/>
        <pt x="554" y="99" on="1"/>
        <pt x="746" y="127" on="0"/>
        <pt x="990" y="252" on="0"/>
        <pt x="1117" y="496" on="0"/>
      </contour>
    </TTGlyph>
    <TTGlyph name="Dcaron" xMin="58" yMin="0" xMax="1435" yMax="1815">
      <contour>
        <pt x="434" y="1815" on="1"/>
        <pt x="689" y="1688" on="1"/>
        <pt x="944" y="1815" on="1"/>
        <pt x="1026" y="1741" on="1"/>
        <pt x="753" y="1515" on="1"/>
        <pt x="626" y="1515" on="1"/>
        <pt x="352" y="1741" on="1"/>
      </contour>
      <contour>
        <pt x="251" y="1230" on="1"/>
        <pt x="64" y="1303" on="1"/>
        <pt x="81" y="1384" on="1"/>
        <pt x="551" y="1384" on="1"/>
        <pt x="746" y="1384" on="0"/>
        <pt x="1044" y="1342" on="0"/>
        <pt x="1152" y="1276" on="1"/>
        <pt x="1301" y="1185" on="0"/>
        <pt x="1435" y="888" on="0"/>
        <pt x="1435" y="701" on="1"/>
        <pt x="1435" y="544" on="0"/>
        <pt x="1353" y="294" on="0"/>
        <pt x="1271" y="207" on="1"/>
        <pt x="1192" y="123" on="0"/>
        <pt x="966" y="32" on="0"/>
        <pt x="704" y="0" on="0"/>
        <pt x="538" y="0" on="1"/>
        <pt x="58" y="0" on="1"/>
        <pt x="75" y="84" on="1"/>
        <pt x="251" y="155" on="1"/>
      </contour>
      <contour>
        <pt x="1117" y="697" on="1"/>
        <pt x="1117" y="1012" on="0"/>
        <pt x="909" y="1165" on="1"/>
        <pt x="849" y="1209" on="0"/>
        <pt x="659" y="1274" on="0"/>
        <pt x="554" y="1288" on="1"/>
        <pt x="554" y="99" on="1"/>
        <pt x="746" y="127" on="0"/>
        <pt x="990" y="252" on="0"/>
        <pt x="1117" y="496" on="0"/>
      </contour>
    </TTGlyph>
    <TTGlyph name="Dcroat" xMin="48" yMin="0" xMax="1436" yMax="1384">
      <contour>
        <pt x="1436" y="701" on="1"/>
        <pt x="1436" y="545" on="0"/>
        <pt x="1355" y="294" on="0"/>
        <pt x="1273" y="207" on="1"/>
        <pt x="1194" y="123" on="0"/>
        <pt x="967" y="32" on="0"/>
        <pt x="705" y="0" on="0"/>
        <pt x="539" y="0" on="1"/>
        <pt x="60" y="0" on="1"/>
        <pt x="77" y="84" on="1"/>
        <pt x="252" y="155" on="1"/>
        <pt x="252" y="606" on="1"/>
        <pt x="48" y="599" on="1"/>
        <pt x="84" y="778" on="1"/>
        <pt x="252" y="778" on="1"/>
        <pt x="252" y="1230" on="1"/>
        <pt x="65" y="1303" on="1"/>
        <pt x="82" y="1384" on="1"/>
        <pt x="553" y="1384" on="1"/>
        <pt x="748" y="1384" on="0"/>
        <pt x="1045" y="1342" on="0"/>
        <pt x="1154" y="1276" on="1"/>
        <pt x="1302" y="1185" on="0"/>
        <pt x="1436" y="888" on="0"/>
      </contour>
      <contour>
        <pt x="1118" y="697" on="1"/>
        <pt x="1118" y="1013" on="0"/>
        <pt x="910" y="1165" on="1"/>
        <pt x="850" y="1209" on="0"/>
        <pt x="660" y="1274" on="0"/>
        <pt x="555" y="1288" on="1"/>
        <pt x="555" y="778" on="1"/>
        <pt x="848" y="778" on="1"/>
        <pt x="813" y="624" on="1"/>
        <pt x="555" y="616" on="1"/>
        <pt x="555" y="99" on="1"/>
        <pt x="747" y="127" on="0"/>
        <pt x="991" y="252" on="0"/>
        <pt x="1118" y="496" on="0"/>
      </contour>
    </TTGlyph>
    <TTGlyph name="Delta" xMin="75" yMin="0" xMax="1284" yMax="1419">
      <contour>
        <pt x="782" y="1419" on="1"/>
        <pt x="1284" y="90" on="1"/>
        <pt x="1262" y="0" on="1"/>
        <pt x="97" y="0" on="1"/>
        <pt x="75" y="91" on="1"/>
        <pt x="648" y="1419" on="1"/>
      </contour>
      <contour>
        <pt x="656" y="1002" on="1"/>
        <pt x="314" y="201" on="1"/>
        <pt x="933" y="231" on="1"/>
      </contour>
    </TTGlyph>
    <TTGlyph name="E" xMin="54" yMin="0" xMax="1291" yMax="1397">
      <contour>
        <pt x="1179" y="359" on="1"/>
        <pt x="1291" y="341" on="1"/>
        <pt x="1212" y="0" on="1"/>
        <pt x="54" y="0" on="1"/>
        <pt x="70" y="88" on="1"/>
        <pt x="252" y="157" on="1"/>
        <pt x="252" y="1231" on="1"/>
        <pt x="64" y="1304" on="1"/>
        <pt x="83" y="1384" on="1"/>
        <pt x="1040" y="1384" on="1"/>
        <pt x="1178" y="1397" on="1"/>
        <pt x="1216" y="1046" on="1"/>
        <pt x="1094" y="1022" on="1"/>
        <pt x="998" y="1234" on="1"/>
        <pt x="554" y="1296" on="1"/>
        <pt x="554" y="741" on="1"/>
        <pt x="691" y="765" on="0"/>
        <pt x="814" y="775" on="1"/>
        <pt x="879" y="944" on="1"/>
        <pt x="972" y="924" on="1"/>
        <pt x="954" y="453" on="1"/>
        <pt x="859" y="470" on="1"/>
        <pt x="813" y="628" on="1"/>
        <pt x="659" y="637" on="0"/>
        <pt x="554" y="659" on="1"/>
        <pt x="554" y="99" on="1"/>
        <pt x="1057" y="165" on="1"/>
      </contour>
    </TTGlyph>
    <TTGlyph name="Eacute" xMin="54" yMin="0" xMax="1291" yMax="1801">
      <contour>
        <pt x="816" y="1801" on="1"/>
        <pt x="946" y="1801" on="1"/>
        <pt x="979" y="1636" on="1"/>
        <pt x="490" y="1489" on="1"/>
        <pt x="466" y="1597" on="1"/>
      </contour>
      <contour>
        <pt x="1179" y="359" on="1"/>
        <pt x="1291" y="341" on="1"/>
        <pt x="1212" y="0" on="1"/>
        <pt x="54" y="0" on="1"/>
        <pt x="70" y="88" on="1"/>
        <pt x="252" y="157" on="1"/>
        <pt x="252" y="1231" on="1"/>
        <pt x="64" y="1304" on="1"/>
        <pt x="83" y="1384" on="1"/>
        <pt x="1040" y="1384" on="1"/>
        <pt x="1178" y="1397" on="1"/>
        <pt x="1216" y="1046" on="1"/>
        <pt x="1094" y="1022" on="1"/>
        <pt x="998" y="1234" on="1"/>
        <pt x="554" y="1296" on="1"/>
        <pt x="554" y="741" on="1"/>
        <pt x="691" y="765" on="0"/>
        <pt x="814" y="775" on="1"/>
        <pt x="879" y="944" on="1"/>
        <pt x="972" y="924" on="1"/>
        <pt x="954" y="453" on="1"/>
        <pt x="859" y="470" on="1"/>
        <pt x="813" y="628" on="1"/>
        <pt x="659" y="637" on="0"/>
        <pt x="554" y="659" on="1"/>
        <pt x="554" y="99" on="1"/>
        <pt x="1057" y="165" on="1"/>
      </contour>
    </TTGlyph>
    <TTGlyph name="Ecaron" xMin="54" yMin="0" xMax="1291" yMax="1815">
      <contour>
        <pt x="406" y="1815" on="1"/>
        <pt x="661" y="1688" on="1"/>
        <pt x="916" y="1815" on="1"/>
        <pt x="998" y="1741" on="1"/>
        <pt x="725" y="1515" on="1"/>
        <pt x="598" y="1515" on="1"/>
        <pt x="324" y="1741" on="1"/>
      </contour>
      <contour>
        <pt x="1179" y="359" on="1"/>
        <pt x="1291" y="341" on="1"/>
        <pt x="1212" y="0" on="1"/>
        <pt x="54" y="0" on="1"/>
        <pt x="70" y="88" on="1"/>
        <pt x="252" y="157" on="1"/>
        <pt x="252" y="1231" on="1"/>
        <pt x="64" y="1304" on="1"/>
        <pt x="83" y="1384" on="1"/>
        <pt x="1040" y="1384" on="1"/>
        <pt x="1178" y="1397" on="1"/>
        <pt x="1216" y="1046" on="1"/>
        <pt x="1094" y="1022" on="1"/>
        <pt x="998" y="1234" on="1"/>
        <pt x="554" y="1296" on="1"/>
        <pt x="554" y="741" on="1"/>
        <pt x="691" y="765" on="0"/>
        <pt x="814" y="775" on="1"/>
        <pt x="879" y="944" on="1"/>
        <pt x="972" y="924" on="1"/>
        <pt x="954" y="453" on="1"/>
        <pt x="859" y="470" on="1"/>
        <pt x="813" y="628" on="1"/>
        <pt x="659" y="637" on="0"/>
        <pt x="554" y="659" on="1"/>
        <pt x="554" y="99" on="1"/>
        <pt x="1057" y="165" on="1"/>
      </contour>
    </TTGlyph>
    <TTGlyph name="Ecircumflex" xMin="54" yMin="0" xMax="1291" yMax="1797">
      <contour>
        <pt x="603" y="1797" on="1"/>
        <pt x="721" y="1797" on="1"/>
        <pt x="1002" y="1560" on="1"/>
        <pt x="916" y="1486" on="1"/>
        <pt x="662" y="1612" on="1"/>
        <pt x="408" y="1486" on="1"/>
        <pt x="323" y="1560" on="1"/>
      </contour>
      <contour>
        <pt x="1179" y="359" on="1"/>
        <pt x="1291" y="341" on="1"/>
        <pt x="1212" y="0" on="1"/>
        <pt x="54" y="0" on="1"/>
        <pt x="70" y="88" on="1"/>
        <pt x="252" y="157" on="1"/>
        <pt x="252" y="1231" on="1"/>
        <pt x="64" y="1304" on="1"/>
        <pt x="83" y="1384" on="1"/>
        <pt x="1040" y="1384" on="1"/>
        <pt x="1178" y="1397" on="1"/>
        <pt x="1216" y="1046" on="1"/>
        <pt x="1094" y="1022" on="1"/>
        <pt x="998" y="1234" on="1"/>
        <pt x="554" y="1296" on="1"/>
        <pt x="554" y="741" on="1"/>
        <pt x="691" y="765" on="0"/>
        <pt x="814" y="775" on="1"/>
        <pt x="879" y="944" on="1"/>
        <pt x="972" y="924" on="1"/>
        <pt x="954" y="453" on="1"/>
        <pt x="859" y="470" on="1"/>
        <pt x="813" y="628" on="1"/>
        <pt x="659" y="637" on="0"/>
        <pt x="554" y="659" on="1"/>
        <pt x="554" y="99" on="1"/>
        <pt x="1057" y="165" on="1"/>
      </contour>
    </TTGlyph>
    <TTGlyph name="Edieresis" xMin="54" yMin="0" xMax="1291" yMax="1783">
      <contour>
        <pt x="408" y="1783" on="1"/>
        <pt x="428" y="1783" on="0"/>
        <pt x="503" y="1741" on="0"/>
        <pt x="566" y="1686" on="0"/>
        <pt x="570" y="1667" on="1"/>
        <pt x="573" y="1647" on="0"/>
        <pt x="529" y="1565" on="0"/>
        <pt x="468" y="1499" on="0"/>
        <pt x="447" y="1499" on="1"/>
        <pt x="427" y="1499" on="0"/>
        <pt x="352" y="1541" on="0"/>
        <pt x="290" y="1597" on="0"/>
        <pt x="286" y="1616" on="1"/>
        <pt x="283" y="1635" on="0"/>
        <pt x="327" y="1717" on="0"/>
        <pt x="388" y="1783" on="0"/>
      </contour>
      <contour>
        <pt x="876" y="1783" on="1"/>
        <pt x="896" y="1783" on="0"/>
        <pt x="971" y="1741" on="0"/>
        <pt x="1033" y="1686" on="0"/>
        <pt x="1037" y="1667" on="1"/>
        <pt x="1040" y="1647" on="0"/>
        <pt x="997" y="1565" on="0"/>
        <pt x="937" y="1499" on="0"/>
        <pt x="916" y="1499" on="1"/>
        <pt x="895" y="1499" on="0"/>
        <pt x="820" y="1541" on="0"/>
        <pt x="758" y="1597" on="0"/>
        <pt x="754" y="1616" on="1"/>
        <pt x="751" y="1636" on="0"/>
        <pt x="794" y="1718" on="0"/>
        <pt x="855" y="1783" on="0"/>
      </contour>
      <contour>
        <pt x="1179" y="359" on="1"/>
        <pt x="1291" y="341" on="1"/>
        <pt x="1212" y="0" on="1"/>
        <pt x="54" y="0" on="1"/>
        <pt x="70" y="88" on="1"/>
        <pt x="252" y="157" on="1"/>
        <pt x="252" y="1231" on="1"/>
        <pt x="64" y="1304" on="1"/>
        <pt x="83" y="1384" on="1"/>
        <pt x="1040" y="1384" on="1"/>
        <pt x="1178" y="1397" on="1"/>
        <pt x="1216" y="1046" on="1"/>
        <pt x="1094" y="1022" on="1"/>
        <pt x="998" y="1234" on="1"/>
        <pt x="554" y="1296" on="1"/>
        <pt x="554" y="741" on="1"/>
        <pt x="691" y="765" on="0"/>
        <pt x="814" y="775" on="1"/>
        <pt x="879" y="944" on="1"/>
        <pt x="972" y="924" on="1"/>
        <pt x="954" y="453" on="1"/>
        <pt x="859" y="470" on="1"/>
        <pt x="813" y="628" on="1"/>
        <pt x="659" y="637" on="0"/>
        <pt x="554" y="659" on="1"/>
        <pt x="554" y="99" on="1"/>
        <pt x="1057" y="165" on="1"/>
      </contour>
    </TTGlyph>
    <TTGlyph name="Edotaccent" xMin="54" yMin="0" xMax="1291" yMax="1776">
      <contour>
        <pt x="524" y="1667" on="1"/>
        <pt x="524" y="1673" on="0"/>
        <pt x="525" y="1676" on="1"/>
        <pt x="529" y="1693" on="0"/>
        <pt x="588" y="1741" on="0"/>
        <pt x="661" y="1776" on="0"/>
        <pt x="684" y="1776" on="1"/>
        <pt x="691" y="1776" on="0"/>
        <pt x="694" y="1775" on="1"/>
        <pt x="710" y="1771" on="0"/>
        <pt x="758" y="1711" on="0"/>
        <pt x="794" y="1638" on="0"/>
        <pt x="794" y="1616" on="1"/>
        <pt x="794" y="1610" on="0"/>
        <pt x="793" y="1607" on="1"/>
        <pt x="789" y="1590" on="0"/>
        <pt x="729" y="1541" on="0"/>
        <pt x="655" y="1505" on="0"/>
        <pt x="632" y="1505" on="1"/>
        <pt x="626" y="1505" on="0"/>
        <pt x="623" y="1506" on="1"/>
        <pt x="607" y="1510" on="0"/>
        <pt x="559" y="1571" on="0"/>
        <pt x="524" y="1645" on="0"/>
      </contour>
      <contour>
        <pt x="1179" y="359" on="1"/>
        <pt x="1291" y="341" on="1"/>
        <pt x="1212" y="0" on="1"/>
        <pt x="54" y="0" on="1"/>
        <pt x="70" y="88" on="1"/>
        <pt x="252" y="157" on="1"/>
        <pt x="252" y="1231" on="1"/>
        <pt x="64" y="1304" on="1"/>
        <pt x="83" y="1384" on="1"/>
        <pt x="1040" y="1384" on="1"/>
        <pt x="1178" y="1397" on="1"/>
        <pt x="1216" y="1046" on="1"/>
        <pt x="1094" y="1022" on="1"/>
        <pt x="998" y="1234" on="1"/>
        <pt x="554" y="1296" on="1"/>
        <pt x="554" y="741" on="1"/>
        <pt x="691" y="765" on="0"/>
        <pt x="814" y="775" on="1"/>
        <pt x="879" y="944" on="1"/>
        <pt x="972" y="924" on="1"/>
        <pt x="954" y="453" on="1"/>
        <pt x="859" y="470" on="1"/>
        <pt x="813" y="628" on="1"/>
        <pt x="659" y="637" on="0"/>
        <pt x="554" y="659" on="1"/>
        <pt x="554" y="99" on="1"/>
        <pt x="1057" y="165" on="1"/>
      </contour>
    </TTGlyph>
    <TTGlyph name="Egrave" xMin="54" yMin="0" xMax="1291" yMax="1801">
      <contour>
        <pt x="438" y="1801" on="1"/>
        <pt x="568" y="1801" on="1"/>
        <pt x="916" y="1599" on="1"/>
        <pt x="894" y="1488" on="1"/>
        <pt x="405" y="1637" on="1"/>
      </contour>
      <contour>
        <pt x="1179" y="359" on="1"/>
        <pt x="1291" y="341" on="1"/>
        <pt x="1212" y="0" on="1"/>
        <pt x="54" y="0" on="1"/>
        <pt x="70" y="88" on="1"/>
        <pt x="252" y="157" on="1"/>
        <pt x="252" y="1231" on="1"/>
        <pt x="64" y="1304" on="1"/>
        <pt x="83" y="1384" on="1"/>
        <pt x="1040" y="1384" on="1"/>
        <pt x="1178" y="1397" on="1"/>
        <pt x="1216" y="1046" on="1"/>
        <pt x="1094" y="1022" on="1"/>
        <pt x="998" y="1234" on="1"/>
        <pt x="554" y="1296" on="1"/>
        <pt x="554" y="741" on="1"/>
        <pt x="691" y="765" on="0"/>
        <pt x="814" y="775" on="1"/>
        <pt x="879" y="944" on="1"/>
        <pt x="972" y="924" on="1"/>
        <pt x="954" y="453" on="1"/>
        <pt x="859" y="470" on="1"/>
        <pt x="813" y="628" on="1"/>
        <pt x="659" y="637" on="0"/>
        <pt x="554" y="659" on="1"/>
        <pt x="554" y="99" on="1"/>
        <pt x="1057" y="165" on="1"/>
      </contour>
    </TTGlyph>
    <TTGlyph name="Emacron" xMin="54" yMin="0" xMax="1291" yMax="1701">
      <contour>
        <pt x="973" y="1701" on="1"/>
        <pt x="944" y="1545" on="1"/>
        <pt x="829" y="1539" on="0"/>
        <pt x="478" y="1533" on="0"/>
        <pt x="349" y="1533" on="1"/>
        <pt x="382" y="1701" on="1"/>
      </contour>
      <contour>
        <pt x="1179" y="359" on="1"/>
        <pt x="1291" y="341" on="1"/>
        <pt x="1212" y="0" on="1"/>
        <pt x="54" y="0" on="1"/>
        <pt x="70" y="88" on="1"/>
        <pt x="252" y="157" on="1"/>
        <pt x="252" y="1231" on="1"/>
        <pt x="64" y="1304" on="1"/>
        <pt x="83" y="1384" on="1"/>
        <pt x="1040" y="1384" on="1"/>
        <pt x="1178" y="1397" on="1"/>
        <pt x="1216" y="1046" on="1"/>
        <pt x="1094" y="1022" on="1"/>
        <pt x="998" y="1234" on="1"/>
        <pt x="554" y="1296" on="1"/>
        <pt x="554" y="741" on="1"/>
        <pt x="691" y="765" on="0"/>
        <pt x="814" y="775" on="1"/>
        <pt x="879" y="944" on="1"/>
        <pt x="972" y="924" on="1"/>
        <pt x="954" y="453" on="1"/>
        <pt x="859" y="470" on="1"/>
        <pt x="813" y="628" on="1"/>
        <pt x="659" y="637" on="0"/>
        <pt x="554" y="659" on="1"/>
        <pt x="554" y="99" on="1"/>
        <pt x="1057" y="165" on="1"/>
      </contour>
    </TTGlyph>
    <TTGlyph name="Eogonek" xMin="54" yMin="-493" xMax="1290" yMax="1397">
      <contour>
        <pt x="1214" y="-310" on="1"/>
        <pt x="1239" y="-353" on="1"/>
        <pt x="1177" y="-420" on="0"/>
        <pt x="1033" y="-493" on="0"/>
        <pt x="955" y="-493" on="1"/>
        <pt x="892" y="-493" on="0"/>
        <pt x="784" y="-446" on="0"/>
        <pt x="716" y="-351" on="0"/>
        <pt x="716" y="-281" on="1"/>
        <pt x="716" y="-183" on="0"/>
        <pt x="809" y="-100" on="1"/>
        <pt x="866" y="-48" on="0"/>
        <pt x="959" y="0" on="1"/>
        <pt x="54" y="0" on="1"/>
        <pt x="70" y="88" on="1"/>
        <pt x="252" y="157" on="1"/>
        <pt x="252" y="1231" on="1"/>
        <pt x="64" y="1304" on="1"/>
        <pt x="83" y="1384" on="1"/>
        <pt x="1040" y="1384" on="1"/>
        <pt x="1178" y="1397" on="1"/>
        <pt x="1216" y="1046" on="1"/>
        <pt x="1094" y="1022" on="1"/>
        <pt x="998" y="1234" on="1"/>
        <pt x="554" y="1296" on="1"/>
        <pt x="554" y="741" on="1"/>
        <pt x="691" y="765" on="0"/>
        <pt x="813" y="775" on="1"/>
        <pt x="878" y="944" on="1"/>
        <pt x="971" y="924" on="1"/>
        <pt x="953" y="453" on="1"/>
        <pt x="858" y="470" on="1"/>
        <pt x="812" y="628" on="1"/>
        <pt x="659" y="637" on="0"/>
        <pt x="554" y="659" on="1"/>
        <pt x="554" y="99" on="1"/>
        <pt x="1056" y="165" on="1"/>
        <pt x="1178" y="359" on="1"/>
        <pt x="1290" y="341" on="1"/>
        <pt x="1211" y="0" on="1"/>
        <pt x="1123" y="0" on="1"/>
        <pt x="1024" y="-82" on="0"/>
        <pt x="939" y="-186" on="0"/>
        <pt x="939" y="-230" on="1"/>
        <pt x="939" y="-266" on="0"/>
        <pt x="978" y="-334" on="0"/>
        <pt x="1010" y="-348" on="1"/>
        <pt x="1024" y="-355" on="0"/>
        <pt x="1045" y="-355" on="1"/>
        <pt x="1075" y="-355" on="0"/>
        <pt x="1165" y="-331" on="0"/>
      </contour>
    </TTGlyph>
    <TTGlyph name="Eth" xMin="47" yMin="0" xMax="1435" yMax="1384">
      <contour>
        <pt x="1435" y="701" on="1"/>
        <pt x="1435" y="545" on="0"/>
        <pt x="1354" y="294" on="0"/>
        <pt x="1272" y="207" on="1"/>
        <pt x="1193" y="123" on="0"/>
        <pt x="966" y="32" on="0"/>
        <pt x="704" y="0" on="0"/>
        <pt x="538" y="0" on="1"/>
        <pt x="59" y="0" on="1"/>
        <pt x="76" y="84" on="1"/>
        <pt x="251" y="155" on="1"/>
        <pt x="251" y="606" on="1"/>
        <pt x="47" y="599" on="1"/>
        <pt x="83" y="778" on="1"/>
        <pt x="251" y="778" on="1"/>
        <pt x="251" y="1230" on="1"/>
        <pt x="64" y="1303" on="1"/>
        <pt x="81" y="1384" on="1"/>
        <pt x="552" y="1384" on="1"/>
        <pt x="747" y="1384" on="0"/>
        <pt x="1044" y="1342" on="0"/>
        <pt x="1153" y="1276" on="1"/>
        <pt x="1301" y="1185" on="0"/>
        <pt x="1435" y="888" on="0"/>
      </contour>
      <contour>
        <pt x="1117" y="697" on="1"/>
        <pt x="1117" y="1013" on="0"/>
        <pt x="909" y="1165" on="1"/>
        <pt x="849" y="1209" on="0"/>
        <pt x="659" y="1274" on="0"/>
        <pt x="554" y="1288" on="1"/>
        <pt x="554" y="778" on="1"/>
        <pt x="847" y="778" on="1"/>
        <pt x="812" y="624" on="1"/>
        <pt x="554" y="616" on="1"/>
        <pt x="554" y="99" on="1"/>
        <pt x="746" y="127" on="0"/>
        <pt x="990" y="252" on="0"/>
        <pt x="1117" y="496" on="0"/>
      </contour>
    </TTGlyph>
    <TTGlyph name="Euro" xMin="52" yMin="-26" xMax="1143" yMax="1339">
      <contour>
        <pt x="1110" y="75" on="1"/>
        <pt x="919" y="-26" on="0"/>
        <pt x="743" y="-26" on="1"/>
        <pt x="611" y="-26" on="0"/>
        <pt x="386" y="87" on="0"/>
        <pt x="235" y="298" on="0"/>
        <pt x="209" y="440" on="1"/>
        <pt x="110" y="447" on="0"/>
        <pt x="52" y="457" on="1"/>
        <pt x="71" y="562" on="1"/>
        <pt x="197" y="562" on="1"/>
        <pt x="197" y="576" on="1"/>
        <pt x="197" y="652" on="0"/>
        <pt x="203" y="723" on="1"/>
        <pt x="123" y="727" on="0"/>
        <pt x="52" y="739" on="1"/>
        <pt x="71" y="844" on="1"/>
        <pt x="218" y="844" on="1"/>
        <pt x="242" y="978" on="0"/>
        <pt x="349" y="1170" on="0"/>
        <pt x="435" y="1231" on="1"/>
        <pt x="507" y="1281" on="0"/>
        <pt x="702" y="1339" on="0"/>
        <pt x="801" y="1339" on="1"/>
        <pt x="969" y="1339" on="0"/>
        <pt x="1107" y="1270" on="1"/>
        <pt x="1138" y="992" on="1"/>
        <pt x="1060" y="974" on="1"/>
        <pt x="970" y="1137" on="1"/>
        <pt x="939" y="1170" on="0"/>
        <pt x="833" y="1202" on="0"/>
        <pt x="772" y="1202" on="1"/>
        <pt x="723" y="1202" on="0"/>
        <pt x="634" y="1183" on="0"/>
        <pt x="605" y="1165" on="1"/>
        <pt x="572" y="1143" on="0"/>
        <pt x="508" y="976" on="0"/>
        <pt x="493" y="844" on="1"/>
        <pt x="888" y="844" on="1"/>
        <pt x="871" y="750" on="1"/>
        <pt x="811" y="742" on="0"/>
        <pt x="596" y="724" on="0"/>
        <pt x="484" y="720" on="1"/>
        <pt x="483" y="696" on="0"/>
        <pt x="483" y="646" on="1"/>
        <pt x="483" y="601" on="0"/>
        <pt x="487" y="562" on="1"/>
        <pt x="888" y="562" on="1"/>
        <pt x="871" y="468" on="1"/>
        <pt x="698" y="446" on="0"/>
        <pt x="505" y="439" on="1"/>
        <pt x="522" y="361" on="0"/>
        <pt x="549" y="306" on="1"/>
        <pt x="569" y="267" on="0"/>
        <pt x="642" y="170" on="0"/>
        <pt x="731" y="100" on="0"/>
        <pt x="772" y="100" on="1"/>
        <pt x="819" y="100" on="0"/>
        <pt x="928" y="129" on="0"/>
        <pt x="960" y="151" on="1"/>
        <pt x="1049" y="323" on="1"/>
        <pt x="1143" y="302" on="1"/>
      </contour>
    </TTGlyph>
    <TTGlyph name="F" xMin="50" yMin="0" xMax="1238" yMax="1397">
      <contour>
        <pt x="76" y="1384" on="1"/>
        <pt x="1076" y="1384" on="1"/>
        <pt x="1203" y="1397" on="1"/>
        <pt x="1238" y="1043" on="1"/>
        <pt x="1118" y="1023" on="1"/>
        <pt x="1022" y="1234" on="1"/>
        <pt x="548" y="1294" on="1"/>
        <pt x="548" y="741" on="1"/>
        <pt x="659" y="759" on="0"/>
        <pt x="837" y="776" on="1"/>
        <pt x="903" y="945" on="1"/>
        <pt x="996" y="922" on="1"/>
        <pt x="978" y="451" on="1"/>
        <pt x="882" y="466" on="1"/>
        <pt x="836" y="628" on="1"/>
        <pt x="689" y="631" on="0"/>
        <pt x="548" y="651" on="1"/>
        <pt x="548" y="157" on="1"/>
        <pt x="831" y="102" on="1"/>
        <pt x="795" y="0" on="1"/>
        <pt x="50" y="0" on="1"/>
        <pt x="67" y="87" on="1"/>
        <pt x="246" y="157" on="1"/>
        <pt x="246" y="1231" on="1"/>
        <pt x="58" y="1302" on="1"/>
      </contour>
    </TTGlyph>
    <TTGlyph name="G" xMin="77" yMin="-35" xMax="1457" yMax="1418">
      <contour>
        <pt x="765" y="666" on="1"/>
        <pt x="1457" y="666" on="1"/>
        <pt x="1443" y="577" on="1"/>
        <pt x="1321" y="499" on="1"/>
        <pt x="1321" y="212" on="1"/>
        <pt x="1273" y="143" on="0"/>
        <pt x="1105" y="30" on="0"/>
        <pt x="894" y="-35" on="0"/>
        <pt x="783" y="-35" on="1"/>
        <pt x="613" y="-35" on="0"/>
        <pt x="363" y="47" on="0"/>
        <pt x="262" y="142" on="1"/>
        <pt x="173" y="227" on="0"/>
        <pt x="77" y="489" on="0"/>
        <pt x="77" y="649" on="1"/>
        <pt x="77" y="838" on="0"/>
        <pt x="213" y="1166" on="0"/>
        <pt x="350" y="1277" on="1"/>
        <pt x="435" y="1346" on="0"/>
        <pt x="664" y="1418" on="0"/>
        <pt x="794" y="1418" on="1"/>
        <pt x="864" y="1418" on="0"/>
        <pt x="1017" y="1403" on="0"/>
        <pt x="1085" y="1389" on="1"/>
        <pt x="1236" y="1402" on="1"/>
        <pt x="1277" y="1028" on="1"/>
        <pt x="1154" y="1007" on="1"/>
        <pt x="1075" y="1188" on="1"/>
        <pt x="1020" y="1230" on="0"/>
        <pt x="845" y="1276" on="0"/>
        <pt x="760" y="1276" on="1"/>
        <pt x="685" y="1276" on="0"/>
        <pt x="551" y="1249" on="0"/>
        <pt x="523" y="1223" on="1"/>
        <pt x="460" y="1167" on="0"/>
        <pt x="392" y="901" on="0"/>
        <pt x="392" y="708" on="1"/>
        <pt x="392" y="557" on="0"/>
        <pt x="466" y="313" on="0"/>
        <pt x="536" y="242" on="1"/>
        <pt x="599" y="174" on="0"/>
        <pt x="746" y="121" on="0"/>
        <pt x="828" y="121" on="1"/>
        <pt x="878" y="121" on="0"/>
        <pt x="993" y="143" on="0"/>
        <pt x="1025" y="163" on="1"/>
        <pt x="1025" y="507" on="1"/>
        <pt x="750" y="583" on="1"/>
      </contour>
    </TTGlyph>
    <TTGlyph name="Gbreve" xMin="77" yMin="-35" xMax="1457" yMax="1792">
      <contour>
        <pt x="476" y="1718" on="1"/>
        <pt x="476" y="1781" on="0"/>
        <pt x="500" y="1792" on="1"/>
        <pt x="623" y="1792" on="1"/>
        <pt x="653" y="1625" on="0"/>
        <pt x="781" y="1625" on="1"/>
        <pt x="840" y="1625" on="0"/>
        <pt x="919" y="1706" on="0"/>
        <pt x="933" y="1792" on="1"/>
        <pt x="1058" y="1792" on="1"/>
        <pt x="1068" y="1785" on="0"/>
        <pt x="1080" y="1750" on="0"/>
        <pt x="1080" y="1724" on="1"/>
        <pt x="1080" y="1655" on="0"/>
        <pt x="1003" y="1542" on="0"/>
        <pt x="867" y="1477" on="0"/>
        <pt x="781" y="1477" on="1"/>
        <pt x="693" y="1477" on="0"/>
        <pt x="553" y="1541" on="0"/>
        <pt x="476" y="1652" on="0"/>
      </contour>
      <contour>
        <pt x="765" y="666" on="1"/>
        <pt x="1457" y="666" on="1"/>
        <pt x="1443" y="577" on="1"/>
        <pt x="1321" y="499" on="1"/>
        <pt x="1321" y="212" on="1"/>
        <pt x="1273" y="143" on="0"/>
        <pt x="1105" y="30" on="0"/>
        <pt x="894" y="-35" on="0"/>
        <pt x="783" y="-35" on="1"/>
        <pt x="613" y="-35" on="0"/>
        <pt x="363" y="47" on="0"/>
        <pt x="262" y="142" on="1"/>
        <pt x="173" y="227" on="0"/>
        <pt x="77" y="489" on="0"/>
        <pt x="77" y="649" on="1"/>
        <pt x="77" y="838" on="0"/>
        <pt x="213" y="1166" on="0"/>
        <pt x="350" y="1277" on="1"/>
        <pt x="435" y="1346" on="0"/>
        <pt x="664" y="1418" on="0"/>
        <pt x="794" y="1418" on="1"/>
        <pt x="864" y="1418" on="0"/>
        <pt x="1017" y="1403" on="0"/>
        <pt x="1085" y="1389" on="1"/>
        <pt x="1236" y="1402" on="1"/>
        <pt x="1277" y="1028" on="1"/>
        <pt x="1154" y="1007" on="1"/>
        <pt x="1075" y="1188" on="1"/>
        <pt x="1020" y="1230" on="0"/>
        <pt x="845" y="1276" on="0"/>
        <pt x="760" y="1276" on="1"/>
        <pt x="685" y="1276" on="0"/>
        <pt x="551" y="1249" on="0"/>
        <pt x="523" y="1223" on="1"/>
        <pt x="460" y="1167" on="0"/>
        <pt x="392" y="901" on="0"/>
        <pt x="392" y="708" on="1"/>
        <pt x="392" y="557" on="0"/>
        <pt x="466" y="313" on="0"/>
        <pt x="536" y="242" on="1"/>
        <pt x="599" y="174" on="0"/>
        <pt x="746" y="121" on="0"/>
        <pt x="828" y="121" on="1"/>
        <pt x="878" y="121" on="0"/>
        <pt x="993" y="143" on="0"/>
        <pt x="1025" y="163" on="1"/>
        <pt x="1025" y="507" on="1"/>
        <pt x="750" y="583" on="1"/>
      </contour>
    </TTGlyph>
    <TTGlyph name="Gcommaaccent" xMin="77" yMin="-528" xMax="1457" yMax="1418">
      <contour>
        <pt x="765" y="666" on="1"/>
        <pt x="1457" y="666" on="1"/>
        <pt x="1443" y="577" on="1"/>
        <pt x="1321" y="499" on="1"/>
        <pt x="1321" y="212" on="1"/>
        <pt x="1273" y="143" on="0"/>
        <pt x="1105" y="30" on="0"/>
        <pt x="894" y="-35" on="0"/>
        <pt x="783" y="-35" on="1"/>
        <pt x="613" y="-35" on="0"/>
        <pt x="363" y="47" on="0"/>
        <pt x="262" y="142" on="1"/>
        <pt x="173" y="227" on="0"/>
        <pt x="77" y="489" on="0"/>
        <pt x="77" y="649" on="1"/>
        <pt x="77" y="838" on="0"/>
        <pt x="213" y="1166" on="0"/>
        <pt x="350" y="1277" on="1"/>
        <pt x="435" y="1346" on="0"/>
        <pt x="664" y="1418" on="0"/>
        <pt x="794" y="1418" on="1"/>
        <pt x="864" y="1418" on="0"/>
        <pt x="1017" y="1403" on="0"/>
        <pt x="1085" y="1389" on="1"/>
        <pt x="1236" y="1402" on="1"/>
        <pt x="1277" y="1028" on="1"/>
        <pt x="1154" y="1007" on="1"/>
        <pt x="1075" y="1188" on="1"/>
        <pt x="1020" y="1230" on="0"/>
        <pt x="845" y="1276" on="0"/>
        <pt x="760" y="1276" on="1"/>
        <pt x="685" y="1276" on="0"/>
        <pt x="551" y="1249" on="0"/>
        <pt x="523" y="1223" on="1"/>
        <pt x="460" y="1167" on="0"/>
        <pt x="392" y="901" on="0"/>
        <pt x="392" y="708" on="1"/>
        <pt x="392" y="557" on="0"/>
        <pt x="466" y="313" on="0"/>
        <pt x="536" y="242" on="1"/>
        <pt x="599" y="174" on="0"/>
        <pt x="746" y="121" on="0"/>
        <pt x="828" y="121" on="1"/>
        <pt x="878" y="121" on="0"/>
        <pt x="993" y="143" on="0"/>
        <pt x="1025" y="163" on="1"/>
        <pt x="1025" y="507" on="1"/>
        <pt x="750" y="583" on="1"/>
      </contour>
      <contour>
        <pt x="894" y="-167" on="1"/>
        <pt x="955" y="-219" on="0"/>
        <pt x="955" y="-297" on="1"/>
        <pt x="955" y="-369" on="0"/>
        <pt x="860" y="-473" on="0"/>
        <pt x="730" y="-528" on="0"/>
        <pt x="681" y="-528" on="1"/>
        <pt x="656" y="-459" on="1"/>
        <pt x="736" y="-406" on="0"/>
        <pt x="790" y="-353" on="0"/>
        <pt x="790" y="-328" on="1"/>
        <pt x="790" y="-281" on="0"/>
        <pt x="667" y="-253" on="1"/>
        <pt x="703" y="-102" on="1"/>
        <pt x="757" y="-102" on="0"/>
        <pt x="857" y="-135" on="0"/>
      </contour>
    </TTGlyph>
    <TTGlyph name="H" xMin="57" yMin="0" xMax="1612" yMax="1384">
      <contour>
        <pt x="735" y="0" on="1"/>
        <pt x="57" y="0" on="1"/>
        <pt x="73" y="85" on="1"/>
        <pt x="251" y="156" on="1"/>
        <pt x="251" y="1230" on="1"/>
        <pt x="64" y="1303" on="1"/>
        <pt x="81" y="1384" on="1"/>
        <pt x="742" y="1384" on="1"/>
        <pt x="723" y="1294" on="1"/>
        <pt x="548" y="1224" on="1"/>
        <pt x="548" y="772" on="1"/>
        <pt x="1118" y="772" on="1"/>
        <pt x="1118" y="1229" on="1"/>
        <pt x="933" y="1301" on="1"/>
        <pt x="951" y="1384" on="1"/>
        <pt x="1612" y="1384" on="1"/>
        <pt x="1596" y="1301" on="1"/>
        <pt x="1415" y="1229" on="1"/>
        <pt x="1415" y="154" on="1"/>
        <pt x="1604" y="81" on="1"/>
        <pt x="1586" y="0" on="1"/>
        <pt x="907" y="0" on="1"/>
        <pt x="924" y="88" on="1"/>
        <pt x="1118" y="158" on="1"/>
        <pt x="1118" y="624" on="1"/>
        <pt x="853" y="610" on="0"/>
        <pt x="548" y="602" on="1"/>
        <pt x="548" y="159" on="1"/>
        <pt x="755" y="87" on="1"/>
      </contour>
    </TTGlyph>
    <TTGlyph name="I" xMin="56" yMin="0" xMax="751" yMax="1384">
      <contour>
        <pt x="251" y="1230" on="1"/>
        <pt x="64" y="1302" on="1"/>
        <pt x="81" y="1384" on="1"/>
        <pt x="751" y="1384" on="1"/>
        <pt x="736" y="1300" on="1"/>
        <pt x="554" y="1228" on="1"/>
        <pt x="554" y="156" on="1"/>
        <pt x="746" y="82" on="1"/>
        <pt x="728" y="0" on="1"/>
        <pt x="56" y="0" on="1"/>
        <pt x="74" y="86" on="1"/>
        <pt x="251" y="156" on="1"/>
      </contour>
    </TTGlyph>
    <TTGlyph name="Iacute" xMin="56" yMin="0" xMax="751" yMax="1801">
      <contour>
        <pt x="558" y="1801" on="1"/>
        <pt x="688" y="1801" on="1"/>
        <pt x="721" y="1636" on="1"/>
        <pt x="232" y="1489" on="1"/>
        <pt x="208" y="1597" on="1"/>
      </contour>
      <contour>
        <pt x="251" y="1230" on="1"/>
        <pt x="64" y="1302" on="1"/>
        <pt x="81" y="1384" on="1"/>
        <pt x="751" y="1384" on="1"/>
        <pt x="736" y="1300" on="1"/>
        <pt x="554" y="1228" on="1"/>
        <pt x="554" y="156" on="1"/>
        <pt x="746" y="82" on="1"/>
        <pt x="728" y="0" on="1"/>
        <pt x="56" y="0" on="1"/>
        <pt x="74" y="86" on="1"/>
        <pt x="251" y="156" on="1"/>
      </contour>
    </TTGlyph>
    <TTGlyph name="Icircumflex" xMin="56" yMin="0" xMax="751" yMax="1797">
      <contour>
        <pt x="345" y="1797" on="1"/>
        <pt x="463" y="1797" on="1"/>
        <pt x="744" y="1560" on="1"/>
        <pt x="658" y="1486" on="1"/>
        <pt x="404" y="1612" on="1"/>
        <pt x="150" y="1486" on="1"/>
        <pt x="65" y="1560" on="1"/>
      </contour>
      <contour>
        <pt x="251" y="1230" on="1"/>
        <pt x="64" y="1302" on="1"/>
        <pt x="81" y="1384" on="1"/>
        <pt x="751" y="1384" on="1"/>
        <pt x="736" y="1300" on="1"/>
        <pt x="554" y="1228" on="1"/>
        <pt x="554" y="156" on="1"/>
        <pt x="746" y="82" on="1"/>
        <pt x="728" y="0" on="1"/>
        <pt x="56" y="0" on="1"/>
        <pt x="74" y="86" on="1"/>
        <pt x="251" y="156" on="1"/>
      </contour>
    </TTGlyph>
    <TTGlyph name="Idieresis" xMin="28" yMin="0" xMax="785" yMax="1783">
      <contour>
        <pt x="153" y="1783" on="1"/>
        <pt x="173" y="1783" on="0"/>
        <pt x="248" y="1741" on="0"/>
        <pt x="311" y="1686" on="0"/>
        <pt x="315" y="1667" on="1"/>
        <pt x="318" y="1647" on="0"/>
        <pt x="274" y="1565" on="0"/>
        <pt x="213" y="1499" on="0"/>
        <pt x="192" y="1499" on="1"/>
        <pt x="172" y="1499" on="0"/>
        <pt x="97" y="1541" on="0"/>
        <pt x="35" y="1597" on="0"/>
        <pt x="31" y="1616" on="1"/>
        <pt x="28" y="1635" on="0"/>
        <pt x="72" y="1717" on="0"/>
        <pt x="133" y="1783" on="0"/>
      </contour>
      <contour>
        <pt x="621" y="1783" on="1"/>
        <pt x="641" y="1783" on="0"/>
        <pt x="716" y="1741" on="0"/>
        <pt x="778" y="1686" on="0"/>
        <pt x="782" y="1667" on="1"/>
        <pt x="785" y="1647" on="0"/>
        <pt x="742" y="1565" on="0"/>
        <pt x="682" y="1499" on="0"/>
        <pt x="661" y="1499" on="1"/>
        <pt x="640" y="1499" on="0"/>
        <pt x="565" y="1541" on="0"/>
        <pt x="503" y="1597" on="0"/>
        <pt x="499" y="1616" on="1"/>
        <pt x="496" y="1636" on="0"/>
        <pt x="539" y="1718" on="0"/>
        <pt x="600" y="1783" on="0"/>
      </contour>
      <contour>
        <pt x="254" y="1230" on="1"/>
        <pt x="67" y="1302" on="1"/>
        <pt x="84" y="1384" on="1"/>
        <pt x="754" y="1384" on="1"/>
        <pt x="739" y="1300" on="1"/>
        <pt x="557" y="1228" on="1"/>
        <pt x="557" y="156" on="1"/>
        <pt x="749" y="82" on="1"/>
        <pt x="731" y="0" on="1"/>
        <pt x="59" y="0" on="1"/>
        <pt x="77" y="86" on="1"/>
        <pt x="254" y="156" on="1"/>
      </contour>
    </TTGlyph>
    <TTGlyph name="Idotaccent" xMin="56" yMin="0" xMax="751" yMax="1776">
      <contour>
        <pt x="266" y="1667" on="1"/>
        <pt x="266" y="1673" on="0"/>
        <pt x="267" y="1676" on="1"/>
        <pt x="271" y="1693" on="0"/>
        <pt x="330" y="1741" on="0"/>
        <pt x="403" y="1776" on="0"/>
        <pt x="426" y="1776" on="1"/>
        <pt x="433" y="1776" on="0"/>
        <pt x="436" y="1775" on="1"/>
        <pt x="452" y="1771" on="0"/>
        <pt x="500" y="1711" on="0"/>
        <pt x="536" y="1638" on="0"/>
        <pt x="536" y="1616" on="1"/>
        <pt x="536" y="1610" on="0"/>
        <pt x="535" y="1607" on="1"/>
        <pt x="531" y="1590" on="0"/>
        <pt x="471" y="1541" on="0"/>
        <pt x="397" y="1505" on="0"/>
        <pt x="374" y="1505" on="1"/>
        <pt x="368" y="1505" on="0"/>
        <pt x="365" y="1506" on="1"/>
        <pt x="349" y="1510" on="0"/>
        <pt x="301" y="1571" on="0"/>
        <pt x="266" y="1645" on="0"/>
      </contour>
      <contour>
        <pt x="251" y="1230" on="1"/>
        <pt x="64" y="1302" on="1"/>
        <pt x="81" y="1384" on="1"/>
        <pt x="751" y="1384" on="1"/>
        <pt x="736" y="1300" on="1"/>
        <pt x="554" y="1228" on="1"/>
        <pt x="554" y="156" on="1"/>
        <pt x="746" y="82" on="1"/>
        <pt x="728" y="0" on="1"/>
        <pt x="56" y="0" on="1"/>
        <pt x="74" y="86" on="1"/>
        <pt x="251" y="156" on="1"/>
      </contour>
    </TTGlyph>
    <TTGlyph name="Igrave" xMin="56" yMin="0" xMax="751" yMax="1801">
      <contour>
        <pt x="180" y="1801" on="1"/>
        <pt x="310" y="1801" on="1"/>
        <pt x="658" y="1599" on="1"/>
        <pt x="636" y="1488" on="1"/>
        <pt x="147" y="1637" on="1"/>
      </contour>
      <contour>
        <pt x="251" y="1230" on="1"/>
        <pt x="64" y="1302" on="1"/>
        <pt x="81" y="1384" on="1"/>
        <pt x="751" y="1384" on="1"/>
        <pt x="736" y="1300" on="1"/>
        <pt x="554" y="1228" on="1"/>
        <pt x="554" y="156" on="1"/>
        <pt x="746" y="82" on="1"/>
        <pt x="728" y="0" on="1"/>
        <pt x="56" y="0" on="1"/>
        <pt x="74" y="86" on="1"/>
        <pt x="251" y="156" on="1"/>
      </contour>
    </TTGlyph>
    <TTGlyph name="Imacron" xMin="56" yMin="0" xMax="751" yMax="1701">
      <contour>
        <pt x="715" y="1701" on="1"/>
        <pt x="686" y="1545" on="1"/>
        <pt x="571" y="1539" on="0"/>
        <pt x="220" y="1533" on="0"/>
        <pt x="91" y="1533" on="1"/>
        <pt x="124" y="1701" on="1"/>
      </contour>
      <contour>
        <pt x="251" y="1230" on="1"/>
        <pt x="64" y="1302" on="1"/>
        <pt x="81" y="1384" on="1"/>
        <pt x="751" y="1384" on="1"/>
        <pt x="736" y="1300" on="1"/>
        <pt x="554" y="1228" on="1"/>
        <pt x="554" y="156" on="1"/>
        <pt x="746" y="82" on="1"/>
        <pt x="728" y="0" on="1"/>
        <pt x="56" y="0" on="1"/>
        <pt x="74" y="86" on="1"/>
        <pt x="251" y="156" on="1"/>
      </contour>
    </TTGlyph>
    <TTGlyph name="Iogonek" xMin="58" yMin="-493" xMax="752" yMax="1384">
      <contour>
        <pt x="251" y="1230" on="1"/>
        <pt x="64" y="1304" on="1"/>
        <pt x="82" y="1384" on="1"/>
        <pt x="752" y="1384" on="1"/>
        <pt x="734" y="1300" on="1"/>
        <pt x="554" y="1229" on="1"/>
        <pt x="554" y="155" on="1"/>
        <pt x="745" y="83" on="1"/>
        <pt x="728" y="0" on="1"/>
        <pt x="646" y="-12" on="0"/>
        <pt x="511" y="-98" on="0"/>
        <pt x="433" y="-200" on="0"/>
        <pt x="433" y="-232" on="1"/>
        <pt x="433" y="-266" on="0"/>
        <pt x="473" y="-334" on="0"/>
        <pt x="505" y="-348" on="1"/>
        <pt x="521" y="-355" on="0"/>
        <pt x="539" y="-355" on="1"/>
        <pt x="570" y="-355" on="0"/>
        <pt x="666" y="-330" on="0"/>
        <pt x="707" y="-310" on="1"/>
        <pt x="734" y="-354" on="1"/>
        <pt x="689" y="-395" on="0"/>
        <pt x="618" y="-450" on="0"/>
        <pt x="512" y="-493" on="0"/>
        <pt x="450" y="-493" on="1"/>
        <pt x="387" y="-493" on="0"/>
        <pt x="277" y="-447" on="0"/>
        <pt x="210" y="-351" on="0"/>
        <pt x="210" y="-281" on="1"/>
        <pt x="210" y="-183" on="0"/>
        <pt x="362" y="-51" on="0"/>
        <pt x="480" y="0" on="1"/>
        <pt x="58" y="0" on="1"/>
        <pt x="73" y="87" on="1"/>
        <pt x="251" y="155" on="1"/>
      </contour>
    </TTGlyph>
    <TTGlyph name="J" xMin="34" yMin="-331" xMax="732" yMax="1384">
      <contour>
        <pt x="51" y="1384" on="1"/>
        <pt x="732" y="1384" on="1"/>
        <pt x="716" y="1300" on="1"/>
        <pt x="548" y="1229" on="1"/>
        <pt x="548" y="456" on="1"/>
        <pt x="548" y="254" on="0"/>
        <pt x="481" y="-8" on="0"/>
        <pt x="307" y="-219" on="0"/>
        <pt x="140" y="-331" on="1"/>
        <pt x="78" y="-283" on="1"/>
        <pt x="121" y="-190" on="0"/>
        <pt x="246" y="138" on="0"/>
        <pt x="246" y="175" on="1"/>
        <pt x="246" y="1230" on="1"/>
        <pt x="34" y="1302" on="1"/>
      </contour>
    </TTGlyph>
    <TTGlyph name="K" xMin="58" yMin="0" xMax="1537" yMax="1384">
      <contour>
        <pt x="252" y="1230" on="1"/>
        <pt x="64" y="1304" on="1"/>
        <pt x="82" y="1384" on="1"/>
        <pt x="729" y="1384" on="1"/>
        <pt x="713" y="1297" on="1"/>
        <pt x="554" y="1227" on="1"/>
        <pt x="554" y="160" on="1"/>
        <pt x="752" y="86" on="1"/>
        <pt x="733" y="0" on="1"/>
        <pt x="58" y="0" on="1"/>
        <pt x="74" y="86" on="1"/>
        <pt x="252" y="155" on="1"/>
      </contour>
      <contour>
        <pt x="1537" y="82" on="1"/>
        <pt x="1519" y="0" on="1"/>
        <pt x="1004" y="0" on="1"/>
        <pt x="1021" y="81" on="1"/>
        <pt x="623" y="702" on="1"/>
        <pt x="1035" y="1234" on="1"/>
        <pt x="884" y="1306" on="1"/>
        <pt x="903" y="1384" on="1"/>
        <pt x="1517" y="1384" on="1"/>
        <pt x="1498" y="1297" on="1"/>
        <pt x="1322" y="1232" on="1"/>
        <pt x="930" y="751" on="1"/>
        <pt x="1347" y="156" on="1"/>
      </contour>
    </TTGlyph>
    <TTGlyph name="Kcommaaccent" xMin="58" yMin="-528" xMax="1537" yMax="1384">
      <contour>
        <pt x="252" y="1230" on="1"/>
        <pt x="64" y="1304" on="1"/>
        <pt x="82" y="1384" on="1"/>
        <pt x="729" y="1384" on="1"/>
        <pt x="713" y="1297" on="1"/>
        <pt x="554" y="1227" on="1"/>
        <pt x="554" y="160" on="1"/>
        <pt x="752" y="86" on="1"/>
        <pt x="733" y="0" on="1"/>
        <pt x="58" y="0" on="1"/>
        <pt x="74" y="86" on="1"/>
        <pt x="252" y="155" on="1"/>
      </contour>
      <contour>
        <pt x="1537" y="82" on="1"/>
        <pt x="1519" y="0" on="1"/>
        <pt x="1004" y="0" on="1"/>
        <pt x="1021" y="81" on="1"/>
        <pt x="623" y="702" on="1"/>
        <pt x="1035" y="1234" on="1"/>
        <pt x="884" y="1306" on="1"/>
        <pt x="903" y="1384" on="1"/>
        <pt x="1517" y="1384" on="1"/>
        <pt x="1498" y="1297" on="1"/>
        <pt x="1322" y="1232" on="1"/>
        <pt x="930" y="751" on="1"/>
        <pt x="1347" y="156" on="1"/>
      </contour>
      <contour>
        <pt x="845" y="-167" on="1"/>
        <pt x="906" y="-219" on="0"/>
        <pt x="906" y="-297" on="1"/>
        <pt x="906" y="-369" on="0"/>
        <pt x="811" y="-473" on="0"/>
        <pt x="681" y="-528" on="0"/>
        <pt x="632" y="-528" on="1"/>
        <pt x="607" y="-459" on="1"/>
        <pt x="687" y="-406" on="0"/>
        <pt x="741" y="-353" on="0"/>
        <pt x="741" y="-328" on="1"/>
        <pt x="741" y="-281" on="0"/>
        <pt x="618" y="-253" on="1"/>
        <pt x="654" y="-102" on="1"/>
        <pt x="708" y="-102" on="0"/>
        <pt x="808" y="-135" on="0"/>
      </contour>
    </TTGlyph>
    <TTGlyph name="L" xMin="57" yMin="0" xMax="1250" yMax="1384">
      <contour>
        <pt x="1250" y="342" on="1"/>
        <pt x="1171" y="0" on="1"/>
        <pt x="57" y="0" on="1"/>
        <pt x="73" y="85" on="1"/>
        <pt x="252" y="157" on="1"/>
        <pt x="252" y="1231" on="1"/>
        <pt x="64" y="1302" on="1"/>
        <pt x="82" y="1384" on="1"/>
        <pt x="759" y="1384" on="1"/>
        <pt x="743" y="1299" on="1"/>
        <pt x="555" y="1227" on="1"/>
        <pt x="555" y="100" on="1"/>
        <pt x="1013" y="166" on="1"/>
        <pt x="1138" y="359" on="1"/>
      </contour>
    </TTGlyph>
    <TTGlyph name="Lacute" xMin="57" yMin="0" xMax="1250" yMax="1801">
      <contour>
        <pt x="577" y="1801" on="1"/>
        <pt x="707" y="1801" on="1"/>
        <pt x="740" y="1636" on="1"/>
        <pt x="251" y="1489" on="1"/>
        <pt x="227" y="1597" on="1"/>
      </contour>
      <contour>
        <pt x="1250" y="342" on="1"/>
        <pt x="1171" y="0" on="1"/>
        <pt x="57" y="0" on="1"/>
        <pt x="73" y="85" on="1"/>
        <pt x="252" y="157" on="1"/>
        <pt x="252" y="1231" on="1"/>
        <pt x="64" y="1302" on="1"/>
        <pt x="82" y="1384" on="1"/>
        <pt x="759" y="1384" on="1"/>
        <pt x="743" y="1299" on="1"/>
        <pt x="555" y="1227" on="1"/>
        <pt x="555" y="100" on="1"/>
        <pt x="1013" y="166" on="1"/>
        <pt x="1138" y="359" on="1"/>
      </contour>
    </TTGlyph>
    <TTGlyph name="Lcaron" xMin="57" yMin="0" xMax="1250" yMax="1399">
      <contour>
        <pt x="992" y="1198" on="1"/>
        <pt x="888" y="1242" on="1"/>
        <pt x="907" y="1369" on="1"/>
        <pt x="1060" y="1398" on="0"/>
        <pt x="1166" y="1399" on="1"/>
        <pt x="1181" y="1372" on="0"/>
        <pt x="1192" y="1322" on="0"/>
        <pt x="1192" y="1295" on="1"/>
        <pt x="1192" y="1202" on="0"/>
        <pt x="1055" y="963" on="0"/>
        <pt x="955" y="872" on="1"/>
        <pt x="869" y="896" on="1"/>
        <pt x="950" y="1060" on="0"/>
      </contour>
      <contour>
        <pt x="1250" y="342" on="1"/>
        <pt x="1171" y="0" on="1"/>
        <pt x="57" y="0" on="1"/>
        <pt x="73" y="85" on="1"/>
        <pt x="252" y="157" on="1"/>
        <pt x="252" y="1231" on="1"/>
        <pt x="64" y="1302" on="1"/>
        <pt x="82" y="1384" on="1"/>
        <pt x="759" y="1384" on="1"/>
        <pt x="743" y="1299" on="1"/>
        <pt x="555" y="1227" on="1"/>
        <pt x="555" y="100" on="1"/>
        <pt x="1013" y="166" on="1"/>
        <pt x="1138" y="359" on="1"/>
      </contour>
    </TTGlyph>
    <TTGlyph name="Lcommaaccent" xMin="57" yMin="-528" xMax="1250" yMax="1384">
      <contour>
        <pt x="1250" y="342" on="1"/>
        <pt x="1171" y="0" on="1"/>
        <pt x="57" y="0" on="1"/>
        <pt x="73" y="85" on="1"/>
        <pt x="252" y="157" on="1"/>
        <pt x="252" y="1231" on="1"/>
        <pt x="64" y="1302" on="1"/>
        <pt x="82" y="1384" on="1"/>
        <pt x="759" y="1384" on="1"/>
        <pt x="743" y="1299" on="1"/>
        <pt x="555" y="1227" on="1"/>
        <pt x="555" y="100" on="1"/>
        <pt x="1013" y="166" on="1"/>
        <pt x="1138" y="359" on="1"/>
      </contour>
      <contour>
        <pt x="705" y="-167" on="1"/>
        <pt x="766" y="-219" on="0"/>
        <pt x="766" y="-297" on="1"/>
        <pt x="766" y="-369" on="0"/>
        <pt x="671" y="-473" on="0"/>
        <pt x="541" y="-528" on="0"/>
        <pt x="492" y="-528" on="1"/>
        <pt x="467" y="-459" on="1"/>
        <pt x="547" y="-406" on="0"/>
        <pt x="601" y="-353" on="0"/>
        <pt x="601" y="-328" on="1"/>
        <pt x="601" y="-281" on="0"/>
        <pt x="478" y="-253" on="1"/>
        <pt x="514" y="-102" on="1"/>
        <pt x="568" y="-102" on="0"/>
        <pt x="668" y="-135" on="0"/>
      </contour>
    </TTGlyph>
    <TTGlyph name="Lslash" xMin="4" yMin="0" xMax="1251" yMax="1384">
      <contour>
        <pt x="1172" y="0" on="1"/>
        <pt x="58" y="0" on="1"/>
        <pt x="74" y="85" on="1"/>
        <pt x="253" y="157" on="1"/>
        <pt x="253" y="530" on="1"/>
        <pt x="42" y="432" on="1"/>
        <pt x="4" y="614" on="1"/>
        <pt x="253" y="726" on="1"/>
        <pt x="253" y="1231" on="1"/>
        <pt x="65" y="1302" on="1"/>
        <pt x="83" y="1384" on="1"/>
        <pt x="760" y="1384" on="1"/>
        <pt x="744" y="1299" on="1"/>
        <pt x="556" y="1227" on="1"/>
        <pt x="556" y="861" on="1"/>
        <pt x="1008" y="1064" on="1"/>
        <pt x="1047" y="897" on="1"/>
        <pt x="556" y="670" on="1"/>
        <pt x="556" y="100" on="1"/>
        <pt x="1014" y="166" on="1"/>
        <pt x="1139" y="359" on="1"/>
        <pt x="1251" y="342" on="1"/>
      </contour>
    </TTGlyph>
    <TTGlyph name="M" xMin="59" yMin="-15" xMax="1976" yMax="1384">
      <contour>
        <pt x="85" y="1384" on="1"/>
        <pt x="575" y="1384" on="1"/>
        <pt x="1027" y="297" on="1"/>
        <pt x="1444" y="1384" on="1"/>
        <pt x="1976" y="1384" on="1"/>
        <pt x="1960" y="1290" on="1"/>
        <pt x="1780" y="1219" on="1"/>
        <pt x="1780" y="154" on="1"/>
        <pt x="1971" y="82" on="1"/>
        <pt x="1953" y="0" on="1"/>
        <pt x="1290" y="0" on="1"/>
        <pt x="1306" y="84" on="1"/>
        <pt x="1483" y="155" on="1"/>
        <pt x="1483" y="1149" on="1"/>
        <pt x="1407" y="891" on="0"/>
        <pt x="1209" y="346" on="0"/>
        <pt x="1080" y="25" on="1"/>
        <pt x="832" y="-15" on="1"/>
        <pt x="390" y="1143" on="1"/>
        <pt x="413" y="968" on="0"/>
        <pt x="426" y="539" on="0"/>
        <pt x="428" y="213" on="1"/>
        <pt x="428" y="154" on="1"/>
        <pt x="612" y="82" on="1"/>
        <pt x="595" y="0" on="1"/>
        <pt x="59" y="0" on="1"/>
        <pt x="76" y="85" on="1"/>
        <pt x="250" y="155" on="1"/>
        <pt x="250" y="1227" on="1"/>
        <pt x="67" y="1298" on="1"/>
      </contour>
    </TTGlyph>
    <TTGlyph name="N" xMin="63" yMin="-25" xMax="1529" yMax="1384">
      <contour>
        <pt x="250" y="1230" on="1"/>
        <pt x="63" y="1302" on="1"/>
        <pt x="81" y="1384" on="1"/>
        <pt x="520" y="1384" on="1"/>
        <pt x="1194" y="343" on="1"/>
        <pt x="1173" y="540" on="0"/>
        <pt x="1163" y="935" on="0"/>
        <pt x="1163" y="1231" on="1"/>
        <pt x="961" y="1301" on="1"/>
        <pt x="977" y="1384" on="1"/>
        <pt x="1529" y="1384" on="1"/>
        <pt x="1513" y="1300" on="1"/>
        <pt x="1345" y="1229" on="1"/>
        <pt x="1345" y="15" on="1"/>
        <pt x="1089" y="-25" on="1"/>
        <pt x="396" y="1055" on="1"/>
        <pt x="419" y="855" on="0"/>
        <pt x="430" y="454" on="0"/>
        <pt x="430" y="154" on="1"/>
        <pt x="637" y="82" on="1"/>
        <pt x="619" y="0" on="1"/>
        <pt x="63" y="0" on="1"/>
        <pt x="79" y="84" on="1"/>
        <pt x="250" y="155" on="1"/>
      </contour>
    </TTGlyph>
    <TTGlyph name="Nacute" xMin="63" yMin="-25" xMax="1529" yMax="1801">
      <contour>
        <pt x="929" y="1801" on="1"/>
        <pt x="1059" y="1801" on="1"/>
        <pt x="1092" y="1636" on="1"/>
        <pt x="603" y="1489" on="1"/>
        <pt x="579" y="1597" on="1"/>
      </contour>
      <contour>
        <pt x="250" y="1230" on="1"/>
        <pt x="63" y="1302" on="1"/>
        <pt x="81" y="1384" on="1"/>
        <pt x="520" y="1384" on="1"/>
        <pt x="1194" y="343" on="1"/>
        <pt x="1173" y="540" on="0"/>
        <pt x="1163" y="935" on="0"/>
        <pt x="1163" y="1231" on="1"/>
        <pt x="961" y="1301" on="1"/>
        <pt x="977" y="1384" on="1"/>
        <pt x="1529" y="1384" on="1"/>
        <pt x="1513" y="1300" on="1"/>
        <pt x="1345" y="1229" on="1"/>
        <pt x="1345" y="15" on="1"/>
        <pt x="1089" y="-25" on="1"/>
        <pt x="396" y="1055" on="1"/>
        <pt x="419" y="855" on="0"/>
        <pt x="430" y="454" on="0"/>
        <pt x="430" y="154" on="1"/>
        <pt x="637" y="82" on="1"/>
        <pt x="619" y="0" on="1"/>
        <pt x="63" y="0" on="1"/>
        <pt x="79" y="84" on="1"/>
        <pt x="250" y="155" on="1"/>
      </contour>
    </TTGlyph>
    <TTGlyph name="Ncaron" xMin="63" yMin="-25" xMax="1529" yMax="1815">
      <contour>
        <pt x="519" y="1815" on="1"/>
        <pt x="774" y="1688" on="1"/>
        <pt x="1029" y="1815" on="1"/>
        <pt x="1111" y="1741" on="1"/>
        <pt x="838" y="1515" on="1"/>
        <pt x="711" y="1515" on="1"/>
        <pt x="437" y="1741" on="1"/>
      </contour>
      <contour>
        <pt x="250" y="1230" on="1"/>
        <pt x="63" y="1302" on="1"/>
        <pt x="81" y="1384" on="1"/>
        <pt x="520" y="1384" on="1"/>
        <pt x="1194" y="343" on="1"/>
        <pt x="1173" y="540" on="0"/>
        <pt x="1163" y="935" on="0"/>
        <pt x="1163" y="1231" on="1"/>
        <pt x="961" y="1301" on="1"/>
        <pt x="977" y="1384" on="1"/>
        <pt x="1529" y="1384" on="1"/>
        <pt x="1513" y="1300" on="1"/>
        <pt x="1345" y="1229" on="1"/>
        <pt x="1345" y="15" on="1"/>
        <pt x="1089" y="-25" on="1"/>
        <pt x="396" y="1055" on="1"/>
        <pt x="419" y="855" on="0"/>
        <pt x="430" y="454" on="0"/>
        <pt x="430" y="154" on="1"/>
        <pt x="637" y="82" on="1"/>
        <pt x="619" y="0" on="1"/>
        <pt x="63" y="0" on="1"/>
        <pt x="79" y="84" on="1"/>
        <pt x="250" y="155" on="1"/>
      </contour>
    </TTGlyph>
    <TTGlyph name="Ncommaaccent" xMin="63" yMin="-528" xMax="1529" yMax="1384">
      <contour>
        <pt x="250" y="1230" on="1"/>
        <pt x="63" y="1302" on="1"/>
        <pt x="81" y="1384" on="1"/>
        <pt x="520" y="1384" on="1"/>
        <pt x="1194" y="343" on="1"/>
        <pt x="1173" y="540" on="0"/>
        <pt x="1163" y="935" on="0"/>
        <pt x="1163" y="1231" on="1"/>
        <pt x="961" y="1301" on="1"/>
        <pt x="977" y="1384" on="1"/>
        <pt x="1529" y="1384" on="1"/>
        <pt x="1513" y="1300" on="1"/>
        <pt x="1345" y="1229" on="1"/>
        <pt x="1345" y="15" on="1"/>
        <pt x="1089" y="-25" on="1"/>
        <pt x="396" y="1055" on="1"/>
        <pt x="419" y="855" on="0"/>
        <pt x="430" y="454" on="0"/>
        <pt x="430" y="154" on="1"/>
        <pt x="637" y="82" on="1"/>
        <pt x="619" y="0" on="1"/>
        <pt x="63" y="0" on="1"/>
        <pt x="79" y="84" on="1"/>
        <pt x="250" y="155" on="1"/>
      </contour>
      <contour>
        <pt x="867" y="-167" on="1"/>
        <pt x="928" y="-219" on="0"/>
        <pt x="928" y="-297" on="1"/>
        <pt x="928" y="-369" on="0"/>
        <pt x="833" y="-473" on="0"/>
        <pt x="703" y="-528" on="0"/>
        <pt x="654" y="-528" on="1"/>
        <pt x="629" y="-459" on="1"/>
        <pt x="709" y="-406" on="0"/>
        <pt x="763" y="-353" on="0"/>
        <pt x="763" y="-328" on="1"/>
        <pt x="763" y="-281" on="0"/>
        <pt x="640" y="-253" on="1"/>
        <pt x="676" y="-102" on="1"/>
        <pt x="730" y="-102" on="0"/>
        <pt x="830" y="-135" on="0"/>
      </contour>
    </TTGlyph>
    <TTGlyph name="Ntilde" xMin="63" yMin="-25" xMax="1529" yMax="1831">
      <contour>
        <pt x="650" y="1831" on="1"/>
        <pt x="701" y="1831" on="0"/>
        <pt x="781" y="1786" on="0"/>
        <pt x="831" y="1744" on="1"/>
        <pt x="860" y="1720" on="0"/>
        <pt x="896" y="1696" on="0"/>
        <pt x="912" y="1696" on="1"/>
        <pt x="944" y="1696" on="0"/>
        <pt x="1062" y="1760" on="0"/>
        <pt x="1121" y="1809" on="1"/>
        <pt x="1142" y="1675" on="1"/>
        <pt x="1095" y="1623" on="0"/>
        <pt x="1026" y="1559" on="0"/>
        <pt x="943" y="1515" on="0"/>
        <pt x="896" y="1515" on="1"/>
        <pt x="846" y="1515" on="0"/>
        <pt x="765" y="1561" on="0"/>
        <pt x="717" y="1602" on="1"/>
        <pt x="687" y="1627" on="0"/>
        <pt x="652" y="1650" on="0"/>
        <pt x="637" y="1650" on="1"/>
        <pt x="603" y="1650" on="0"/>
        <pt x="482" y="1585" on="0"/>
        <pt x="430" y="1537" on="1"/>
        <pt x="405" y="1670" on="1"/>
        <pt x="452" y="1723" on="0"/>
        <pt x="522" y="1788" on="0"/>
        <pt x="604" y="1831" on="0"/>
      </contour>
      <contour>
        <pt x="250" y="1230" on="1"/>
        <pt x="63" y="1302" on="1"/>
        <pt x="81" y="1384" on="1"/>
        <pt x="520" y="1384" on="1"/>
        <pt x="1194" y="343" on="1"/>
        <pt x="1173" y="540" on="0"/>
        <pt x="1163" y="935" on="0"/>
        <pt x="1163" y="1231" on="1"/>
        <pt x="961" y="1301" on="1"/>
        <pt x="977" y="1384" on="1"/>
        <pt x="1529" y="1384" on="1"/>
        <pt x="1513" y="1300" on="1"/>
        <pt x="1345" y="1229" on="1"/>
        <pt x="1345" y="15" on="1"/>
        <pt x="1089" y="-25" on="1"/>
        <pt x="396" y="1055" on="1"/>
        <pt x="419" y="855" on="0"/>
        <pt x="430" y="454" on="0"/>
        <pt x="430" y="154" on="1"/>
        <pt x="637" y="82" on="1"/>
        <pt x="619" y="0" on="1"/>
        <pt x="63" y="0" on="1"/>
        <pt x="79" y="84" on="1"/>
        <pt x="250" y="155" on="1"/>
      </contour>
    </TTGlyph>
    <TTGlyph name="O" xMin="76" yMin="-35" xMax="1413" yMax="1419">
      <contour>
        <pt x="788" y="1419" on="1"/>
        <pt x="958" y="1419" on="0"/>
        <pt x="1244" y="1260" on="0"/>
        <pt x="1413" y="961" on="0"/>
        <pt x="1413" y="762" on="1"/>
        <pt x="1413" y="546" on="0"/>
        <pt x="1244" y="182" on="0"/>
        <pt x="928" y="-35" on="0"/>
        <pt x="717" y="-35" on="1"/>
        <pt x="536" y="-35" on="0"/>
        <pt x="244" y="124" on="0"/>
        <pt x="76" y="422" on="0"/>
        <pt x="76" y="623" on="1"/>
        <pt x="76" y="838" on="0"/>
        <pt x="240" y="1201" on="0"/>
        <pt x="562" y="1419" on="0"/>
      </contour>
      <contour>
        <pt x="809" y="125" on="1"/>
        <pt x="867" y="125" on="0"/>
        <pt x="974" y="159" on="0"/>
        <pt x="1006" y="197" on="1"/>
        <pt x="1049" y="250" on="0"/>
        <pt x="1097" y="506" on="0"/>
        <pt x="1097" y="617" on="1"/>
        <pt x="1097" y="746" on="0"/>
        <pt x="1079" y="912" on="0"/>
        <pt x="1053" y="984" on="1"/>
        <pt x="1022" y="1066" on="0"/>
        <pt x="908" y="1191" on="0"/>
        <pt x="760" y="1259" on="0"/>
        <pt x="681" y="1259" on="1"/>
        <pt x="554" y="1259" on="0"/>
        <pt x="497" y="1203" on="1"/>
        <pt x="444" y="1151" on="0"/>
        <pt x="392" y="887" on="0"/>
        <pt x="392" y="766" on="1"/>
        <pt x="392" y="604" on="0"/>
        <pt x="434" y="373" on="0"/>
        <pt x="497" y="286" on="1"/>
        <pt x="552" y="210" on="0"/>
        <pt x="716" y="125" on="0"/>
      </contour>
    </TTGlyph>
    <TTGlyph name="OE" xMin="76" yMin="-35" xMax="1969" yMax="1419">
      <contour>
        <pt x="717" y="-35" on="1"/>
        <pt x="536" y="-35" on="0"/>
        <pt x="244" y="124" on="0"/>
        <pt x="76" y="422" on="0"/>
        <pt x="76" y="623" on="1"/>
        <pt x="76" y="838" on="0"/>
        <pt x="240" y="1201" on="0"/>
        <pt x="562" y="1419" on="0"/>
        <pt x="788" y="1419" on="1"/>
        <pt x="898" y="1419" on="0"/>
        <pt x="1000" y="1384" on="1"/>
        <pt x="1721" y="1384" on="1"/>
        <pt x="1860" y="1397" on="1"/>
        <pt x="1897" y="1045" on="1"/>
        <pt x="1776" y="1022" on="1"/>
        <pt x="1679" y="1234" on="1"/>
        <pt x="1271" y="1296" on="1"/>
        <pt x="1271" y="741" on="1"/>
        <pt x="1321" y="752" on="0"/>
        <pt x="1471" y="773" on="0"/>
        <pt x="1510" y="775" on="1"/>
        <pt x="1573" y="942" on="1"/>
        <pt x="1665" y="923" on="1"/>
        <pt x="1647" y="454" on="1"/>
        <pt x="1554" y="469" on="1"/>
        <pt x="1510" y="628" on="1"/>
        <pt x="1471" y="629" on="0"/>
        <pt x="1315" y="648" on="0"/>
        <pt x="1271" y="659" on="1"/>
        <pt x="1271" y="99" on="1"/>
        <pt x="1738" y="165" on="1"/>
        <pt x="1860" y="359" on="1"/>
        <pt x="1969" y="342" on="1"/>
        <pt x="1893" y="0" on="1"/>
        <pt x="937" y="0" on="1"/>
        <pt x="829" y="-35" on="0"/>
      </contour>
      <contour>
        <pt x="968" y="165" on="1"/>
        <pt x="968" y="1145" on="1"/>
        <pt x="912" y="1200" on="0"/>
        <pt x="762" y="1259" on="0"/>
        <pt x="681" y="1259" on="1"/>
        <pt x="555" y="1259" on="0"/>
        <pt x="497" y="1202" on="1"/>
        <pt x="444" y="1150" on="0"/>
        <pt x="392" y="886" on="0"/>
        <pt x="392" y="766" on="1"/>
        <pt x="392" y="604" on="0"/>
        <pt x="434" y="373" on="0"/>
        <pt x="497" y="286" on="1"/>
        <pt x="552" y="210" on="0"/>
        <pt x="716" y="125" on="0"/>
        <pt x="809" y="125" on="1"/>
        <pt x="852" y="125" on="0"/>
        <pt x="936" y="144" on="0"/>
      </contour>
    </TTGlyph>
    <TTGlyph name="Oacute" xMin="76" yMin="-35" xMax="1413" yMax="1801">
      <contour>
        <pt x="908" y="1801" on="1"/>
        <pt x="1038" y="1801" on="1"/>
        <pt x="1071" y="1636" on="1"/>
        <pt x="582" y="1489" on="1"/>
        <pt x="558" y="1597" on="1"/>
      </contour>
      <contour>
        <pt x="788" y="1419" on="1"/>
        <pt x="958" y="1419" on="0"/>
        <pt x="1244" y="1260" on="0"/>
        <pt x="1413" y="961" on="0"/>
        <pt x="1413" y="762" on="1"/>
        <pt x="1413" y="546" on="0"/>
        <pt x="1244" y="182" on="0"/>
        <pt x="928" y="-35" on="0"/>
        <pt x="717" y="-35" on="1"/>
        <pt x="536" y="-35" on="0"/>
        <pt x="244" y="124" on="0"/>
        <pt x="76" y="422" on="0"/>
        <pt x="76" y="623" on="1"/>
        <pt x="76" y="838" on="0"/>
        <pt x="240" y="1201" on="0"/>
        <pt x="562" y="1419" on="0"/>
      </contour>
      <contour>
        <pt x="809" y="125" on="1"/>
        <pt x="867" y="125" on="0"/>
        <pt x="974" y="159" on="0"/>
        <pt x="1006" y="197" on="1"/>
        <pt x="1049" y="250" on="0"/>
        <pt x="1097" y="506" on="0"/>
        <pt x="1097" y="617" on="1"/>
        <pt x="1097" y="746" on="0"/>
        <pt x="1079" y="912" on="0"/>
        <pt x="1053" y="984" on="1"/>
        <pt x="1022" y="1066" on="0"/>
        <pt x="908" y="1191" on="0"/>
        <pt x="760" y="1259" on="0"/>
        <pt x="681" y="1259" on="1"/>
        <pt x="554" y="1259" on="0"/>
        <pt x="497" y="1203" on="1"/>
        <pt x="444" y="1151" on="0"/>
        <pt x="392" y="887" on="0"/>
        <pt x="392" y="766" on="1"/>
        <pt x="392" y="604" on="0"/>
        <pt x="434" y="373" on="0"/>
        <pt x="497" y="286" on="1"/>
        <pt x="552" y="210" on="0"/>
        <pt x="716" y="125" on="0"/>
      </contour>
    </TTGlyph>
    <TTGlyph name="Ocircumflex" xMin="76" yMin="-35" xMax="1413" yMax="1797">
      <contour>
        <pt x="694" y="1797" on="1"/>
        <pt x="812" y="1797" on="1"/>
        <pt x="1093" y="1560" on="1"/>
        <pt x="1007" y="1486" on="1"/>
        <pt x="753" y="1612" on="1"/>
        <pt x="499" y="1486" on="1"/>
        <pt x="414" y="1560" on="1"/>
      </contour>
      <contour>
        <pt x="788" y="1419" on="1"/>
        <pt x="958" y="1419" on="0"/>
        <pt x="1244" y="1260" on="0"/>
        <pt x="1413" y="961" on="0"/>
        <pt x="1413" y="762" on="1"/>
        <pt x="1413" y="546" on="0"/>
        <pt x="1244" y="182" on="0"/>
        <pt x="928" y="-35" on="0"/>
        <pt x="717" y="-35" on="1"/>
        <pt x="536" y="-35" on="0"/>
        <pt x="244" y="124" on="0"/>
        <pt x="76" y="422" on="0"/>
        <pt x="76" y="623" on="1"/>
        <pt x="76" y="838" on="0"/>
        <pt x="240" y="1201" on="0"/>
        <pt x="562" y="1419" on="0"/>
      </contour>
      <contour>
        <pt x="809" y="125" on="1"/>
        <pt x="867" y="125" on="0"/>
        <pt x="974" y="159" on="0"/>
        <pt x="1006" y="197" on="1"/>
        <pt x="1049" y="250" on="0"/>
        <pt x="1097" y="506" on="0"/>
        <pt x="1097" y="617" on="1"/>
        <pt x="1097" y="746" on="0"/>
        <pt x="1079" y="912" on="0"/>
        <pt x="1053" y="984" on="1"/>
        <pt x="1022" y="1066" on="0"/>
        <pt x="908" y="1191" on="0"/>
        <pt x="760" y="1259" on="0"/>
        <pt x="681" y="1259" on="1"/>
        <pt x="554" y="1259" on="0"/>
        <pt x="497" y="1203" on="1"/>
        <pt x="444" y="1151" on="0"/>
        <pt x="392" y="887" on="0"/>
        <pt x="392" y="766" on="1"/>
        <pt x="392" y="604" on="0"/>
        <pt x="434" y="373" on="0"/>
        <pt x="497" y="286" on="1"/>
        <pt x="552" y="210" on="0"/>
        <pt x="716" y="125" on="0"/>
      </contour>
    </TTGlyph>
    <TTGlyph name="Odieresis" xMin="76" yMin="-35" xMax="1413" yMax="1783">
      <contour>
        <pt x="499" y="1783" on="1"/>
        <pt x="519" y="1783" on="0"/>
        <pt x="594" y="1741" on="0"/>
        <pt x="657" y="1686" on="0"/>
        <pt x="661" y="1667" on="1"/>
        <pt x="664" y="1647" on="0"/>
        <pt x="620" y="1565" on="0"/>
        <pt x="559" y="1499" on="0"/>
        <pt x="538" y="1499" on="1"/>
        <pt x="518" y="1499" on="0"/>
        <pt x="443" y="1541" on="0"/>
        <pt x="381" y="1597" on="0"/>
        <pt x="377" y="1616" on="1"/>
        <pt x="374" y="1635" on="0"/>
        <pt x="418" y="1717" on="0"/>
        <pt x="479" y="1783" on="0"/>
      </contour>
      <contour>
        <pt x="967" y="1783" on="1"/>
        <pt x="987" y="1783" on="0"/>
        <pt x="1062" y="1741" on="0"/>
        <pt x="1124" y="1686" on="0"/>
        <pt x="1128" y="1667" on="1"/>
        <pt x="1131" y="1647" on="0"/>
        <pt x="1088" y="1565" on="0"/>
        <pt x="1028" y="1499" on="0"/>
        <pt x="1007" y="1499" on="1"/>
        <pt x="986" y="1499" on="0"/>
        <pt x="911" y="1541" on="0"/>
        <pt x="849" y="1597" on="0"/>
        <pt x="845" y="1616" on="1"/>
        <pt x="842" y="1636" on="0"/>
        <pt x="885" y="1718" on="0"/>
        <pt x="946" y="1783" on="0"/>
      </contour>
      <contour>
        <pt x="788" y="1419" on="1"/>
        <pt x="958" y="1419" on="0"/>
        <pt x="1244" y="1260" on="0"/>
        <pt x="1413" y="961" on="0"/>
        <pt x="1413" y="762" on="1"/>
        <pt x="1413" y="546" on="0"/>
        <pt x="1244" y="182" on="0"/>
        <pt x="928" y="-35" on="0"/>
        <pt x="717" y="-35" on="1"/>
        <pt x="536" y="-35" on="0"/>
        <pt x="244" y="124" on="0"/>
        <pt x="76" y="422" on="0"/>
        <pt x="76" y="623" on="1"/>
        <pt x="76" y="838" on="0"/>
        <pt x="240" y="1201" on="0"/>
        <pt x="562" y="1419" on="0"/>
      </contour>
      <contour>
        <pt x="809" y="125" on="1"/>
        <pt x="867" y="125" on="0"/>
        <pt x="974" y="159" on="0"/>
        <pt x="1006" y="197" on="1"/>
        <pt x="1049" y="250" on="0"/>
        <pt x="1097" y="506" on="0"/>
        <pt x="1097" y="617" on="1"/>
        <pt x="1097" y="746" on="0"/>
        <pt x="1079" y="912" on="0"/>
        <pt x="1053" y="984" on="1"/>
        <pt x="1022" y="1066" on="0"/>
        <pt x="908" y="1191" on="0"/>
        <pt x="760" y="1259" on="0"/>
        <pt x="681" y="1259" on="1"/>
        <pt x="554" y="1259" on="0"/>
        <pt x="497" y="1203" on="1"/>
        <pt x="444" y="1151" on="0"/>
        <pt x="392" y="887" on="0"/>
        <pt x="392" y="766" on="1"/>
        <pt x="392" y="604" on="0"/>
        <pt x="434" y="373" on="0"/>
        <pt x="497" y="286" on="1"/>
        <pt x="552" y="210" on="0"/>
        <pt x="716" y="125" on="0"/>
      </contour>
    </TTGlyph>
    <TTGlyph name="Ograve" xMin="76" yMin="-35" xMax="1413" yMax="1801">
      <contour>
        <pt x="529" y="1801" on="1"/>
        <pt x="659" y="1801" on="1"/>
        <pt x="1007" y="1599" on="1"/>
        <pt x="985" y="1488" on="1"/>
        <pt x="496" y="1637" on="1"/>
      </contour>
      <contour>
        <pt x="788" y="1419" on="1"/>
        <pt x="958" y="1419" on="0"/>
        <pt x="1244" y="1260" on="0"/>
        <pt x="1413" y="961" on="0"/>
        <pt x="1413" y="762" on="1"/>
        <pt x="1413" y="546" on="0"/>
        <pt x="1244" y="182" on="0"/>
        <pt x="928" y="-35" on="0"/>
        <pt x="717" y="-35" on="1"/>
        <pt x="536" y="-35" on="0"/>
        <pt x="244" y="124" on="0"/>
        <pt x="76" y="422" on="0"/>
        <pt x="76" y="623" on="1"/>
        <pt x="76" y="838" on="0"/>
        <pt x="240" y="1201" on="0"/>
        <pt x="562" y="1419" on="0"/>
      </contour>
      <contour>
        <pt x="809" y="125" on="1"/>
        <pt x="867" y="125" on="0"/>
        <pt x="974" y="159" on="0"/>
        <pt x="1006" y="197" on="1"/>
        <pt x="1049" y="250" on="0"/>
        <pt x="1097" y="506" on="0"/>
        <pt x="1097" y="617" on="1"/>
        <pt x="1097" y="746" on="0"/>
        <pt x="1079" y="912" on="0"/>
        <pt x="1053" y="984" on="1"/>
        <pt x="1022" y="1066" on="0"/>
        <pt x="908" y="1191" on="0"/>
        <pt x="760" y="1259" on="0"/>
        <pt x="681" y="1259" on="1"/>
        <pt x="554" y="1259" on="0"/>
        <pt x="497" y="1203" on="1"/>
        <pt x="444" y="1151" on="0"/>
        <pt x="392" y="887" on="0"/>
        <pt x="392" y="766" on="1"/>
        <pt x="392" y="604" on="0"/>
        <pt x="434" y="373" on="0"/>
        <pt x="497" y="286" on="1"/>
        <pt x="552" y="210" on="0"/>
        <pt x="716" y="125" on="0"/>
      </contour>
    </TTGlyph>
    <TTGlyph name="Ohm" xMin="66" yMin="0" xMax="1641" yMax="1419">
      <contour>
        <pt x="331" y="165" on="1"/>
        <pt x="584" y="134" on="1"/>
        <pt x="486" y="226" on="0"/>
        <pt x="322" y="455" on="0"/>
        <pt x="220" y="714" on="0"/>
        <pt x="220" y="842" on="1"/>
        <pt x="220" y="1010" on="0"/>
        <pt x="376" y="1272" on="0"/>
        <pt x="664" y="1419" on="0"/>
        <pt x="856" y="1419" on="1"/>
        <pt x="1046" y="1419" on="0"/>
        <pt x="1333" y="1272" on="0"/>
        <pt x="1488" y="1010" on="0"/>
        <pt x="1488" y="842" on="1"/>
        <pt x="1488" y="714" on="0"/>
        <pt x="1390" y="454" on="0"/>
        <pt x="1230" y="225" on="0"/>
        <pt x="1134" y="134" on="1"/>
        <pt x="1379" y="165" on="1"/>
        <pt x="1520" y="377" on="1"/>
        <pt x="1641" y="356" on="1"/>
        <pt x="1552" y="0" on="1"/>
        <pt x="1004" y="0" on="1"/>
        <pt x="960" y="158" on="1"/>
        <pt x="1030" y="254" on="0"/>
        <pt x="1142" y="486" on="0"/>
        <pt x="1206" y="713" on="0"/>
        <pt x="1206" y="801" on="1"/>
        <pt x="1206" y="1035" on="0"/>
        <pt x="1010" y="1240" on="0"/>
        <pt x="855" y="1240" on="1"/>
        <pt x="700" y="1240" on="0"/>
        <pt x="504" y="1035" on="0"/>
        <pt x="504" y="801" on="1"/>
        <pt x="504" y="714" on="0"/>
        <pt x="566" y="489" on="0"/>
        <pt x="678" y="255" on="0"/>
        <pt x="750" y="156" on="1"/>
        <pt x="707" y="0" on="1"/>
        <pt x="167" y="0" on="1"/>
        <pt x="66" y="358" on="1"/>
        <pt x="189" y="375" on="1"/>
      </contour>
    </TTGlyph>
    <TTGlyph name="Ohungarumlaut" xMin="76" yMin="-35" xMax="1413" yMax="1812">
      <contour>
        <pt x="810" y="1812" on="1"/>
        <pt x="831" y="1710" on="1"/>
        <pt x="527" y="1466" on="1"/>
        <pt x="462" y="1603" on="1"/>
        <pt x="650" y="1812" on="1"/>
      </contour>
      <contour>
        <pt x="1159" y="1812" on="1"/>
        <pt x="1179" y="1710" on="1"/>
        <pt x="876" y="1466" on="1"/>
        <pt x="810" y="1603" on="1"/>
        <pt x="998" y="1812" on="1"/>
      </contour>
      <contour>
        <pt x="788" y="1419" on="1"/>
        <pt x="958" y="1419" on="0"/>
        <pt x="1244" y="1260" on="0"/>
        <pt x="1413" y="961" on="0"/>
        <pt x="1413" y="762" on="1"/>
        <pt x="1413" y="546" on="0"/>
        <pt x="1244" y="182" on="0"/>
        <pt x="928" y="-35" on="0"/>
        <pt x="717" y="-35" on="1"/>
        <pt x="536" y="-35" on="0"/>
        <pt x="244" y="124" on="0"/>
        <pt x="76" y="422" on="0"/>
        <pt x="76" y="623" on="1"/>
        <pt x="76" y="838" on="0"/>
        <pt x="240" y="1201" on="0"/>
        <pt x="562" y="1419" on="0"/>
      </contour>
      <contour>
        <pt x="809" y="125" on="1"/>
        <pt x="867" y="125" on="0"/>
        <pt x="974" y="159" on="0"/>
        <pt x="1006" y="197" on="1"/>
        <pt x="1049" y="250" on="0"/>
        <pt x="1097" y="506" on="0"/>
        <pt x="1097" y="617" on="1"/>
        <pt x="1097" y="746" on="0"/>
        <pt x="1079" y="912" on="0"/>
        <pt x="1053" y="984" on="1"/>
        <pt x="1022" y="1066" on="0"/>
        <pt x="908" y="1191" on="0"/>
        <pt x="760" y="1259" on="0"/>
        <pt x="681" y="1259" on="1"/>
        <pt x="554" y="1259" on="0"/>
        <pt x="497" y="1203" on="1"/>
        <pt x="444" y="1151" on="0"/>
        <pt x="392" y="887" on="0"/>
        <pt x="392" y="766" on="1"/>
        <pt x="392" y="604" on="0"/>
        <pt x="434" y="373" on="0"/>
        <pt x="497" y="286" on="1"/>
        <pt x="552" y="210" on="0"/>
        <pt x="716" y="125" on="0"/>
      </contour>
    </TTGlyph>
    <TTGlyph name="Omacron" xMin="76" yMin="-35" xMax="1413" yMax="1701">
      <contour>
        <pt x="1064" y="1701" on="1"/>
        <pt x="1035" y="1545" on="1"/>
        <pt x="920" y="1539" on="0"/>
        <pt x="569" y="1533" on="0"/>
        <pt x="440" y="1533" on="1"/>
        <pt x="473" y="1701" on="1"/>
      </contour>
      <contour>
        <pt x="788" y="1419" on="1"/>
        <pt x="958" y="1419" on="0"/>
        <pt x="1244" y="1260" on="0"/>
        <pt x="1413" y="961" on="0"/>
        <pt x="1413" y="762" on="1"/>
        <pt x="1413" y="546" on="0"/>
        <pt x="1244" y="182" on="0"/>
        <pt x="928" y="-35" on="0"/>
        <pt x="717" y="-35" on="1"/>
        <pt x="536" y="-35" on="0"/>
        <pt x="244" y="124" on="0"/>
        <pt x="76" y="422" on="0"/>
        <pt x="76" y="623" on="1"/>
        <pt x="76" y="838" on="0"/>
        <pt x="240" y="1201" on="0"/>
        <pt x="562" y="1419" on="0"/>
      </contour>
      <contour>
        <pt x="809" y="125" on="1"/>
        <pt x="867" y="125" on="0"/>
        <pt x="974" y="159" on="0"/>
        <pt x="1006" y="197" on="1"/>
        <pt x="1049" y="250" on="0"/>
        <pt x="1097" y="506" on="0"/>
        <pt x="1097" y="617" on="1"/>
        <pt x="1097" y="746" on="0"/>
        <pt x="1079" y="912" on="0"/>
        <pt x="1053" y="984" on="1"/>
        <pt x="1022" y="1066" on="0"/>
        <pt x="908" y="1191" on="0"/>
        <pt x="760" y="1259" on="0"/>
        <pt x="681" y="1259" on="1"/>
        <pt x="554" y="1259" on="0"/>
        <pt x="497" y="1203" on="1"/>
        <pt x="444" y="1151" on="0"/>
        <pt x="392" y="887" on="0"/>
        <pt x="392" y="766" on="1"/>
        <pt x="392" y="604" on="0"/>
        <pt x="434" y="373" on="0"/>
        <pt x="497" y="286" on="1"/>
        <pt x="552" y="210" on="0"/>
        <pt x="716" y="125" on="0"/>
      </contour>
    </TTGlyph>
    <TTGlyph name="Oslash" xMin="76" yMin="-176" xMax="1413" yMax="1518">
      <contour>
        <pt x="1413" y="762" on="1"/>
        <pt x="1413" y="546" on="0"/>
        <pt x="1244" y="182" on="0"/>
        <pt x="928" y="-35" on="0"/>
        <pt x="717" y="-35" on="1"/>
        <pt x="642" y="-35" on="0"/>
        <pt x="578" y="-22" on="1"/>
        <pt x="513" y="-176" on="1"/>
        <pt x="317" y="-128" on="1"/>
        <pt x="390" y="45" on="1"/>
        <pt x="244" y="124" on="0"/>
        <pt x="76" y="422" on="0"/>
        <pt x="76" y="623" on="1"/>
        <pt x="76" y="838" on="0"/>
        <pt x="240" y="1201" on="0"/>
        <pt x="562" y="1419" on="0"/>
        <pt x="788" y="1419" on="1"/>
        <pt x="879" y="1419" on="0"/>
        <pt x="958" y="1397" on="1"/>
        <pt x="1009" y="1518" on="1"/>
        <pt x="1204" y="1468" on="1"/>
        <pt x="1140" y="1316" on="1"/>
        <pt x="1267" y="1231" on="0"/>
        <pt x="1413" y="947" on="0"/>
      </contour>
      <contour>
        <pt x="484" y="270" on="1"/>
        <pt x="883" y="1218" on="1"/>
        <pt x="791" y="1265" on="0"/>
        <pt x="687" y="1265" on="1"/>
        <pt x="633" y="1265" on="0"/>
        <pt x="529" y="1236" on="0"/>
        <pt x="497" y="1203" on="1"/>
        <pt x="444" y="1151" on="0"/>
        <pt x="392" y="887" on="0"/>
        <pt x="392" y="766" on="1"/>
        <pt x="392" y="652" on="0"/>
        <pt x="403" y="487" on="0"/>
        <pt x="442" y="333" on="0"/>
        <pt x="481" y="274" on="1"/>
      </contour>
      <contour>
        <pt x="1097" y="617" on="1"/>
        <pt x="1097" y="769" on="0"/>
        <pt x="1083" y="951" on="0"/>
        <pt x="1058" y="1022" on="1"/>
        <pt x="1049" y="1048" on="0"/>
        <pt x="1037" y="1070" on="1"/>
        <pt x="649" y="148" on="1"/>
        <pt x="725" y="120" on="0"/>
        <pt x="805" y="120" on="1"/>
        <pt x="864" y="120" on="0"/>
        <pt x="974" y="156" on="0"/>
        <pt x="1006" y="197" on="1"/>
        <pt x="1048" y="252" on="0"/>
        <pt x="1097" y="509" on="0"/>
      </contour>
    </TTGlyph>
    <TTGlyph name="Otilde" xMin="76" yMin="-35" xMax="1413" yMax="1831">
      <contour>
        <pt x="629" y="1831" on="1"/>
        <pt x="680" y="1831" on="0"/>
        <pt x="760" y="1786" on="0"/>
        <pt x="810" y="1744" on="1"/>
        <pt x="839" y="1720" on="0"/>
        <pt x="875" y="1696" on="0"/>
        <pt x="891" y="1696" on="1"/>
        <pt x="923" y="1696" on="0"/>
        <pt x="1041" y="1760" on="0"/>
        <pt x="1100" y="1809" on="1"/>
        <pt x="1121" y="1675" on="1"/>
        <pt x="1074" y="1623" on="0"/>
        <pt x="1005" y="1559" on="0"/>
        <pt x="922" y="1515" on="0"/>
        <pt x="875" y="1515" on="1"/>
        <pt x="825" y="1515" on="0"/>
        <pt x="744" y="1561" on="0"/>
        <pt x="696" y="1602" on="1"/>
        <pt x="666" y="1627" on="0"/>
        <pt x="631" y="1650" on="0"/>
        <pt x="616" y="1650" on="1"/>
        <pt x="582" y="1650" on="0"/>
        <pt x="461" y="1585" on="0"/>
        <pt x="409" y="1537" on="1"/>
        <pt x="384" y="1670" on="1"/>
        <pt x="431" y="1723" on="0"/>
        <pt x="501" y="1788" on="0"/>
        <pt x="583" y="1831" on="0"/>
      </contour>
      <contour>
        <pt x="788" y="1419" on="1"/>
        <pt x="958" y="1419" on="0"/>
        <pt x="1244" y="1260" on="0"/>
        <pt x="1413" y="961" on="0"/>
        <pt x="1413" y="762" on="1"/>
        <pt x="1413" y="546" on="0"/>
        <pt x="1244" y="182" on="0"/>
        <pt x="928" y="-35" on="0"/>
        <pt x="717" y="-35" on="1"/>
        <pt x="536" y="-35" on="0"/>
        <pt x="244" y="124" on="0"/>
        <pt x="76" y="422" on="0"/>
        <pt x="76" y="623" on="1"/>
        <pt x="76" y="838" on="0"/>
        <pt x="240" y="1201" on="0"/>
        <pt x="562" y="1419" on="0"/>
      </contour>
      <contour>
        <pt x="809" y="125" on="1"/>
        <pt x="867" y="125" on="0"/>
        <pt x="974" y="159" on="0"/>
        <pt x="1006" y="197" on="1"/>
        <pt x="1049" y="250" on="0"/>
        <pt x="1097" y="506" on="0"/>
        <pt x="1097" y="617" on="1"/>
        <pt x="1097" y="746" on="0"/>
        <pt x="1079" y="912" on="0"/>
        <pt x="1053" y="984" on="1"/>
        <pt x="1022" y="1066" on="0"/>
        <pt x="908" y="1191" on="0"/>
        <pt x="760" y="1259" on="0"/>
        <pt x="681" y="1259" on="1"/>
        <pt x="554" y="1259" on="0"/>
        <pt x="497" y="1203" on="1"/>
        <pt x="444" y="1151" on="0"/>
        <pt x="392" y="887" on="0"/>
        <pt x="392" y="766" on="1"/>
        <pt x="392" y="604" on="0"/>
        <pt x="434" y="373" on="0"/>
        <pt x="497" y="286" on="1"/>
        <pt x="552" y="210" on="0"/>
        <pt x="716" y="125" on="0"/>
      </contour>
    </TTGlyph>
    <TTGlyph name="P" xMin="56" yMin="0" xMax="1245" yMax="1384">
      <contour>
        <pt x="252" y="1230" on="1"/>
        <pt x="65" y="1303" on="1"/>
        <pt x="82" y="1384" on="1"/>
        <pt x="583" y="1384" on="1"/>
        <pt x="708" y="1384" on="0"/>
        <pt x="869" y="1375" on="0"/>
        <pt x="1026" y="1337" on="0"/>
        <pt x="1088" y="1296" on="1"/>
        <pt x="1161" y="1248" on="0"/>
        <pt x="1245" y="1081" on="0"/>
        <pt x="1245" y="975" on="1"/>
        <pt x="1245" y="880" on="0"/>
        <pt x="1164" y="725" on="0"/>
        <pt x="1090" y="674" on="1"/>
        <pt x="1012" y="621" on="0"/>
        <pt x="787" y="573" on="0"/>
        <pt x="678" y="573" on="1"/>
        <pt x="690" y="640" on="1"/>
        <pt x="788" y="688" on="0"/>
        <pt x="893" y="774" on="0"/>
        <pt x="942" y="890" on="0"/>
        <pt x="942" y="982" on="1"/>
        <pt x="942" y="1146" on="0"/>
        <pt x="726" y="1301" on="0"/>
        <pt x="555" y="1303" on="1"/>
        <pt x="555" y="154" on="1"/>
        <pt x="800" y="82" on="1"/>
        <pt x="784" y="0" on="1"/>
        <pt x="56" y="0" on="1"/>
        <pt x="73" y="85" on="1"/>
        <pt x="252" y="155" on="1"/>
      </contour>
    </TTGlyph>
    <TTGlyph name="Q" xMin="76" yMin="-324" xMax="1413" yMax="1419">
      <contour>
        <pt x="1096" y="80" on="1"/>
        <pt x="1409" y="-258" on="1"/>
        <pt x="1373" y="-324" on="1"/>
        <pt x="1294" y="-324" on="0"/>
        <pt x="1093" y="-248" on="0"/>
        <pt x="892" y="-114" on="0"/>
        <pt x="814" y="-29" on="1"/>
        <pt x="768" y="-35" on="0"/>
        <pt x="717" y="-35" on="1"/>
        <pt x="536" y="-35" on="0"/>
        <pt x="244" y="124" on="0"/>
        <pt x="76" y="422" on="0"/>
        <pt x="76" y="623" on="1"/>
        <pt x="76" y="838" on="0"/>
        <pt x="240" y="1201" on="0"/>
        <pt x="562" y="1419" on="0"/>
        <pt x="788" y="1419" on="1"/>
        <pt x="958" y="1419" on="0"/>
        <pt x="1244" y="1260" on="0"/>
        <pt x="1413" y="961" on="0"/>
        <pt x="1413" y="762" on="1"/>
        <pt x="1413" y="548" on="0"/>
        <pt x="1247" y="185" on="0"/>
      </contour>
      <contour>
        <pt x="809" y="125" on="1"/>
        <pt x="867" y="125" on="0"/>
        <pt x="974" y="159" on="0"/>
        <pt x="1006" y="197" on="1"/>
        <pt x="1049" y="250" on="0"/>
        <pt x="1097" y="506" on="0"/>
        <pt x="1097" y="617" on="1"/>
        <pt x="1097" y="746" on="0"/>
        <pt x="1079" y="912" on="0"/>
        <pt x="1053" y="984" on="1"/>
        <pt x="1022" y="1066" on="0"/>
        <pt x="908" y="1191" on="0"/>
        <pt x="760" y="1259" on="0"/>
        <pt x="681" y="1259" on="1"/>
        <pt x="554" y="1259" on="0"/>
        <pt x="497" y="1203" on="1"/>
        <pt x="444" y="1151" on="0"/>
        <pt x="392" y="887" on="0"/>
        <pt x="392" y="766" on="1"/>
        <pt x="392" y="604" on="0"/>
        <pt x="434" y="373" on="0"/>
        <pt x="497" y="286" on="1"/>
        <pt x="552" y="210" on="0"/>
        <pt x="716" y="125" on="0"/>
      </contour>
    </TTGlyph>
    <TTGlyph name="R" xMin="57" yMin="0" xMax="1441" yMax="1384">
      <contour>
        <pt x="252" y="1230" on="1"/>
        <pt x="65" y="1303" on="1"/>
        <pt x="82" y="1384" on="1"/>
        <pt x="641" y="1384" on="1"/>
        <pt x="789" y="1384" on="0"/>
        <pt x="1027" y="1344" on="0"/>
        <pt x="1117" y="1284" on="1"/>
        <pt x="1184" y="1239" on="0"/>
        <pt x="1259" y="1102" on="0"/>
        <pt x="1259" y="1012" on="1"/>
        <pt x="1259" y="888" on="0"/>
        <pt x="1112" y="719" on="0"/>
        <pt x="975" y="676" on="1"/>
        <pt x="1256" y="162" on="1"/>
        <pt x="1441" y="80" on="1"/>
        <pt x="1422" y="0" on="1"/>
        <pt x="958" y="0" on="1"/>
        <pt x="977" y="83" on="1"/>
        <pt x="677" y="686" on="1"/>
        <pt x="828" y="746" on="0"/>
        <pt x="951" y="916" on="0"/>
        <pt x="951" y="1022" on="1"/>
        <pt x="951" y="1114" on="0"/>
        <pt x="833" y="1237" on="0"/>
        <pt x="653" y="1299" on="0"/>
        <pt x="555" y="1304" on="1"/>
        <pt x="555" y="167" on="1"/>
        <pt x="752" y="95" on="1"/>
        <pt x="728" y="0" on="1"/>
        <pt x="57" y="0" on="1"/>
        <pt x="73" y="83" on="1"/>
        <pt x="252" y="155" on="1"/>
      </contour>
    </TTGlyph>
    <TTGlyph name="Racute" xMin="57" yMin="0" xMax="1441" yMax="1801">
      <contour>
        <pt x="802" y="1801" on="1"/>
        <pt x="932" y="1801" on="1"/>
        <pt x="965" y="1636" on="1"/>
        <pt x="476" y="1489" on="1"/>
        <pt x="452" y="1597" on="1"/>
      </contour>
      <contour>
        <pt x="252" y="1230" on="1"/>
        <pt x="65" y="1303" on="1"/>
        <pt x="82" y="1384" on="1"/>
        <pt x="641" y="1384" on="1"/>
        <pt x="789" y="1384" on="0"/>
        <pt x="1027" y="1344" on="0"/>
        <pt x="1117" y="1284" on="1"/>
        <pt x="1184" y="1239" on="0"/>
        <pt x="1259" y="1102" on="0"/>
        <pt x="1259" y="1012" on="1"/>
        <pt x="1259" y="888" on="0"/>
        <pt x="1112" y="719" on="0"/>
        <pt x="975" y="676" on="1"/>
        <pt x="1256" y="162" on="1"/>
        <pt x="1441" y="80" on="1"/>
        <pt x="1422" y="0" on="1"/>
        <pt x="958" y="0" on="1"/>
        <pt x="977" y="83" on="1"/>
        <pt x="677" y="686" on="1"/>
        <pt x="828" y="746" on="0"/>
        <pt x="951" y="916" on="0"/>
        <pt x="951" y="1022" on="1"/>
        <pt x="951" y="1114" on="0"/>
        <pt x="833" y="1237" on="0"/>
        <pt x="653" y="1299" on="0"/>
        <pt x="555" y="1304" on="1"/>
        <pt x="555" y="167" on="1"/>
        <pt x="752" y="95" on="1"/>
        <pt x="728" y="0" on="1"/>
        <pt x="57" y="0" on="1"/>
        <pt x="73" y="83" on="1"/>
        <pt x="252" y="155" on="1"/>
      </contour>
    </TTGlyph>
    <TTGlyph name="Rcaron" xMin="57" yMin="0" xMax="1441" yMax="1815">
      <contour>
        <pt x="392" y="1815" on="1"/>
        <pt x="647" y="1688" on="1"/>
        <pt x="902" y="1815" on="1"/>
        <pt x="984" y="1741" on="1"/>
        <pt x="711" y="1515" on="1"/>
        <pt x="584" y="1515" on="1"/>
        <pt x="310" y="1741" on="1"/>
      </contour>
      <contour>
        <pt x="252" y="1230" on="1"/>
        <pt x="65" y="1303" on="1"/>
        <pt x="82" y="1384" on="1"/>
        <pt x="641" y="1384" on="1"/>
        <pt x="789" y="1384" on="0"/>
        <pt x="1027" y="1344" on="0"/>
        <pt x="1117" y="1284" on="1"/>
        <pt x="1184" y="1239" on="0"/>
        <pt x="1259" y="1102" on="0"/>
        <pt x="1259" y="1012" on="1"/>
        <pt x="1259" y="888" on="0"/>
        <pt x="1112" y="719" on="0"/>
        <pt x="975" y="676" on="1"/>
        <pt x="1256" y="162" on="1"/>
        <pt x="1441" y="80" on="1"/>
        <pt x="1422" y="0" on="1"/>
        <pt x="958" y="0" on="1"/>
        <pt x="977" y="83" on="1"/>
        <pt x="677" y="686" on="1"/>
        <pt x="828" y="746" on="0"/>
        <pt x="951" y="916" on="0"/>
        <pt x="951" y="1022" on="1"/>
        <pt x="951" y="1114" on="0"/>
        <pt x="833" y="1237" on="0"/>
        <pt x="653" y="1299" on="0"/>
        <pt x="555" y="1304" on="1"/>
        <pt x="555" y="167" on="1"/>
        <pt x="752" y="95" on="1"/>
        <pt x="728" y="0" on="1"/>
        <pt x="57" y="0" on="1"/>
        <pt x="73" y="83" on="1"/>
        <pt x="252" y="155" on="1"/>
      </contour>
    </TTGlyph>
    <TTGlyph name="Rcommaaccent" xMin="57" yMin="-528" xMax="1441" yMax="1384">
      <contour>
        <pt x="252" y="1230" on="1"/>
        <pt x="65" y="1303" on="1"/>
        <pt x="82" y="1384" on="1"/>
        <pt x="641" y="1384" on="1"/>
        <pt x="789" y="1384" on="0"/>
        <pt x="1027" y="1344" on="0"/>
        <pt x="1117" y="1284" on="1"/>
        <pt x="1184" y="1239" on="0"/>
        <pt x="1259" y="1102" on="0"/>
        <pt x="1259" y="1012" on="1"/>
        <pt x="1259" y="888" on="0"/>
        <pt x="1112" y="719" on="0"/>
        <pt x="975" y="676" on="1"/>
        <pt x="1256" y="162" on="1"/>
        <pt x="1441" y="80" on="1"/>
        <pt x="1422" y="0" on="1"/>
        <pt x="958" y="0" on="1"/>
        <pt x="977" y="83" on="1"/>
        <pt x="677" y="686" on="1"/>
        <pt x="828" y="746" on="0"/>
        <pt x="951" y="916" on="0"/>
        <pt x="951" y="1022" on="1"/>
        <pt x="951" y="1114" on="0"/>
        <pt x="833" y="1237" on="0"/>
        <pt x="653" y="1299" on="0"/>
        <pt x="555" y="1304" on="1"/>
        <pt x="555" y="167" on="1"/>
        <pt x="752" y="95" on="1"/>
        <pt x="728" y="0" on="1"/>
        <pt x="57" y="0" on="1"/>
        <pt x="73" y="83" on="1"/>
        <pt x="252" y="155" on="1"/>
      </contour>
      <contour>
        <pt x="810" y="-167" on="1"/>
        <pt x="871" y="-219" on="0"/>
        <pt x="871" y="-297" on="1"/>
        <pt x="871" y="-369" on="0"/>
        <pt x="776" y="-473" on="0"/>
        <pt x="646" y="-528" on="0"/>
        <pt x="597" y="-528" on="1"/>
        <pt x="572" y="-459" on="1"/>
        <pt x="652" y="-406" on="0"/>
        <pt x="706" y="-353" on="0"/>
        <pt x="706" y="-328" on="1"/>
        <pt x="706" y="-281" on="0"/>
        <pt x="583" y="-253" on="1"/>
        <pt x="619" y="-102" on="1"/>
        <pt x="673" y="-102" on="0"/>
        <pt x="773" y="-135" on="0"/>
      </contour>
    </TTGlyph>
    <TTGlyph name="S" xMin="58" yMin="-35" xMax="1061" yMax="1419">
      <contour>
        <pt x="707" y="1289" on="1"/>
        <pt x="603" y="1283" on="0"/>
        <pt x="449" y="1216" on="0"/>
        <pt x="417" y="1171" on="1"/>
        <pt x="408" y="1157" on="0"/>
        <pt x="397" y="1117" on="0"/>
        <pt x="397" y="1096" on="1"/>
        <pt x="397" y="1048" on="0"/>
        <pt x="462" y="967" on="0"/>
        <pt x="595" y="884" on="0"/>
        <pt x="711" y="827" on="1"/>
        <pt x="824" y="773" on="0"/>
        <pt x="970" y="670" on="0"/>
        <pt x="1061" y="520" on="0"/>
        <pt x="1061" y="413" on="1"/>
        <pt x="1061" y="279" on="0"/>
        <pt x="919" y="76" on="0"/>
        <pt x="657" y="-35" on="0"/>
        <pt x="483" y="-35" on="1"/>
        <pt x="356" y="-35" on="0"/>
        <pt x="127" y="35" on="0"/>
        <pt x="58" y="84" on="1"/>
        <pt x="136" y="421" on="1"/>
        <pt x="266" y="393" on="1"/>
        <pt x="292" y="117" on="1"/>
        <pt x="354" y="115" on="0"/>
        <pt x="408" y="122" on="1"/>
        <pt x="499" y="129" on="0"/>
        <pt x="661" y="181" on="0"/>
        <pt x="704" y="227" on="1"/>
        <pt x="748" y="271" on="0"/>
        <pt x="748" y="342" on="1"/>
        <pt x="748" y="392" on="0"/>
        <pt x="693" y="466" on="0"/>
        <pt x="591" y="532" on="0"/>
        <pt x="480" y="592" on="1"/>
        <pt x="476" y="594" on="0"/>
        <pt x="454" y="606" on="1"/>
        <pt x="339" y="666" on="0"/>
        <pt x="198" y="772" on="0"/>
        <pt x="115" y="924" on="0"/>
        <pt x="115" y="1033" on="1"/>
        <pt x="115" y="1151" on="0"/>
        <pt x="251" y="1326" on="0"/>
        <pt x="493" y="1419" on="0"/>
        <pt x="647" y="1419" on="1"/>
        <pt x="707" y="1419" on="0"/>
        <pt x="837" y="1399" on="0"/>
        <pt x="879" y="1390" on="1"/>
        <pt x="989" y="1394" on="1"/>
        <pt x="1023" y="1022" on="1"/>
        <pt x="898" y="998" on="1"/>
        <pt x="766" y="1291" on="1"/>
        <pt x="725" y="1291" on="0"/>
      </contour>
    </TTGlyph>
    <TTGlyph name="Sacute" xMin="58" yMin="-35" xMax="1061" yMax="1801">
      <contour>
        <pt x="724" y="1801" on="1"/>
        <pt x="854" y="1801" on="1"/>
        <pt x="887" y="1636" on="1"/>
        <pt x="398" y="1489" on="1"/>
        <pt x="374" y="1597" on="1"/>
      </contour>
      <contour>
        <pt x="707" y="1289" on="1"/>
        <pt x="603" y="1283" on="0"/>
        <pt x="449" y="1216" on="0"/>
        <pt x="417" y="1171" on="1"/>
        <pt x="408" y="1157" on="0"/>
        <pt x="397" y="1117" on="0"/>
        <pt x="397" y="1096" on="1"/>
        <pt x="397" y="1048" on="0"/>
        <pt x="462" y="967" on="0"/>
        <pt x="595" y="884" on="0"/>
        <pt x="711" y="827" on="1"/>
        <pt x="824" y="773" on="0"/>
        <pt x="970" y="670" on="0"/>
        <pt x="1061" y="520" on="0"/>
        <pt x="1061" y="413" on="1"/>
        <pt x="1061" y="279" on="0"/>
        <pt x="919" y="76" on="0"/>
        <pt x="657" y="-35" on="0"/>
        <pt x="483" y="-35" on="1"/>
        <pt x="356" y="-35" on="0"/>
        <pt x="127" y="35" on="0"/>
        <pt x="58" y="84" on="1"/>
        <pt x="136" y="421" on="1"/>
        <pt x="266" y="393" on="1"/>
        <pt x="292" y="117" on="1"/>
        <pt x="354" y="115" on="0"/>
        <pt x="408" y="122" on="1"/>
        <pt x="499" y="129" on="0"/>
        <pt x="661" y="181" on="0"/>
        <pt x="704" y="227" on="1"/>
        <pt x="748" y="271" on="0"/>
        <pt x="748" y="342" on="1"/>
        <pt x="748" y="392" on="0"/>
        <pt x="693" y="466" on="0"/>
        <pt x="591" y="532" on="0"/>
        <pt x="480" y="592" on="1"/>
        <pt x="476" y="594" on="0"/>
        <pt x="454" y="606" on="1"/>
        <pt x="339" y="666" on="0"/>
        <pt x="198" y="772" on="0"/>
        <pt x="115" y="924" on="0"/>
        <pt x="115" y="1033" on="1"/>
        <pt x="115" y="1151" on="0"/>
        <pt x="251" y="1326" on="0"/>
        <pt x="493" y="1419" on="0"/>
        <pt x="647" y="1419" on="1"/>
        <pt x="707" y="1419" on="0"/>
        <pt x="837" y="1399" on="0"/>
        <pt x="879" y="1390" on="1"/>
        <pt x="989" y="1394" on="1"/>
        <pt x="1023" y="1022" on="1"/>
        <pt x="898" y="998" on="1"/>
        <pt x="766" y="1291" on="1"/>
        <pt x="725" y="1291" on="0"/>
      </contour>
    </TTGlyph>
    <TTGlyph name="Scaron" xMin="58" yMin="-35" xMax="1061" yMax="1815">
      <contour>
        <pt x="314" y="1815" on="1"/>
        <pt x="569" y="1688" on="1"/>
        <pt x="824" y="1815" on="1"/>
        <pt x="906" y="1741" on="1"/>
        <pt x="633" y="1515" on="1"/>
        <pt x="506" y="1515" on="1"/>
        <pt x="232" y="1741" on="1"/>
      </contour>
      <contour>
        <pt x="707" y="1289" on="1"/>
        <pt x="603" y="1283" on="0"/>
        <pt x="449" y="1216" on="0"/>
        <pt x="417" y="1171" on="1"/>
        <pt x="408" y="1157" on="0"/>
        <pt x="397" y="1117" on="0"/>
        <pt x="397" y="1096" on="1"/>
        <pt x="397" y="1048" on="0"/>
        <pt x="462" y="967" on="0"/>
        <pt x="595" y="884" on="0"/>
        <pt x="711" y="827" on="1"/>
        <pt x="824" y="773" on="0"/>
        <pt x="970" y="670" on="0"/>
        <pt x="1061" y="520" on="0"/>
        <pt x="1061" y="413" on="1"/>
        <pt x="1061" y="279" on="0"/>
        <pt x="919" y="76" on="0"/>
        <pt x="657" y="-35" on="0"/>
        <pt x="483" y="-35" on="1"/>
        <pt x="356" y="-35" on="0"/>
        <pt x="127" y="35" on="0"/>
        <pt x="58" y="84" on="1"/>
        <pt x="136" y="421" on="1"/>
        <pt x="266" y="393" on="1"/>
        <pt x="292" y="117" on="1"/>
        <pt x="354" y="115" on="0"/>
        <pt x="408" y="122" on="1"/>
        <pt x="499" y="129" on="0"/>
        <pt x="661" y="181" on="0"/>
        <pt x="704" y="227" on="1"/>
        <pt x="748" y="271" on="0"/>
        <pt x="748" y="342" on="1"/>
        <pt x="748" y="392" on="0"/>
        <pt x="693" y="466" on="0"/>
        <pt x="591" y="532" on="0"/>
        <pt x="480" y="592" on="1"/>
        <pt x="476" y="594" on="0"/>
        <pt x="454" y="606" on="1"/>
        <pt x="339" y="666" on="0"/>
        <pt x="198" y="772" on="0"/>
        <pt x="115" y="924" on="0"/>
        <pt x="115" y="1033" on="1"/>
        <pt x="115" y="1151" on="0"/>
        <pt x="251" y="1326" on="0"/>
        <pt x="493" y="1419" on="0"/>
        <pt x="647" y="1419" on="1"/>
        <pt x="707" y="1419" on="0"/>
        <pt x="837" y="1399" on="0"/>
        <pt x="879" y="1390" on="1"/>
        <pt x="989" y="1394" on="1"/>
        <pt x="1023" y="1022" on="1"/>
        <pt x="898" y="998" on="1"/>
        <pt x="766" y="1291" on="1"/>
        <pt x="725" y="1291" on="0"/>
      </contour>
    </TTGlyph>
    <TTGlyph name="Scedilla" xMin="58" yMin="-500" xMax="1061" yMax="1419">
      <contour>
        <pt x="602" y="-28" on="1"/>
        <pt x="575" y="-102" on="1"/>
        <pt x="627" y="-105" on="0"/>
        <pt x="722" y="-145" on="0"/>
        <pt x="781" y="-216" on="0"/>
        <pt x="781" y="-263" on="1"/>
        <pt x="781" y="-343" on="0"/>
        <pt x="659" y="-450" on="0"/>
        <pt x="471" y="-500" on="0"/>
        <pt x="372" y="-500" on="1"/>
        <pt x="357" y="-430" on="1"/>
        <pt x="501" y="-378" on="0"/>
        <pt x="598" y="-309" on="0"/>
        <pt x="598" y="-284" on="1"/>
        <pt x="598" y="-225" on="0"/>
        <pt x="374" y="-192" on="1"/>
        <pt x="398" y="-109" on="0"/>
        <pt x="467" y="-35" on="1"/>
        <pt x="345" y="-33" on="0"/>
        <pt x="126" y="36" on="0"/>
        <pt x="58" y="84" on="1"/>
        <pt x="136" y="421" on="1"/>
        <pt x="266" y="393" on="1"/>
        <pt x="292" y="117" on="1"/>
        <pt x="354" y="115" on="0"/>
        <pt x="408" y="122" on="1"/>
        <pt x="499" y="129" on="0"/>
        <pt x="661" y="181" on="0"/>
        <pt x="704" y="227" on="1"/>
        <pt x="748" y="271" on="0"/>
        <pt x="748" y="342" on="1"/>
        <pt x="748" y="392" on="0"/>
        <pt x="693" y="466" on="0"/>
        <pt x="591" y="532" on="0"/>
        <pt x="480" y="592" on="1"/>
        <pt x="476" y="594" on="0"/>
        <pt x="454" y="606" on="1"/>
        <pt x="339" y="666" on="0"/>
        <pt x="198" y="772" on="0"/>
        <pt x="115" y="924" on="0"/>
        <pt x="115" y="1033" on="1"/>
        <pt x="115" y="1151" on="0"/>
        <pt x="251" y="1326" on="0"/>
        <pt x="493" y="1419" on="0"/>
        <pt x="647" y="1419" on="1"/>
        <pt x="707" y="1419" on="0"/>
        <pt x="837" y="1399" on="0"/>
        <pt x="879" y="1390" on="1"/>
        <pt x="989" y="1394" on="1"/>
        <pt x="1023" y="1022" on="1"/>
        <pt x="898" y="998" on="1"/>
        <pt x="766" y="1291" on="1"/>
        <pt x="725" y="1291" on="0"/>
        <pt x="707" y="1289" on="1"/>
        <pt x="603" y="1283" on="0"/>
        <pt x="449" y="1216" on="0"/>
        <pt x="417" y="1171" on="1"/>
        <pt x="408" y="1157" on="0"/>
        <pt x="397" y="1117" on="0"/>
        <pt x="397" y="1096" on="1"/>
        <pt x="397" y="1048" on="0"/>
        <pt x="462" y="967" on="0"/>
        <pt x="595" y="884" on="0"/>
        <pt x="711" y="827" on="1"/>
        <pt x="824" y="773" on="0"/>
        <pt x="970" y="670" on="0"/>
        <pt x="1061" y="520" on="0"/>
        <pt x="1061" y="413" on="1"/>
        <pt x="1061" y="295" on="0"/>
        <pt x="950" y="108" on="0"/>
        <pt x="743" y="-10" on="0"/>
      </contour>
    </TTGlyph>
    <TTGlyph name="Scommaaccent" xMin="58" yMin="-528" xMax="1061" yMax="1419">
      <contour>
        <pt x="707" y="1289" on="1"/>
        <pt x="603" y="1283" on="0"/>
        <pt x="449" y="1216" on="0"/>
        <pt x="417" y="1171" on="1"/>
        <pt x="408" y="1157" on="0"/>
        <pt x="397" y="1117" on="0"/>
        <pt x="397" y="1096" on="1"/>
        <pt x="397" y="1048" on="0"/>
        <pt x="462" y="967" on="0"/>
        <pt x="595" y="884" on="0"/>
        <pt x="711" y="827" on="1"/>
        <pt x="824" y="773" on="0"/>
        <pt x="970" y="670" on="0"/>
        <pt x="1061" y="520" on="0"/>
        <pt x="1061" y="413" on="1"/>
        <pt x="1061" y="279" on="0"/>
        <pt x="919" y="76" on="0"/>
        <pt x="657" y="-35" on="0"/>
        <pt x="483" y="-35" on="1"/>
        <pt x="356" y="-35" on="0"/>
        <pt x="127" y="35" on="0"/>
        <pt x="58" y="84" on="1"/>
        <pt x="136" y="421" on="1"/>
        <pt x="266" y="393" on="1"/>
        <pt x="292" y="117" on="1"/>
        <pt x="354" y="115" on="0"/>
        <pt x="408" y="122" on="1"/>
        <pt x="499" y="129" on="0"/>
        <pt x="661" y="181" on="0"/>
        <pt x="704" y="227" on="1"/>
        <pt x="748" y="271" on="0"/>
        <pt x="748" y="342" on="1"/>
        <pt x="748" y="392" on="0"/>
        <pt x="693" y="466" on="0"/>
        <pt x="591" y="532" on="0"/>
        <pt x="480" y="592" on="1"/>
        <pt x="476" y="594" on="0"/>
        <pt x="454" y="606" on="1"/>
        <pt x="339" y="666" on="0"/>
        <pt x="198" y="772" on="0"/>
        <pt x="115" y="924" on="0"/>
        <pt x="115" y="1033" on="1"/>
        <pt x="115" y="1151" on="0"/>
        <pt x="251" y="1326" on="0"/>
        <pt x="493" y="1419" on="0"/>
        <pt x="647" y="1419" on="1"/>
        <pt x="707" y="1419" on="0"/>
        <pt x="837" y="1399" on="0"/>
        <pt x="879" y="1390" on="1"/>
        <pt x="989" y="1394" on="1"/>
        <pt x="1023" y="1022" on="1"/>
        <pt x="898" y="998" on="1"/>
        <pt x="766" y="1291" on="1"/>
        <pt x="725" y="1291" on="0"/>
      </contour>
      <contour>
        <pt x="649" y="-167" on="1"/>
        <pt x="710" y="-219" on="0"/>
        <pt x="710" y="-297" on="1"/>
        <pt x="710" y="-369" on="0"/>
        <pt x="615" y="-473" on="0"/>
        <pt x="485" y="-528" on="0"/>
        <pt x="436" y="-528" on="1"/>
        <pt x="411" y="-459" on="1"/>
        <pt x="491" y="-406" on="0"/>
        <pt x="545" y="-353" on="0"/>
        <pt x="545" y="-328" on="1"/>
        <pt x="545" y="-281" on="0"/>
        <pt x="422" y="-253" on="1"/>
        <pt x="458" y="-102" on="1"/>
        <pt x="512" y="-102" on="0"/>
        <pt x="612" y="-135" on="0"/>
      </contour>
    </TTGlyph>
    <TTGlyph name="T" xMin="5" yMin="0" xMax="1407" yMax="1398">
      <contour>
        <pt x="560" y="1288" on="1"/>
        <pt x="262" y="1243" on="1"/>
        <pt x="128" y="993" on="1"/>
        <pt x="5" y="1015" on="1"/>
        <pt x="87" y="1394" on="1"/>
        <pt x="220" y="1384" on="1"/>
        <pt x="1235" y="1384" on="1"/>
        <pt x="1363" y="1398" on="1"/>
        <pt x="1407" y="1013" on="1"/>
        <pt x="1280" y="987" on="1"/>
        <pt x="1163" y="1242" on="1"/>
        <pt x="856" y="1289" on="1"/>
        <pt x="856" y="159" on="1"/>
        <pt x="1087" y="89" on="1"/>
        <pt x="1069" y="0" on="1"/>
        <pt x="338" y="0" on="1"/>
        <pt x="357" y="89" on="1"/>
        <pt x="560" y="160" on="1"/>
      </contour>
    </TTGlyph>
    <TTGlyph name="Tcaron" xMin="5" yMin="0" xMax="1407" yMax="1815">
      <contour>
        <pt x="457" y="1815" on="1"/>
        <pt x="712" y="1688" on="1"/>
        <pt x="967" y="1815" on="1"/>
        <pt x="1049" y="1741" on="1"/>
        <pt x="776" y="1515" on="1"/>
        <pt x="649" y="1515" on="1"/>
        <pt x="375" y="1741" on="1"/>
      </contour>
      <contour>
        <pt x="560" y="1288" on="1"/>
        <pt x="262" y="1243" on="1"/>
        <pt x="128" y="993" on="1"/>
        <pt x="5" y="1015" on="1"/>
        <pt x="87" y="1394" on="1"/>
        <pt x="220" y="1384" on="1"/>
        <pt x="1235" y="1384" on="1"/>
        <pt x="1363" y="1398" on="1"/>
        <pt x="1407" y="1013" on="1"/>
        <pt x="1280" y="987" on="1"/>
        <pt x="1163" y="1242" on="1"/>
        <pt x="856" y="1289" on="1"/>
        <pt x="856" y="159" on="1"/>
        <pt x="1087" y="89" on="1"/>
        <pt x="1069" y="0" on="1"/>
        <pt x="338" y="0" on="1"/>
        <pt x="357" y="89" on="1"/>
        <pt x="560" y="160" on="1"/>
      </contour>
    </TTGlyph>
    <TTGlyph name="Thorn" xMin="57" yMin="0" xMax="1245" yMax="1384">
      <contour>
        <pt x="1245" y="735" on="1"/>
        <pt x="1245" y="639" on="0"/>
        <pt x="1164" y="484" on="0"/>
        <pt x="1089" y="434" on="1"/>
        <pt x="1008" y="381" on="0"/>
        <pt x="790" y="332" on="0"/>
        <pt x="678" y="332" on="1"/>
        <pt x="691" y="399" on="1"/>
        <pt x="788" y="445" on="0"/>
        <pt x="895" y="537" on="0"/>
        <pt x="942" y="657" on="0"/>
        <pt x="942" y="747" on="1"/>
        <pt x="942" y="907" on="0"/>
        <pt x="728" y="1057" on="0"/>
        <pt x="555" y="1063" on="1"/>
        <pt x="555" y="156" on="1"/>
        <pt x="786" y="82" on="1"/>
        <pt x="768" y="0" on="1"/>
        <pt x="57" y="0" on="1"/>
        <pt x="75" y="86" on="1"/>
        <pt x="252" y="156" on="1"/>
        <pt x="252" y="1230" on="1"/>
        <pt x="65" y="1302" on="1"/>
        <pt x="82" y="1384" on="1"/>
        <pt x="752" y="1384" on="1"/>
        <pt x="736" y="1300" on="1"/>
        <pt x="555" y="1228" on="1"/>
        <pt x="555" y="1144" on="1"/>
        <pt x="713" y="1144" on="0"/>
        <pt x="914" y="1128" on="0"/>
        <pt x="1071" y="1076" on="0"/>
        <pt x="1130" y="1025" on="1"/>
        <pt x="1245" y="924" on="0"/>
      </contour>
    </TTGlyph>
    <TTGlyph name="U" xMin="42" yMin="-35" xMax="1519" yMax="1384">
      <contour>
        <pt x="878" y="138" on="1"/>
        <pt x="940" y="138" on="0"/>
        <pt x="1042" y="172" on="0"/>
        <pt x="1076" y="207" on="1"/>
        <pt x="1160" y="291" on="0"/>
        <pt x="1160" y="477" on="1"/>
        <pt x="1160" y="1229" on="1"/>
        <pt x="963" y="1302" on="1"/>
        <pt x="980" y="1384" on="1"/>
        <pt x="1519" y="1384" on="1"/>
        <pt x="1504" y="1300" on="1"/>
        <pt x="1351" y="1226" on="1"/>
        <pt x="1351" y="508" on="1"/>
        <pt x="1351" y="332" on="0"/>
        <pt x="1212" y="89" on="0"/>
        <pt x="945" y="-35" on="0"/>
        <pt x="755" y="-35" on="1"/>
        <pt x="484" y="-35" on="0"/>
        <pt x="213" y="225" on="0"/>
        <pt x="213" y="469" on="1"/>
        <pt x="213" y="1230" on="1"/>
        <pt x="42" y="1303" on="1"/>
        <pt x="59" y="1384" on="1"/>
        <pt x="724" y="1384" on="1"/>
        <pt x="702" y="1283" on="1"/>
        <pt x="510" y="1219" on="1"/>
        <pt x="510" y="536" on="1"/>
        <pt x="510" y="420" on="0"/>
        <pt x="597" y="240" on="0"/>
        <pt x="763" y="138" on="0"/>
      </contour>
    </TTGlyph>
    <TTGlyph name="Uacute" xMin="42" yMin="-35" xMax="1519" yMax="1801">
      <contour>
        <pt x="977" y="1801" on="1"/>
        <pt x="1107" y="1801" on="1"/>
        <pt x="1140" y="1636" on="1"/>
        <pt x="651" y="1489" on="1"/>
        <pt x="627" y="1597" on="1"/>
      </contour>
      <contour>
        <pt x="878" y="138" on="1"/>
        <pt x="940" y="138" on="0"/>
        <pt x="1042" y="172" on="0"/>
        <pt x="1076" y="207" on="1"/>
        <pt x="1160" y="291" on="0"/>
        <pt x="1160" y="477" on="1"/>
        <pt x="1160" y="1229" on="1"/>
        <pt x="963" y="1302" on="1"/>
        <pt x="980" y="1384" on="1"/>
        <pt x="1519" y="1384" on="1"/>
        <pt x="1504" y="1300" on="1"/>
        <pt x="1351" y="1226" on="1"/>
        <pt x="1351" y="508" on="1"/>
        <pt x="1351" y="332" on="0"/>
        <pt x="1212" y="89" on="0"/>
        <pt x="945" y="-35" on="0"/>
        <pt x="755" y="-35" on="1"/>
        <pt x="484" y="-35" on="0"/>
        <pt x="213" y="225" on="0"/>
        <pt x="213" y="469" on="1"/>
        <pt x="213" y="1230" on="1"/>
        <pt x="42" y="1303" on="1"/>
        <pt x="59" y="1384" on="1"/>
        <pt x="724" y="1384" on="1"/>
        <pt x="702" y="1283" on="1"/>
        <pt x="510" y="1219" on="1"/>
        <pt x="510" y="536" on="1"/>
        <pt x="510" y="420" on="0"/>
        <pt x="597" y="240" on="0"/>
        <pt x="763" y="138" on="0"/>
      </contour>
    </TTGlyph>
    <TTGlyph name="Ucircumflex" xMin="42" yMin="-35" xMax="1519" yMax="1797">
      <contour>
        <pt x="764" y="1797" on="1"/>
        <pt x="882" y="1797" on="1"/>
        <pt x="1163" y="1560" on="1"/>
        <pt x="1077" y="1486" on="1"/>
        <pt x="823" y="1612" on="1"/>
        <pt x="569" y="1486" on="1"/>
        <pt x="484" y="1560" on="1"/>
      </contour>
      <contour>
        <pt x="878" y="138" on="1"/>
        <pt x="940" y="138" on="0"/>
        <pt x="1042" y="172" on="0"/>
        <pt x="1076" y="207" on="1"/>
        <pt x="1160" y="291" on="0"/>
        <pt x="1160" y="477" on="1"/>
        <pt x="1160" y="1229" on="1"/>
        <pt x="963" y="1302" on="1"/>
        <pt x="980" y="1384" on="1"/>
        <pt x="1519" y="1384" on="1"/>
        <pt x="1504" y="1300" on="1"/>
        <pt x="1351" y="1226" on="1"/>
        <pt x="1351" y="508" on="1"/>
        <pt x="1351" y="332" on="0"/>
        <pt x="1212" y="89" on="0"/>
        <pt x="945" y="-35" on="0"/>
        <pt x="755" y="-35" on="1"/>
        <pt x="484" y="-35" on="0"/>
        <pt x="213" y="225" on="0"/>
        <pt x="213" y="469" on="1"/>
        <pt x="213" y="1230" on="1"/>
        <pt x="42" y="1303" on="1"/>
        <pt x="59" y="1384" on="1"/>
        <pt x="724" y="1384" on="1"/>
        <pt x="702" y="1283" on="1"/>
        <pt x="510" y="1219" on="1"/>
        <pt x="510" y="536" on="1"/>
        <pt x="510" y="420" on="0"/>
        <pt x="597" y="240" on="0"/>
        <pt x="763" y="138" on="0"/>
      </contour>
    </TTGlyph>
    <TTGlyph name="Udieresis" xMin="42" yMin="-35" xMax="1519" yMax="1783">
      <contour>
        <pt x="569" y="1783" on="1"/>
        <pt x="589" y="1783" on="0"/>
        <pt x="664" y="1741" on="0"/>
        <pt x="727" y="1686" on="0"/>
        <pt x="731" y="1667" on="1"/>
        <pt x="734" y="1647" on="0"/>
        <pt x="690" y="1565" on="0"/>
        <pt x="629" y="1499" on="0"/>
        <pt x="608" y="1499" on="1"/>
        <pt x="588" y="1499" on="0"/>
        <pt x="513" y="1541" on="0"/>
        <pt x="451" y="1597" on="0"/>
        <pt x="447" y="1616" on="1"/>
        <pt x="444" y="1635" on="0"/>
        <pt x="488" y="1717" on="0"/>
        <pt x="549" y="1783" on="0"/>
      </contour>
      <contour>
        <pt x="1037" y="1783" on="1"/>
        <pt x="1057" y="1783" on="0"/>
        <pt x="1132" y="1741" on="0"/>
        <pt x="1194" y="1686" on="0"/>
        <pt x="1198" y="1667" on="1"/>
        <pt x="1201" y="1647" on="0"/>
        <pt x="1158" y="1565" on="0"/>
        <pt x="1098" y="1499" on="0"/>
        <pt x="1077" y="1499" on="1"/>
        <pt x="1056" y="1499" on="0"/>
        <pt x="981" y="1541" on="0"/>
        <pt x="919" y="1597" on="0"/>
        <pt x="915" y="1616" on="1"/>
        <pt x="912" y="1636" on="0"/>
        <pt x="955" y="1718" on="0"/>
        <pt x="1016" y="1783" on="0"/>
      </contour>
      <contour>
        <pt x="878" y="138" on="1"/>
        <pt x="940" y="138" on="0"/>
        <pt x="1042" y="172" on="0"/>
        <pt x="1076" y="207" on="1"/>
        <pt x="1160" y="291" on="0"/>
        <pt x="1160" y="477" on="1"/>
        <pt x="1160" y="1229" on="1"/>
        <pt x="963" y="1302" on="1"/>
        <pt x="980" y="1384" on="1"/>
        <pt x="1519" y="1384" on="1"/>
        <pt x="1504" y="1300" on="1"/>
        <pt x="1351" y="1226" on="1"/>
        <pt x="1351" y="508" on="1"/>
        <pt x="1351" y="332" on="0"/>
        <pt x="1212" y="89" on="0"/>
        <pt x="945" y="-35" on="0"/>
        <pt x="755" y="-35" on="1"/>
        <pt x="484" y="-35" on="0"/>
        <pt x="213" y="225" on="0"/>
        <pt x="213" y="469" on="1"/>
        <pt x="213" y="1230" on="1"/>
        <pt x="42" y="1303" on="1"/>
        <pt x="59" y="1384" on="1"/>
        <pt x="724" y="1384" on="1"/>
        <pt x="702" y="1283" on="1"/>
        <pt x="510" y="1219" on="1"/>
        <pt x="510" y="536" on="1"/>
        <pt x="510" y="420" on="0"/>
        <pt x="597" y="240" on="0"/>
        <pt x="763" y="138" on="0"/>
      </contour>
    </TTGlyph>
    <TTGlyph name="Ugrave" xMin="42" yMin="-35" xMax="1519" yMax="1801">
      <contour>
        <pt x="599" y="1801" on="1"/>
        <pt x="729" y="1801" on="1"/>
        <pt x="1077" y="1599" on="1"/>
        <pt x="1055" y="1488" on="1"/>
        <pt x="566" y="1637" on="1"/>
      </contour>
      <contour>
        <pt x="878" y="138" on="1"/>
        <pt x="940" y="138" on="0"/>
        <pt x="1042" y="172" on="0"/>
        <pt x="1076" y="207" on="1"/>
        <pt x="1160" y="291" on="0"/>
        <pt x="1160" y="477" on="1"/>
        <pt x="1160" y="1229" on="1"/>
        <pt x="963" y="1302" on="1"/>
        <pt x="980" y="1384" on="1"/>
        <pt x="1519" y="1384" on="1"/>
        <pt x="1504" y="1300" on="1"/>
        <pt x="1351" y="1226" on="1"/>
        <pt x="1351" y="508" on="1"/>
        <pt x="1351" y="332" on="0"/>
        <pt x="1212" y="89" on="0"/>
        <pt x="945" y="-35" on="0"/>
        <pt x="755" y="-35" on="1"/>
        <pt x="484" y="-35" on="0"/>
        <pt x="213" y="225" on="0"/>
        <pt x="213" y="469" on="1"/>
        <pt x="213" y="1230" on="1"/>
        <pt x="42" y="1303" on="1"/>
        <pt x="59" y="1384" on="1"/>
        <pt x="724" y="1384" on="1"/>
        <pt x="702" y="1283" on="1"/>
        <pt x="510" y="1219" on="1"/>
        <pt x="510" y="536" on="1"/>
        <pt x="510" y="420" on="0"/>
        <pt x="597" y="240" on="0"/>
        <pt x="763" y="138" on="0"/>
      </contour>
    </TTGlyph>
    <TTGlyph name="Uhungarumlaut" xMin="42" yMin="-35" xMax="1519" yMax="1812">
      <contour>
        <pt x="880" y="1812" on="1"/>
        <pt x="901" y="1710" on="1"/>
        <pt x="597" y="1466" on="1"/>
        <pt x="532" y="1603" on="1"/>
        <pt x="720" y="1812" on="1"/>
      </contour>
      <contour>
        <pt x="1229" y="1812" on="1"/>
        <pt x="1249" y="1710" on="1"/>
        <pt x="946" y="1466" on="1"/>
        <pt x="880" y="1603" on="1"/>
        <pt x="1068" y="1812" on="1"/>
      </contour>
      <contour>
        <pt x="878" y="138" on="1"/>
        <pt x="940" y="138" on="0"/>
        <pt x="1042" y="172" on="0"/>
        <pt x="1076" y="207" on="1"/>
        <pt x="1160" y="291" on="0"/>
        <pt x="1160" y="477" on="1"/>
        <pt x="1160" y="1229" on="1"/>
        <pt x="963" y="1302" on="1"/>
        <pt x="980" y="1384" on="1"/>
        <pt x="1519" y="1384" on="1"/>
        <pt x="1504" y="1300" on="1"/>
        <pt x="1351" y="1226" on="1"/>
        <pt x="1351" y="508" on="1"/>
        <pt x="1351" y="332" on="0"/>
        <pt x="1212" y="89" on="0"/>
        <pt x="945" y="-35" on="0"/>
        <pt x="755" y="-35" on="1"/>
        <pt x="484" y="-35" on="0"/>
        <pt x="213" y="225" on="0"/>
        <pt x="213" y="469" on="1"/>
        <pt x="213" y="1230" on="1"/>
        <pt x="42" y="1303" on="1"/>
        <pt x="59" y="1384" on="1"/>
        <pt x="724" y="1384" on="1"/>
        <pt x="702" y="1283" on="1"/>
        <pt x="510" y="1219" on="1"/>
        <pt x="510" y="536" on="1"/>
        <pt x="510" y="420" on="0"/>
        <pt x="597" y="240" on="0"/>
        <pt x="763" y="138" on="0"/>
      </contour>
    </TTGlyph>
    <TTGlyph name="Umacron" xMin="42" yMin="-35" xMax="1519" yMax="1701">
      <contour>
        <pt x="1134" y="1701" on="1"/>
        <pt x="1105" y="1545" on="1"/>
        <pt x="990" y="1539" on="0"/>
        <pt x="639" y="1533" on="0"/>
        <pt x="510" y="1533" on="1"/>
        <pt x="543" y="1701" on="1"/>
      </contour>
      <contour>
        <pt x="878" y="138" on="1"/>
        <pt x="940" y="138" on="0"/>
        <pt x="1042" y="172" on="0"/>
        <pt x="1076" y="207" on="1"/>
        <pt x="1160" y="291" on="0"/>
        <pt x="1160" y="477" on="1"/>
        <pt x="1160" y="1229" on="1"/>
        <pt x="963" y="1302" on="1"/>
        <pt x="980" y="1384" on="1"/>
        <pt x="1519" y="1384" on="1"/>
        <pt x="1504" y="1300" on="1"/>
        <pt x="1351" y="1226" on="1"/>
        <pt x="1351" y="508" on="1"/>
        <pt x="1351" y="332" on="0"/>
        <pt x="1212" y="89" on="0"/>
        <pt x="945" y="-35" on="0"/>
        <pt x="755" y="-35" on="1"/>
        <pt x="484" y="-35" on="0"/>
        <pt x="213" y="225" on="0"/>
        <pt x="213" y="469" on="1"/>
        <pt x="213" y="1230" on="1"/>
        <pt x="42" y="1303" on="1"/>
        <pt x="59" y="1384" on="1"/>
        <pt x="724" y="1384" on="1"/>
        <pt x="702" y="1283" on="1"/>
        <pt x="510" y="1219" on="1"/>
        <pt x="510" y="536" on="1"/>
        <pt x="510" y="420" on="0"/>
        <pt x="597" y="240" on="0"/>
        <pt x="763" y="138" on="0"/>
      </contour>
    </TTGlyph>
    <TTGlyph name="Uogonek" xMin="35" yMin="-493" xMax="1520" yMax="1384">
      <contour>
        <pt x="878" y="139" on="1"/>
        <pt x="1026" y="139" on="0"/>
        <pt x="1160" y="313" on="0"/>
        <pt x="1160" y="478" on="1"/>
        <pt x="1160" y="1229" on="1"/>
        <pt x="963" y="1303" on="1"/>
        <pt x="982" y="1384" on="1"/>
        <pt x="1520" y="1384" on="1"/>
        <pt x="1503" y="1299" on="1"/>
        <pt x="1351" y="1226" on="1"/>
        <pt x="1351" y="508" on="1"/>
        <pt x="1351" y="341" on="0"/>
        <pt x="1238" y="124" on="0"/>
        <pt x="1120" y="43" on="1"/>
        <pt x="1011" y="-33" on="0"/>
        <pt x="877" y="-170" on="0"/>
        <pt x="877" y="-230" on="1"/>
        <pt x="877" y="-266" on="0"/>
        <pt x="917" y="-334" on="0"/>
        <pt x="949" y="-348" on="1"/>
        <pt x="968" y="-355" on="0"/>
        <pt x="983" y="-355" on="1"/>
        <pt x="1014" y="-355" on="0"/>
        <pt x="1113" y="-328" on="0"/>
        <pt x="1151" y="-308" on="1"/>
        <pt x="1178" y="-353" on="1"/>
        <pt x="1116" y="-420" on="0"/>
        <pt x="972" y="-493" on="0"/>
        <pt x="894" y="-493" on="1"/>
        <pt x="831" y="-493" on="0"/>
        <pt x="721" y="-446" on="0"/>
        <pt x="654" y="-351" on="0"/>
        <pt x="654" y="-281" on="1"/>
        <pt x="654" y="-188" on="0"/>
        <pt x="737" y="-107" on="1"/>
        <pt x="781" y="-66" on="0"/>
        <pt x="846" y="-29" on="1"/>
        <pt x="806" y="-35" on="0"/>
        <pt x="756" y="-35" on="1"/>
        <pt x="484" y="-35" on="0"/>
        <pt x="207" y="226" on="0"/>
        <pt x="207" y="469" on="1"/>
        <pt x="207" y="1230" on="1"/>
        <pt x="35" y="1303" on="1"/>
        <pt x="53" y="1384" on="1"/>
        <pt x="722" y="1384" on="1"/>
        <pt x="703" y="1283" on="1"/>
        <pt x="510" y="1219" on="1"/>
        <pt x="510" y="537" on="1"/>
        <pt x="510" y="421" on="0"/>
        <pt x="597" y="241" on="0"/>
        <pt x="763" y="139" on="0"/>
      </contour>
    </TTGlyph>
    <TTGlyph name="Uring" xMin="42" yMin="-35" xMax="1519" yMax="1850">
      <contour>
        <pt x="616" y="1650" on="1"/>
        <pt x="616" y="1707" on="0"/>
        <pt x="667" y="1798" on="0"/>
        <pt x="761" y="1850" on="0"/>
        <pt x="822" y="1850" on="1"/>
        <pt x="872" y="1850" on="0"/>
        <pt x="962" y="1804" on="0"/>
        <pt x="1016" y="1721" on="0"/>
        <pt x="1016" y="1667" on="1"/>
        <pt x="1016" y="1610" on="0"/>
        <pt x="964" y="1520" on="0"/>
        <pt x="872" y="1469" on="0"/>
        <pt x="814" y="1469" on="1"/>
        <pt x="760" y="1469" on="0"/>
        <pt x="670" y="1514" on="0"/>
        <pt x="616" y="1596" on="0"/>
      </contour>
      <contour>
        <pt x="887" y="1651" on="1"/>
        <pt x="887" y="1687" on="0"/>
        <pt x="845" y="1739" on="0"/>
        <pt x="808" y="1739" on="1"/>
        <pt x="780" y="1739" on="0"/>
        <pt x="744" y="1697" on="0"/>
        <pt x="744" y="1667" on="1"/>
        <pt x="744" y="1633" on="0"/>
        <pt x="785" y="1583" on="0"/>
        <pt x="823" y="1583" on="1"/>
        <pt x="852" y="1583" on="0"/>
        <pt x="887" y="1621" on="0"/>
      </contour>
      <contour>
        <pt x="878" y="138" on="1"/>
        <pt x="940" y="138" on="0"/>
        <pt x="1042" y="172" on="0"/>
        <pt x="1076" y="207" on="1"/>
        <pt x="1160" y="291" on="0"/>
        <pt x="1160" y="477" on="1"/>
        <pt x="1160" y="1229" on="1"/>
        <pt x="963" y="1302" on="1"/>
        <pt x="980" y="1384" on="1"/>
        <pt x="1519" y="1384" on="1"/>
        <pt x="1504" y="1300" on="1"/>
        <pt x="1351" y="1226" on="1"/>
        <pt x="1351" y="508" on="1"/>
        <pt x="1351" y="332" on="0"/>
        <pt x="1212" y="89" on="0"/>
        <pt x="945" y="-35" on="0"/>
        <pt x="755" y="-35" on="1"/>
        <pt x="484" y="-35" on="0"/>
        <pt x="213" y="225" on="0"/>
        <pt x="213" y="469" on="1"/>
        <pt x="213" y="1230" on="1"/>
        <pt x="42" y="1303" on="1"/>
        <pt x="59" y="1384" on="1"/>
        <pt x="724" y="1384" on="1"/>
        <pt x="702" y="1283" on="1"/>
        <pt x="510" y="1219" on="1"/>
        <pt x="510" y="536" on="1"/>
        <pt x="510" y="420" on="0"/>
        <pt x="597" y="240" on="0"/>
        <pt x="763" y="138" on="0"/>
      </contour>
    </TTGlyph>
    <TTGlyph name="V" xMin="-36" yMin="-35" xMax="1447" yMax="1384">
      <contour>
        <pt x="933" y="1292" on="1"/>
        <pt x="951" y="1384" on="1"/>
        <pt x="1447" y="1384" on="1"/>
        <pt x="1429" y="1291" on="1"/>
        <pt x="1294" y="1233" on="1"/>
        <pt x="871" y="0" on="1"/>
        <pt x="576" y="-35" on="1"/>
        <pt x="106" y="1233" on="1"/>
        <pt x="-36" y="1291" on="1"/>
        <pt x="-17" y="1384" on="1"/>
        <pt x="625" y="1384" on="1"/>
        <pt x="610" y="1293" on="1"/>
        <pt x="448" y="1232" on="1"/>
        <pt x="804" y="202" on="1"/>
        <pt x="1109" y="1234" on="1"/>
      </contour>
    </TTGlyph>
    <TTGlyph name="W" xMin="-14" yMin="-35" xMax="2214" yMax="1384">
      <contour>
        <pt x="2196" y="1290" on="1"/>
        <pt x="2064" y="1233" on="1"/>
        <pt x="1672" y="0" on="1"/>
        <pt x="1377" y="-35" on="1"/>
        <pt x="1095" y="849" on="1"/>
        <pt x="808" y="0" on="1"/>
        <pt x="511" y="-35" on="1"/>
        <pt x="133" y="1232" on="1"/>
        <pt x="-14" y="1290" on="1"/>
        <pt x="3" y="1384" on="1"/>
        <pt x="632" y="1384" on="1"/>
        <pt x="617" y="1293" on="1"/>
        <pt x="462" y="1232" on="1"/>
        <pt x="737" y="216" on="1"/>
        <pt x="1022" y="1077" on="1"/>
        <pt x="972" y="1234" on="1"/>
        <pt x="826" y="1295" on="1"/>
        <pt x="843" y="1384" on="1"/>
        <pt x="1496" y="1384" on="1"/>
        <pt x="1479" y="1291" on="1"/>
        <pt x="1291" y="1231" on="1"/>
        <pt x="1604" y="217" on="1"/>
        <pt x="1879" y="1234" on="1"/>
        <pt x="1681" y="1290" on="1"/>
        <pt x="1701" y="1384" on="1"/>
        <pt x="2214" y="1384" on="1"/>
      </contour>
    </TTGlyph>
    <TTGlyph name="X" xMin="15" yMin="0" xMax="1420" yMax="1384">
      <contour>
        <pt x="1405" y="0" on="1"/>
        <pt x="747" y="0" on="1"/>
        <pt x="762" y="86" on="1"/>
        <pt x="901" y="152" on="1"/>
        <pt x="640" y="547" on="1"/>
        <pt x="390" y="151" on="1"/>
        <pt x="544" y="81" on="1"/>
        <pt x="525" y="0" on="1"/>
        <pt x="15" y="0" on="1"/>
        <pt x="31" y="92" on="1"/>
        <pt x="181" y="152" on="1"/>
        <pt x="558" y="670" on="1"/>
        <pt x="173" y="1233" on="1"/>
        <pt x="20" y="1286" on="1"/>
        <pt x="40" y="1384" on="1"/>
        <pt x="690" y="1384" on="1"/>
        <pt x="676" y="1298" on="1"/>
        <pt x="536" y="1232" on="1"/>
        <pt x="797" y="832" on="1"/>
        <pt x="1042" y="1232" on="1"/>
        <pt x="890" y="1304" on="1"/>
        <pt x="906" y="1384" on="1"/>
        <pt x="1418" y="1384" on="1"/>
        <pt x="1399" y="1287" on="1"/>
        <pt x="1249" y="1233" on="1"/>
        <pt x="881" y="707" on="1"/>
        <pt x="1267" y="148" on="1"/>
        <pt x="1420" y="87" on="1"/>
      </contour>
    </TTGlyph>
    <TTGlyph name="Y" xMin="-37" yMin="0" xMax="1314" yMax="1384">
      <contour>
        <pt x="500" y="558" on="1"/>
        <pt x="102" y="1232" on="1"/>
        <pt x="-37" y="1291" on="1"/>
        <pt x="-19" y="1384" on="1"/>
        <pt x="593" y="1384" on="1"/>
        <pt x="577" y="1296" on="1"/>
        <pt x="425" y="1231" on="1"/>
        <pt x="732" y="690" on="1"/>
        <pt x="775" y="808" on="0"/>
        <pt x="894" y="1071" on="0"/>
        <pt x="973" y="1230" on="1"/>
        <pt x="793" y="1303" on="1"/>
        <pt x="811" y="1384" on="1"/>
        <pt x="1314" y="1384" on="1"/>
        <pt x="1299" y="1290" on="1"/>
        <pt x="1160" y="1233" on="1"/>
        <pt x="797" y="560" on="1"/>
        <pt x="797" y="151" on="1"/>
        <pt x="1000" y="82" on="1"/>
        <pt x="983" y="0" on="1"/>
        <pt x="310" y="0" on="1"/>
        <pt x="325" y="83" on="1"/>
        <pt x="500" y="151" on="1"/>
      </contour>
    </TTGlyph>
    <TTGlyph name="Yacute" xMin="-37" yMin="0" xMax="1314" yMax="1801">
      <contour>
        <pt x="815" y="1801" on="1"/>
        <pt x="945" y="1801" on="1"/>
        <pt x="978" y="1636" on="1"/>
        <pt x="489" y="1489" on="1"/>
        <pt x="465" y="1597" on="1"/>
      </contour>
      <contour>
        <pt x="500" y="558" on="1"/>
        <pt x="102" y="1232" on="1"/>
        <pt x="-37" y="1291" on="1"/>
        <pt x="-19" y="1384" on="1"/>
        <pt x="593" y="1384" on="1"/>
        <pt x="577" y="1296" on="1"/>
        <pt x="425" y="1231" on="1"/>
        <pt x="732" y="690" on="1"/>
        <pt x="775" y="808" on="0"/>
        <pt x="894" y="1071" on="0"/>
        <pt x="973" y="1230" on="1"/>
        <pt x="793" y="1303" on="1"/>
        <pt x="811" y="1384" on="1"/>
        <pt x="1314" y="1384" on="1"/>
        <pt x="1299" y="1290" on="1"/>
        <pt x="1160" y="1233" on="1"/>
        <pt x="797" y="560" on="1"/>
        <pt x="797" y="151" on="1"/>
        <pt x="1000" y="82" on="1"/>
        <pt x="983" y="0" on="1"/>
        <pt x="310" y="0" on="1"/>
        <pt x="325" y="83" on="1"/>
        <pt x="500" y="151" on="1"/>
      </contour>
    </TTGlyph>
    <TTGlyph name="Ydieresis" xMin="-37" yMin="0" xMax="1314" yMax="1783">
      <contour>
        <pt x="406" y="1783" on="1"/>
        <pt x="426" y="1783" on="0"/>
        <pt x="501" y="1741" on="0"/>
        <pt x="564" y="1686" on="0"/>
        <pt x="568" y="1667" on="1"/>
        <pt x="571" y="1647" on="0"/>
        <pt x="527" y="1565" on="0"/>
        <pt x="466" y="1499" on="0"/>
        <pt x="445" y="1499" on="1"/>
        <pt x="425" y="1499" on="0"/>
        <pt x="350" y="1541" on="0"/>
        <pt x="288" y="1597" on="0"/>
        <pt x="284" y="1616" on="1"/>
        <pt x="281" y="1635" on="0"/>
        <pt x="325" y="1717" on="0"/>
        <pt x="386" y="1783" on="0"/>
      </contour>
      <contour>
        <pt x="874" y="1783" on="1"/>
        <pt x="894" y="1783" on="0"/>
        <pt x="969" y="1741" on="0"/>
        <pt x="1031" y="1686" on="0"/>
        <pt x="1035" y="1667" on="1"/>
        <pt x="1038" y="1647" on="0"/>
        <pt x="995" y="1565" on="0"/>
        <pt x="935" y="1499" on="0"/>
        <pt x="914" y="1499" on="1"/>
        <pt x="893" y="1499" on="0"/>
        <pt x="818" y="1541" on="0"/>
        <pt x="756" y="1597" on="0"/>
        <pt x="752" y="1616" on="1"/>
        <pt x="749" y="1636" on="0"/>
        <pt x="792" y="1718" on="0"/>
        <pt x="853" y="1783" on="0"/>
      </contour>
      <contour>
        <pt x="500" y="558" on="1"/>
        <pt x="102" y="1232" on="1"/>
        <pt x="-37" y="1291" on="1"/>
        <pt x="-19" y="1384" on="1"/>
        <pt x="593" y="1384" on="1"/>
        <pt x="577" y="1296" on="1"/>
        <pt x="425" y="1231" on="1"/>
        <pt x="732" y="690" on="1"/>
        <pt x="775" y="808" on="0"/>
        <pt x="894" y="1071" on="0"/>
        <pt x="973" y="1230" on="1"/>
        <pt x="793" y="1303" on="1"/>
        <pt x="811" y="1384" on="1"/>
        <pt x="1314" y="1384" on="1"/>
        <pt x="1299" y="1290" on="1"/>
        <pt x="1160" y="1233" on="1"/>
        <pt x="797" y="560" on="1"/>
        <pt x="797" y="151" on="1"/>
        <pt x="1000" y="82" on="1"/>
        <pt x="983" y="0" on="1"/>
        <pt x="310" y="0" on="1"/>
        <pt x="325" y="83" on="1"/>
        <pt x="500" y="151" on="1"/>
      </contour>
    </TTGlyph>
    <TTGlyph name="Z" xMin="52" yMin="0" xMax="1226" yMax="1394">
      <contour>
        <pt x="1226" y="362" on="1"/>
        <pt x="1145" y="0" on="1"/>
        <pt x="107" y="0" on="1"/>
        <pt x="52" y="150" on="1"/>
        <pt x="878" y="1279" on="1"/>
        <pt x="323" y="1232" on="1"/>
        <pt x="220" y="1014" on="1"/>
        <pt x="92" y="1035" on="1"/>
        <pt x="137" y="1394" on="1"/>
        <pt x="341" y="1384" on="1"/>
        <pt x="1174" y="1384" on="1"/>
        <pt x="1214" y="1262" on="1"/>
        <pt x="383" y="116" on="1"/>
        <pt x="984" y="167" on="1"/>
        <pt x="1110" y="382" on="1"/>
      </contour>
    </TTGlyph>
    <TTGlyph name="Zacute" xMin="52" yMin="0" xMax="1226" yMax="1801">
      <contour>
        <pt x="814" y="1801" on="1"/>
        <pt x="944" y="1801" on="1"/>
        <pt x="977" y="1636" on="1"/>
        <pt x="488" y="1489" on="1"/>
        <pt x="464" y="1597" on="1"/>
      </contour>
      <contour>
        <pt x="1226" y="362" on="1"/>
        <pt x="1145" y="0" on="1"/>
        <pt x="107" y="0" on="1"/>
        <pt x="52" y="150" on="1"/>
        <pt x="878" y="1279" on="1"/>
        <pt x="323" y="1232" on="1"/>
        <pt x="220" y="1014" on="1"/>
        <pt x="92" y="1035" on="1"/>
        <pt x="137" y="1394" on="1"/>
        <pt x="341" y="1384" on="1"/>
        <pt x="1174" y="1384" on="1"/>
        <pt x="1214" y="1262" on="1"/>
        <pt x="383" y="116" on="1"/>
        <pt x="984" y="167" on="1"/>
        <pt x="1110" y="382" on="1"/>
      </contour>
    </TTGlyph>
    <TTGlyph name="Zcaron" xMin="52" yMin="0" xMax="1226" yMax="1815">
      <contour>
        <pt x="405" y="1815" on="1"/>
        <pt x="660" y="1688" on="1"/>
        <pt x="915" y="1815" on="1"/>
        <pt x="997" y="1741" on="1"/>
        <pt x="724" y="1515" on="1"/>
        <pt x="597" y="1515" on="1"/>
        <pt x="323" y="1741" on="1"/>
      </contour>
      <contour>
        <pt x="1226" y="362" on="1"/>
        <pt x="1145" y="0" on="1"/>
        <pt x="107" y="0" on="1"/>
        <pt x="52" y="150" on="1"/>
        <pt x="878" y="1279" on="1"/>
        <pt x="323" y="1232" on="1"/>
        <pt x="220" y="1014" on="1"/>
        <pt x="92" y="1035" on="1"/>
        <pt x="137" y="1394" on="1"/>
        <pt x="341" y="1384" on="1"/>
        <pt x="1174" y="1384" on="1"/>
        <pt x="1214" y="1262" on="1"/>
        <pt x="383" y="116" on="1"/>
        <pt x="984" y="167" on="1"/>
        <pt x="1110" y="382" on="1"/>
      </contour>
    </TTGlyph>
    <TTGlyph name="Zdotaccent" xMin="52" yMin="0" xMax="1226" yMax="1776">
      <contour>
        <pt x="522" y="1667" on="1"/>
        <pt x="522" y="1673" on="0"/>
        <pt x="523" y="1676" on="1"/>
        <pt x="527" y="1693" on="0"/>
        <pt x="586" y="1741" on="0"/>
        <pt x="659" y="1776" on="0"/>
        <pt x="682" y="1776" on="1"/>
        <pt x="689" y="1776" on="0"/>
        <pt x="692" y="1775" on="1"/>
        <pt x="708" y="1771" on="0"/>
        <pt x="756" y="1711" on="0"/>
        <pt x="792" y="1638" on="0"/>
        <pt x="792" y="1616" on="1"/>
        <pt x="792" y="1610" on="0"/>
        <pt x="791" y="1607" on="1"/>
        <pt x="787" y="1590" on="0"/>
        <pt x="727" y="1541" on="0"/>
        <pt x="653" y="1505" on="0"/>
        <pt x="630" y="1505" on="1"/>
        <pt x="624" y="1505" on="0"/>
        <pt x="621" y="1506" on="1"/>
        <pt x="605" y="1510" on="0"/>
        <pt x="557" y="1571" on="0"/>
        <pt x="522" y="1645" on="0"/>
      </contour>
      <contour>
        <pt x="1226" y="362" on="1"/>
        <pt x="1145" y="0" on="1"/>
        <pt x="107" y="0" on="1"/>
        <pt x="52" y="150" on="1"/>
        <pt x="878" y="1279" on="1"/>
        <pt x="323" y="1232" on="1"/>
        <pt x="220" y="1014" on="1"/>
        <pt x="92" y="1035" on="1"/>
        <pt x="137" y="1394" on="1"/>
        <pt x="341" y="1384" on="1"/>
        <pt x="1174" y="1384" on="1"/>
        <pt x="1214" y="1262" on="1"/>
        <pt x="383" y="116" on="1"/>
        <pt x="984" y="167" on="1"/>
        <pt x="1110" y="382" on="1"/>
      </contour>
    </TTGlyph>
    <TTGlyph name="a" xMin="56" yMin="-25" xMax="1082" yMax="975">
      <contour>
        <pt x="208" y="496" on="1"/>
        <pt x="258" y="518" on="0"/>
        <pt x="393" y="538" on="0"/>
        <pt x="465" y="538" on="1"/>
        <pt x="560" y="538" on="0"/>
        <pt x="627" y="527" on="1"/>
        <pt x="627" y="581" on="1"/>
        <pt x="627" y="799" on="0"/>
        <pt x="549" y="851" on="1"/>
        <pt x="532" y="863" on="0"/>
        <pt x="475" y="875" on="0"/>
        <pt x="444" y="875" on="1"/>
        <pt x="417" y="875" on="0"/>
        <pt x="391" y="868" on="1"/>
        <pt x="362" y="696" on="1"/>
        <pt x="340" y="674" on="0"/>
        <pt x="280" y="640" on="0"/>
        <pt x="263" y="640" on="1"/>
        <pt x="239" y="640" on="0"/>
        <pt x="155" y="698" on="0"/>
        <pt x="90" y="777" on="0"/>
        <pt x="90" y="808" on="1"/>
        <pt x="90" y="833" on="0"/>
        <pt x="174" y="887" on="0"/>
        <pt x="224" y="906" on="1"/>
        <pt x="312" y="940" on="0"/>
        <pt x="541" y="975" on="0"/>
        <pt x="610" y="975" on="1"/>
        <pt x="768" y="975" on="0"/>
        <pt x="909" y="813" on="0"/>
        <pt x="909" y="674" on="1"/>
        <pt x="909" y="198" on="1"/>
        <pt x="936" y="159" on="0"/>
        <pt x="1021" y="108" on="0"/>
        <pt x="1082" y="93" on="1"/>
        <pt x="1069" y="35" on="1"/>
        <pt x="947" y="-22" on="0"/>
        <pt x="792" y="-25" on="1"/>
        <pt x="764" y="26" on="0"/>
        <pt x="699" y="102" on="0"/>
        <pt x="654" y="132" on="1"/>
        <pt x="602" y="63" on="0"/>
        <pt x="445" y="-25" on="0"/>
        <pt x="341" y="-25" on="1"/>
        <pt x="240" y="-25" on="0"/>
        <pt x="112" y="55" on="0"/>
        <pt x="56" y="177" on="0"/>
        <pt x="56" y="241" on="1"/>
        <pt x="56" y="337" on="0"/>
        <pt x="129" y="461" on="0"/>
      </contour>
      <contour>
        <pt x="429" y="124" on="1"/>
        <pt x="468" y="124" on="0"/>
        <pt x="589" y="150" on="0"/>
        <pt x="627" y="165" on="1"/>
        <pt x="627" y="461" on="1"/>
        <pt x="547" y="449" on="0"/>
        <pt x="427" y="416" on="0"/>
        <pt x="358" y="382" on="0"/>
        <pt x="349" y="371" on="1"/>
        <pt x="335" y="352" on="0"/>
        <pt x="335" y="307" on="1"/>
        <pt x="335" y="262" on="0"/>
        <pt x="374" y="158" on="0"/>
        <pt x="399" y="136" on="1"/>
        <pt x="410" y="124" on="0"/>
      </contour>
    </TTGlyph>
    <TTGlyph name="aacute" xMin="57" yMin="-25" xMax="1083" yMax="1463">
      <contour>
        <pt x="209" y="496" on="1"/>
        <pt x="259" y="518" on="0"/>
        <pt x="394" y="538" on="0"/>
        <pt x="466" y="538" on="1"/>
        <pt x="561" y="538" on="0"/>
        <pt x="628" y="527" on="1"/>
        <pt x="628" y="581" on="1"/>
        <pt x="628" y="799" on="0"/>
        <pt x="550" y="851" on="1"/>
        <pt x="533" y="863" on="0"/>
        <pt x="476" y="875" on="0"/>
        <pt x="445" y="875" on="1"/>
        <pt x="418" y="875" on="0"/>
        <pt x="392" y="868" on="1"/>
        <pt x="363" y="696" on="1"/>
        <pt x="341" y="674" on="0"/>
        <pt x="281" y="640" on="0"/>
        <pt x="264" y="640" on="1"/>
        <pt x="240" y="640" on="0"/>
        <pt x="156" y="698" on="0"/>
        <pt x="91" y="777" on="0"/>
        <pt x="91" y="808" on="1"/>
        <pt x="91" y="833" on="0"/>
        <pt x="175" y="887" on="0"/>
        <pt x="225" y="906" on="1"/>
        <pt x="313" y="940" on="0"/>
        <pt x="542" y="975" on="0"/>
        <pt x="611" y="975" on="1"/>
        <pt x="769" y="975" on="0"/>
        <pt x="910" y="813" on="0"/>
        <pt x="910" y="674" on="1"/>
        <pt x="910" y="198" on="1"/>
        <pt x="937" y="159" on="0"/>
        <pt x="1022" y="108" on="0"/>
        <pt x="1083" y="93" on="1"/>
        <pt x="1070" y="35" on="1"/>
        <pt x="948" y="-22" on="0"/>
        <pt x="793" y="-25" on="1"/>
        <pt x="765" y="26" on="0"/>
        <pt x="700" y="102" on="0"/>
        <pt x="655" y="132" on="1"/>
        <pt x="603" y="63" on="0"/>
        <pt x="446" y="-25" on="0"/>
        <pt x="342" y="-25" on="1"/>
        <pt x="241" y="-25" on="0"/>
        <pt x="113" y="55" on="0"/>
        <pt x="57" y="177" on="0"/>
        <pt x="57" y="241" on="1"/>
        <pt x="57" y="337" on="0"/>
        <pt x="130" y="461" on="0"/>
      </contour>
      <contour>
        <pt x="430" y="124" on="1"/>
        <pt x="469" y="124" on="0"/>
        <pt x="590" y="150" on="0"/>
        <pt x="628" y="165" on="1"/>
        <pt x="628" y="461" on="1"/>
        <pt x="548" y="449" on="0"/>
        <pt x="428" y="416" on="0"/>
        <pt x="359" y="382" on="0"/>
        <pt x="350" y="371" on="1"/>
        <pt x="336" y="352" on="0"/>
        <pt x="336" y="307" on="1"/>
        <pt x="336" y="262" on="0"/>
        <pt x="375" y="158" on="0"/>
        <pt x="400" y="136" on="1"/>
        <pt x="411" y="124" on="0"/>
      </contour>
      <contour>
        <pt x="737" y="1463" on="1"/>
        <pt x="772" y="1285" on="1"/>
        <pt x="351" y="1049" on="1"/>
        <pt x="324" y="1195" on="1"/>
        <pt x="611" y="1463" on="1"/>
      </contour>
    </TTGlyph>
    <TTGlyph name="aadeva" xMin="22" yMin="-97" xMax="2089" yMax="1205">
      <contour>
        <pt x="1881" y="1019" on="1"/>
        <pt x="1881" y="-95" on="1"/>
        <pt x="1638" y="-41" on="1"/>
        <pt x="1638" y="1019" on="1"/>
        <pt x="1378" y="1019" on="1"/>
        <pt x="1378" y="-97" on="1"/>
        <pt x="1135" y="-40" on="1"/>
        <pt x="1135" y="469" on="1"/>
        <pt x="1108" y="456" on="0"/>
        <pt x="1051" y="444" on="0"/>
        <pt x="1015" y="444" on="1"/>
        <pt x="961" y="444" on="0"/>
        <pt x="888" y="470" on="1"/>
        <pt x="950" y="396" on="0"/>
        <pt x="950" y="299" on="1"/>
        <pt x="950" y="203" on="0"/>
        <pt x="852" y="64" on="0"/>
        <pt x="689" y="-7" on="0"/>
        <pt x="593" y="-7" on="1"/>
        <pt x="415" y="-7" on="0"/>
        <pt x="126" y="238" on="0"/>
        <pt x="22" y="476" on="1"/>
        <pt x="128" y="531" on="1"/>
        <pt x="228" y="358" on="0"/>
        <pt x="416" y="201" on="0"/>
        <pt x="523" y="201" on="1"/>
        <pt x="582" y="201" on="0"/>
        <pt x="674" y="247" on="0"/>
        <pt x="726" y="329" on="0"/>
        <pt x="726" y="381" on="1"/>
        <pt x="726" y="479" on="0"/>
        <pt x="652" y="558" on="1"/>
        <pt x="578" y="522" on="0"/>
        <pt x="474" y="501" on="1"/>
        <pt x="357" y="705" on="1"/>
        <pt x="530" y="752" on="0"/>
        <pt x="712" y="886" on="0"/>
        <pt x="713" y="969" on="1"/>
        <pt x="713" y="1009" on="0"/>
        <pt x="700" y="1024" on="1"/>
        <pt x="688" y="1039" on="0"/>
        <pt x="631" y="1039" on="1"/>
        <pt x="566" y="1039" on="0"/>
        <pt x="399" y="935" on="0"/>
        <pt x="329" y="851" on="1"/>
        <pt x="162" y="1029" on="1"/>
        <pt x="234" y="1111" on="0"/>
        <pt x="424" y="1205" on="0"/>
        <pt x="519" y="1205" on="1"/>
        <pt x="610" y="1205" on="0"/>
        <pt x="766" y="1106" on="0"/>
        <pt x="859" y="950" on="0"/>
        <pt x="859" y="870" on="1"/>
        <pt x="859" y="705" on="0"/>
        <pt x="736" y="609" on="1"/>
        <pt x="806" y="580" on="0"/>
        <pt x="878" y="580" on="1"/>
        <pt x="948" y="580" on="0"/>
        <pt x="1086" y="650" on="0"/>
        <pt x="1135" y="711" on="1"/>
        <pt x="1135" y="1019" on="1"/>
        <pt x="987" y="1019" on="1"/>
        <pt x="935" y="1187" on="1"/>
        <pt x="2042" y="1187" on="1"/>
        <pt x="2089" y="1019" on="1"/>
      </contour>
    </TTGlyph>
    <TTGlyph name="abbreviationsigndeva" xMin="146" yMin="166" xMax="838" yMax="901">
      <contour>
        <pt x="146" y="533" on="1"/>
        <pt x="146" y="636" on="0"/>
        <pt x="233" y="804" on="0"/>
        <pt x="391" y="901" on="0"/>
        <pt x="495" y="901" on="1"/>
        <pt x="660" y="901" on="0"/>
        <pt x="838" y="711" on="0"/>
        <pt x="838" y="533" on="1"/>
        <pt x="838" y="430" on="0"/>
        <pt x="753" y="263" on="0"/>
        <pt x="598" y="166" on="0"/>
        <pt x="495" y="166" on="1"/>
        <pt x="387" y="166" on="0"/>
        <pt x="230" y="251" on="0"/>
        <pt x="146" y="416" on="0"/>
      </contour>
      <contour>
        <pt x="603" y="371" on="1"/>
        <pt x="617" y="380" on="0"/>
        <pt x="644" y="454" on="0"/>
        <pt x="644" y="518" on="1"/>
        <pt x="644" y="610" on="0"/>
        <pt x="550" y="714" on="0"/>
        <pt x="467" y="714" on="1"/>
        <pt x="440" y="714" on="0"/>
        <pt x="392" y="704" on="0"/>
        <pt x="384" y="696" on="1"/>
        <pt x="343" y="652" on="0"/>
        <pt x="343" y="546" on="1"/>
        <pt x="343" y="456" on="0"/>
        <pt x="439" y="353" on="0"/>
        <pt x="525" y="353" on="1"/>
        <pt x="584" y="353" on="0"/>
      </contour>
    </TTGlyph>
    <TTGlyph name="abreve" xMin="57" yMin="-25" xMax="1083" yMax="1370">
      <contour>
        <pt x="209" y="496" on="1"/>
        <pt x="259" y="518" on="0"/>
        <pt x="394" y="538" on="0"/>
        <pt x="466" y="538" on="1"/>
        <pt x="561" y="538" on="0"/>
        <pt x="628" y="527" on="1"/>
        <pt x="628" y="581" on="1"/>
        <pt x="628" y="799" on="0"/>
        <pt x="550" y="851" on="1"/>
        <pt x="533" y="863" on="0"/>
        <pt x="476" y="875" on="0"/>
        <pt x="445" y="875" on="1"/>
        <pt x="418" y="875" on="0"/>
        <pt x="392" y="868" on="1"/>
        <pt x="363" y="696" on="1"/>
        <pt x="341" y="674" on="0"/>
        <pt x="281" y="640" on="0"/>
        <pt x="264" y="640" on="1"/>
        <pt x="240" y="640" on="0"/>
        <pt x="156" y="698" on="0"/>
        <pt x="91" y="777" on="0"/>
        <pt x="91" y="808" on="1"/>
        <pt x="91" y="833" on="0"/>
        <pt x="175" y="887" on="0"/>
        <pt x="225" y="906" on="1"/>
        <pt x="313" y="940" on="0"/>
        <pt x="542" y="975" on="0"/>
        <pt x="611" y="975" on="1"/>
        <pt x="769" y="975" on="0"/>
        <pt x="910" y="813" on="0"/>
        <pt x="910" y="674" on="1"/>
        <pt x="910" y="198" on="1"/>
        <pt x="937" y="159" on="0"/>
        <pt x="1022" y="108" on="0"/>
        <pt x="1083" y="93" on="1"/>
        <pt x="1070" y="35" on="1"/>
        <pt x="948" y="-22" on="0"/>
        <pt x="793" y="-25" on="1"/>
        <pt x="765" y="26" on="0"/>
        <pt x="700" y="102" on="0"/>
        <pt x="655" y="132" on="1"/>
        <pt x="603" y="63" on="0"/>
        <pt x="446" y="-25" on="0"/>
        <pt x="342" y="-25" on="1"/>
        <pt x="241" y="-25" on="0"/>
        <pt x="113" y="55" on="0"/>
        <pt x="57" y="177" on="0"/>
        <pt x="57" y="241" on="1"/>
        <pt x="57" y="337" on="0"/>
        <pt x="130" y="461" on="0"/>
      </contour>
      <contour>
        <pt x="430" y="124" on="1"/>
        <pt x="469" y="124" on="0"/>
        <pt x="590" y="150" on="0"/>
        <pt x="628" y="165" on="1"/>
        <pt x="628" y="461" on="1"/>
        <pt x="548" y="449" on="0"/>
        <pt x="428" y="416" on="0"/>
        <pt x="359" y="382" on="0"/>
        <pt x="350" y="371" on="1"/>
        <pt x="336" y="352" on="0"/>
        <pt x="336" y="307" on="1"/>
        <pt x="336" y="262" on="0"/>
        <pt x="375" y="158" on="0"/>
        <pt x="400" y="136" on="1"/>
        <pt x="411" y="124" on="0"/>
      </contour>
      <contour>
        <pt x="201" y="1301" on="1"/>
        <pt x="201" y="1333" on="0"/>
        <pt x="213" y="1370" on="1"/>
        <pt x="355" y="1370" on="1"/>
        <pt x="370" y="1286" on="0"/>
        <pt x="457" y="1207" on="0"/>
        <pt x="512" y="1207" on="1"/>
        <pt x="566" y="1207" on="0"/>
        <pt x="650" y="1285" on="0"/>
        <pt x="665" y="1370" on="1"/>
        <pt x="807" y="1370" on="1"/>
        <pt x="818" y="1332" on="0"/>
        <pt x="818" y="1302" on="1"/>
        <pt x="818" y="1239" on="0"/>
        <pt x="737" y="1128" on="0"/>
        <pt x="596" y="1062" on="0"/>
        <pt x="511" y="1062" on="1"/>
        <pt x="425" y="1062" on="0"/>
        <pt x="283" y="1128" on="0"/>
        <pt x="201" y="1238" on="0"/>
      </contour>
    </TTGlyph>
    <TTGlyph name="acircumflex" xMin="57" yMin="-25" xMax="1083" yMax="1405">
      <contour>
        <pt x="209" y="496" on="1"/>
        <pt x="259" y="518" on="0"/>
        <pt x="394" y="538" on="0"/>
        <pt x="466" y="538" on="1"/>
        <pt x="561" y="538" on="0"/>
        <pt x="628" y="527" on="1"/>
        <pt x="628" y="581" on="1"/>
        <pt x="628" y="799" on="0"/>
        <pt x="550" y="851" on="1"/>
        <pt x="533" y="863" on="0"/>
        <pt x="476" y="875" on="0"/>
        <pt x="445" y="875" on="1"/>
        <pt x="418" y="875" on="0"/>
        <pt x="392" y="868" on="1"/>
        <pt x="363" y="696" on="1"/>
        <pt x="341" y="674" on="0"/>
        <pt x="281" y="640" on="0"/>
        <pt x="264" y="640" on="1"/>
        <pt x="240" y="640" on="0"/>
        <pt x="156" y="698" on="0"/>
        <pt x="91" y="777" on="0"/>
        <pt x="91" y="808" on="1"/>
        <pt x="91" y="833" on="0"/>
        <pt x="175" y="887" on="0"/>
        <pt x="225" y="906" on="1"/>
        <pt x="313" y="940" on="0"/>
        <pt x="542" y="975" on="0"/>
        <pt x="611" y="975" on="1"/>
        <pt x="769" y="975" on="0"/>
        <pt x="910" y="813" on="0"/>
        <pt x="910" y="674" on="1"/>
        <pt x="910" y="198" on="1"/>
        <pt x="937" y="159" on="0"/>
        <pt x="1022" y="108" on="0"/>
        <pt x="1083" y="93" on="1"/>
        <pt x="1070" y="35" on="1"/>
        <pt x="948" y="-22" on="0"/>
        <pt x="793" y="-25" on="1"/>
        <pt x="765" y="26" on="0"/>
        <pt x="700" y="102" on="0"/>
        <pt x="655" y="132" on="1"/>
        <pt x="603" y="63" on="0"/>
        <pt x="446" y="-25" on="0"/>
        <pt x="342" y="-25" on="1"/>
        <pt x="241" y="-25" on="0"/>
        <pt x="113" y="55" on="0"/>
        <pt x="57" y="177" on="0"/>
        <pt x="57" y="241" on="1"/>
        <pt x="57" y="337" on="0"/>
        <pt x="130" y="461" on="0"/>
      </contour>
      <contour>
        <pt x="430" y="124" on="1"/>
        <pt x="469" y="124" on="0"/>
        <pt x="590" y="150" on="0"/>
        <pt x="628" y="165" on="1"/>
        <pt x="628" y="461" on="1"/>
        <pt x="548" y="449" on="0"/>
        <pt x="428" y="416" on="0"/>
        <pt x="359" y="382" on="0"/>
        <pt x="350" y="371" on="1"/>
        <pt x="336" y="352" on="0"/>
        <pt x="336" y="307" on="1"/>
        <pt x="336" y="262" on="0"/>
        <pt x="375" y="158" on="0"/>
        <pt x="400" y="136" on="1"/>
        <pt x="411" y="124" on="0"/>
      </contour>
      <contour>
        <pt x="155" y="1136" on="1"/>
        <pt x="429" y="1405" on="1"/>
        <pt x="591" y="1405" on="1"/>
        <pt x="865" y="1136" on="1"/>
        <pt x="751" y="1080" on="1"/>
        <pt x="510" y="1220" on="1"/>
        <pt x="269" y="1081" on="1"/>
      </contour>
    </TTGlyph>
    <TTGlyph name="acute" xMin="326" yMin="1049" xMax="774" yMax="1463">
      <contour>
        <pt x="739" y="1463" on="1"/>
        <pt x="774" y="1285" on="1"/>
        <pt x="353" y="1049" on="1"/>
        <pt x="326" y="1195" on="1"/>
        <pt x="613" y="1463" on="1"/>
      </contour>
    </TTGlyph>
    <TTGlyph name="acutedeva" xMin="-841" yMin="1270" xMax="-286" yMax="1785">
      <contour>
        <pt x="-449" y="1785" on="1"/>
        <pt x="-286" y="1657" on="1"/>
        <pt x="-706" y="1270" on="1"/>
        <pt x="-841" y="1393" on="1"/>
      </contour>
    </TTGlyph>
    <TTGlyph name="adeva" xMin="22" yMin="-97" xMax="1603" yMax="1205">
      <contour>
        <pt x="1378" y="1019" on="1"/>
        <pt x="1378" y="-97" on="1"/>
        <pt x="1135" y="-40" on="1"/>
        <pt x="1135" y="469" on="1"/>
        <pt x="1108" y="456" on="0"/>
        <pt x="1051" y="444" on="0"/>
        <pt x="1015" y="444" on="1"/>
        <pt x="961" y="444" on="0"/>
        <pt x="888" y="470" on="1"/>
        <pt x="950" y="396" on="0"/>
        <pt x="950" y="299" on="1"/>
        <pt x="950" y="203" on="0"/>
        <pt x="852" y="64" on="0"/>
        <pt x="689" y="-7" on="0"/>
        <pt x="593" y="-7" on="1"/>
        <pt x="415" y="-7" on="0"/>
        <pt x="126" y="238" on="0"/>
        <pt x="22" y="476" on="1"/>
        <pt x="128" y="531" on="1"/>
        <pt x="228" y="358" on="0"/>
        <pt x="416" y="201" on="0"/>
        <pt x="523" y="201" on="1"/>
        <pt x="582" y="201" on="0"/>
        <pt x="674" y="247" on="0"/>
        <pt x="726" y="329" on="0"/>
        <pt x="726" y="381" on="1"/>
        <pt x="726" y="479" on="0"/>
        <pt x="652" y="558" on="1"/>
        <pt x="578" y="522" on="0"/>
        <pt x="474" y="501" on="1"/>
        <pt x="357" y="705" on="1"/>
        <pt x="530" y="752" on="0"/>
        <pt x="712" y="886" on="0"/>
        <pt x="713" y="969" on="1"/>
        <pt x="713" y="1009" on="0"/>
        <pt x="700" y="1024" on="1"/>
        <pt x="688" y="1039" on="0"/>
        <pt x="631" y="1039" on="1"/>
        <pt x="566" y="1039" on="0"/>
        <pt x="399" y="935" on="0"/>
        <pt x="329" y="851" on="1"/>
        <pt x="162" y="1029" on="1"/>
        <pt x="234" y="1111" on="0"/>
        <pt x="424" y="1205" on="0"/>
        <pt x="519" y="1205" on="1"/>
        <pt x="610" y="1205" on="0"/>
        <pt x="766" y="1106" on="0"/>
        <pt x="859" y="950" on="0"/>
        <pt x="859" y="870" on="1"/>
        <pt x="859" y="705" on="0"/>
        <pt x="736" y="609" on="1"/>
        <pt x="806" y="580" on="0"/>
        <pt x="878" y="580" on="1"/>
        <pt x="948" y="580" on="0"/>
        <pt x="1086" y="650" on="0"/>
        <pt x="1135" y="711" on="1"/>
        <pt x="1135" y="1019" on="1"/>
        <pt x="987" y="1019" on="1"/>
        <pt x="935" y="1187" on="1"/>
        <pt x="1554" y="1187" on="1"/>
        <pt x="1603" y="1019" on="1"/>
      </contour>
    </TTGlyph>
    <TTGlyph name="adieresis" xMin="57" yMin="-25" xMax="1083" yMax="1445">
      <contour>
        <pt x="209" y="496" on="1"/>
        <pt x="259" y="518" on="0"/>
        <pt x="394" y="538" on="0"/>
        <pt x="466" y="538" on="1"/>
        <pt x="561" y="538" on="0"/>
        <pt x="628" y="527" on="1"/>
        <pt x="628" y="581" on="1"/>
        <pt x="628" y="799" on="0"/>
        <pt x="550" y="851" on="1"/>
        <pt x="533" y="863" on="0"/>
        <pt x="476" y="875" on="0"/>
        <pt x="445" y="875" on="1"/>
        <pt x="418" y="875" on="0"/>
        <pt x="392" y="868" on="1"/>
        <pt x="363" y="696" on="1"/>
        <pt x="341" y="674" on="0"/>
        <pt x="281" y="640" on="0"/>
        <pt x="264" y="640" on="1"/>
        <pt x="240" y="640" on="0"/>
        <pt x="156" y="698" on="0"/>
        <pt x="91" y="777" on="0"/>
        <pt x="91" y="808" on="1"/>
        <pt x="91" y="833" on="0"/>
        <pt x="175" y="887" on="0"/>
        <pt x="225" y="906" on="1"/>
        <pt x="313" y="940" on="0"/>
        <pt x="542" y="975" on="0"/>
        <pt x="611" y="975" on="1"/>
        <pt x="769" y="975" on="0"/>
        <pt x="910" y="813" on="0"/>
        <pt x="910" y="674" on="1"/>
        <pt x="910" y="198" on="1"/>
        <pt x="937" y="159" on="0"/>
        <pt x="1022" y="108" on="0"/>
        <pt x="1083" y="93" on="1"/>
        <pt x="1070" y="35" on="1"/>
        <pt x="948" y="-22" on="0"/>
        <pt x="793" y="-25" on="1"/>
        <pt x="765" y="26" on="0"/>
        <pt x="700" y="102" on="0"/>
        <pt x="655" y="132" on="1"/>
        <pt x="603" y="63" on="0"/>
        <pt x="446" y="-25" on="0"/>
        <pt x="342" y="-25" on="1"/>
        <pt x="241" y="-25" on="0"/>
        <pt x="113" y="55" on="0"/>
        <pt x="57" y="177" on="0"/>
        <pt x="57" y="241" on="1"/>
        <pt x="57" y="337" on="0"/>
        <pt x="130" y="461" on="0"/>
      </contour>
      <contour>
        <pt x="430" y="124" on="1"/>
        <pt x="469" y="124" on="0"/>
        <pt x="590" y="150" on="0"/>
        <pt x="628" y="165" on="1"/>
        <pt x="628" y="461" on="1"/>
        <pt x="548" y="449" on="0"/>
        <pt x="428" y="416" on="0"/>
        <pt x="359" y="382" on="0"/>
        <pt x="350" y="371" on="1"/>
        <pt x="336" y="352" on="0"/>
        <pt x="336" y="307" on="1"/>
        <pt x="336" y="262" on="0"/>
        <pt x="375" y="158" on="0"/>
        <pt x="400" y="136" on="1"/>
        <pt x="411" y="124" on="0"/>
      </contour>
      <contour>
        <pt x="269" y="1445" on="1"/>
        <pt x="292" y="1445" on="0"/>
        <pt x="373" y="1395" on="0"/>
        <pt x="439" y="1329" on="0"/>
        <pt x="444" y="1308" on="1"/>
        <pt x="448" y="1284" on="0"/>
        <pt x="402" y="1189" on="0"/>
        <pt x="336" y="1113" on="0"/>
        <pt x="313" y="1113" on="1"/>
        <pt x="290" y="1113" on="0"/>
        <pt x="202" y="1162" on="0"/>
        <pt x="130" y="1227" on="0"/>
        <pt x="126" y="1249" on="1"/>
        <pt x="122" y="1273" on="0"/>
        <pt x="174" y="1368" on="0"/>
        <pt x="246" y="1445" on="0"/>
      </contour>
      <contour>
        <pt x="706" y="1445" on="1"/>
        <pt x="730" y="1445" on="0"/>
        <pt x="816" y="1396" on="0"/>
        <pt x="888" y="1330" on="0"/>
        <pt x="893" y="1308" on="1"/>
        <pt x="897" y="1285" on="0"/>
        <pt x="846" y="1189" on="0"/>
        <pt x="774" y="1113" on="0"/>
        <pt x="749" y="1113" on="1"/>
        <pt x="726" y="1113" on="0"/>
        <pt x="646" y="1162" on="0"/>
        <pt x="580" y="1228" on="0"/>
        <pt x="575" y="1249" on="1"/>
        <pt x="571" y="1274" on="0"/>
        <pt x="618" y="1369" on="0"/>
        <pt x="684" y="1445" on="0"/>
      </contour>
    </TTGlyph>
    <TTGlyph name="ae" xMin="56" yMin="-25" xMax="1424" yMax="975">
      <contour>
        <pt x="213" y="491" on="1"/>
        <pt x="265" y="511" on="0"/>
        <pt x="407" y="534" on="0"/>
        <pt x="474" y="534" on="1"/>
        <pt x="533" y="534" on="0"/>
        <pt x="615" y="527" on="1"/>
        <pt x="615" y="575" on="1"/>
        <pt x="615" y="795" on="0"/>
        <pt x="533" y="851" on="1"/>
        <pt x="497" y="875" on="0"/>
        <pt x="435" y="875" on="1"/>
        <pt x="408" y="875" on="0"/>
        <pt x="382" y="868" on="1"/>
        <pt x="352" y="696" on="1"/>
        <pt x="330" y="674" on="0"/>
        <pt x="271" y="640" on="0"/>
        <pt x="253" y="640" on="1"/>
        <pt x="229" y="640" on="0"/>
        <pt x="145" y="698" on="0"/>
        <pt x="80" y="777" on="0"/>
        <pt x="80" y="808" on="1"/>
        <pt x="80" y="833" on="0"/>
        <pt x="164" y="886" on="0"/>
        <pt x="214" y="906" on="1"/>
        <pt x="302" y="940" on="0"/>
        <pt x="526" y="975" on="0"/>
        <pt x="594" y="975" on="1"/>
        <pt x="741" y="975" on="0"/>
        <pt x="817" y="894" on="1"/>
        <pt x="936" y="975" on="0"/>
        <pt x="1092" y="975" on="1"/>
        <pt x="1196" y="975" on="0"/>
        <pt x="1346" y="888" on="0"/>
        <pt x="1424" y="743" on="0"/>
        <pt x="1424" y="657" on="1"/>
        <pt x="1424" y="592" on="0"/>
        <pt x="1389" y="524" on="1"/>
        <pt x="1380" y="506" on="0"/>
        <pt x="1351" y="489" on="0"/>
        <pt x="1323" y="489" on="1"/>
        <pt x="853" y="489" on="1"/>
        <pt x="857" y="402" on="0"/>
        <pt x="934" y="236" on="0"/>
        <pt x="1056" y="133" on="0"/>
        <pt x="1123" y="133" on="1"/>
        <pt x="1177" y="133" on="0"/>
        <pt x="1329" y="172" on="0"/>
        <pt x="1367" y="188" on="1"/>
        <pt x="1387" y="154" on="1"/>
        <pt x="1335" y="75" on="0"/>
        <pt x="1149" y="-25" on="0"/>
        <pt x="1047" y="-25" on="1"/>
        <pt x="936" y="-25" on="0"/>
        <pt x="742" y="60" on="0"/>
        <pt x="680" y="142" on="1"/>
        <pt x="617" y="65" on="0"/>
        <pt x="437" y="-25" on="0"/>
        <pt x="322" y="-25" on="1"/>
        <pt x="232" y="-25" on="0"/>
        <pt x="112" y="56" on="0"/>
        <pt x="56" y="178" on="0"/>
        <pt x="56" y="241" on="1"/>
        <pt x="56" y="343" on="0"/>
        <pt x="129" y="457" on="0"/>
      </contour>
      <contour>
        <pt x="980" y="859" on="1"/>
        <pt x="928" y="859" on="0"/>
        <pt x="911" y="835" on="1"/>
        <pt x="891" y="806" on="0"/>
        <pt x="857" y="661" on="0"/>
        <pt x="853" y="564" on="1"/>
        <pt x="1164" y="607" on="1"/>
        <pt x="1164" y="686" on="0"/>
        <pt x="1115" y="800" on="0"/>
        <pt x="1032" y="859" on="0"/>
      </contour>
      <contour>
        <pt x="429" y="124" on="1"/>
        <pt x="474" y="124" on="0"/>
        <pt x="583" y="153" on="0"/>
        <pt x="615" y="176" on="1"/>
        <pt x="615" y="458" on="1"/>
        <pt x="538" y="446" on="0"/>
        <pt x="423" y="410" on="0"/>
        <pt x="358" y="376" on="0"/>
        <pt x="349" y="365" on="1"/>
        <pt x="340" y="351" on="0"/>
        <pt x="335" y="319" on="0"/>
        <pt x="335" y="297" on="1"/>
        <pt x="335" y="254" on="0"/>
        <pt x="373" y="158" on="0"/>
        <pt x="399" y="136" on="1"/>
        <pt x="410" y="124" on="0"/>
      </contour>
    </TTGlyph>
    <TTGlyph name="agrave" xMin="57" yMin="-25" xMax="1083" yMax="1463">
      <contour>
        <pt x="209" y="496" on="1"/>
        <pt x="259" y="518" on="0"/>
        <pt x="394" y="538" on="0"/>
        <pt x="466" y="538" on="1"/>
        <pt x="561" y="538" on="0"/>
        <pt x="628" y="527" on="1"/>
        <pt x="628" y="581" on="1"/>
        <pt x="628" y="799" on="0"/>
        <pt x="550" y="851" on="1"/>
        <pt x="533" y="863" on="0"/>
        <pt x="476" y="875" on="0"/>
        <pt x="445" y="875" on="1"/>
        <pt x="418" y="875" on="0"/>
        <pt x="392" y="868" on="1"/>
        <pt x="363" y="696" on="1"/>
        <pt x="341" y="674" on="0"/>
        <pt x="281" y="640" on="0"/>
        <pt x="264" y="640" on="1"/>
        <pt x="240" y="640" on="0"/>
        <pt x="156" y="698" on="0"/>
        <pt x="91" y="777" on="0"/>
        <pt x="91" y="808" on="1"/>
        <pt x="91" y="833" on="0"/>
        <pt x="175" y="887" on="0"/>
        <pt x="225" y="906" on="1"/>
        <pt x="313" y="940" on="0"/>
        <pt x="542" y="975" on="0"/>
        <pt x="611" y="975" on="1"/>
        <pt x="769" y="975" on="0"/>
        <pt x="910" y="813" on="0"/>
        <pt x="910" y="674" on="1"/>
        <pt x="910" y="198" on="1"/>
        <pt x="937" y="159" on="0"/>
        <pt x="1022" y="108" on="0"/>
        <pt x="1083" y="93" on="1"/>
        <pt x="1070" y="35" on="1"/>
        <pt x="948" y="-22" on="0"/>
        <pt x="793" y="-25" on="1"/>
        <pt x="765" y="26" on="0"/>
        <pt x="700" y="102" on="0"/>
        <pt x="655" y="132" on="1"/>
        <pt x="603" y="63" on="0"/>
        <pt x="446" y="-25" on="0"/>
        <pt x="342" y="-25" on="1"/>
        <pt x="241" y="-25" on="0"/>
        <pt x="113" y="55" on="0"/>
        <pt x="57" y="177" on="0"/>
        <pt x="57" y="241" on="1"/>
        <pt x="57" y="337" on="0"/>
        <pt x="130" y="461" on="0"/>
      </contour>
      <contour>
        <pt x="430" y="124" on="1"/>
        <pt x="469" y="124" on="0"/>
        <pt x="590" y="150" on="0"/>
        <pt x="628" y="165" on="1"/>
        <pt x="628" y="461" on="1"/>
        <pt x="548" y="449" on="0"/>
        <pt x="428" y="416" on="0"/>
        <pt x="359" y="382" on="0"/>
        <pt x="350" y="371" on="1"/>
        <pt x="336" y="352" on="0"/>
        <pt x="336" y="307" on="1"/>
        <pt x="336" y="262" on="0"/>
        <pt x="375" y="158" on="0"/>
        <pt x="400" y="136" on="1"/>
        <pt x="411" y="124" on="0"/>
      </contour>
      <contour>
        <pt x="301" y="1463" on="1"/>
        <pt x="429" y="1463" on="1"/>
        <pt x="715" y="1195" on="1"/>
        <pt x="690" y="1049" on="1"/>
        <pt x="267" y="1286" on="1"/>
      </contour>
    </TTGlyph>
    <TTGlyph name="aideva" xMin="-52" yMin="-328" xMax="1245" yMax="1723">
      <contour>
        <pt x="1071" y="1019" on="1"/>
        <pt x="1071" y="642" on="1"/>
        <pt x="1071" y="545" on="0"/>
        <pt x="1035" y="418" on="0"/>
        <pt x="959" y="331" on="0"/>
        <pt x="894" y="294" on="1"/>
        <pt x="677" y="442" on="1"/>
        <pt x="733" y="470" on="0"/>
        <pt x="791" y="513" on="0"/>
        <pt x="822" y="578" on="0"/>
        <pt x="822" y="631" on="1"/>
        <pt x="822" y="1019" on="1"/>
        <pt x="398" y="1019" on="1"/>
        <pt x="398" y="518" on="1"/>
        <pt x="398" y="476" on="0"/>
        <pt x="418" y="434" on="0"/>
        <pt x="445" y="416" on="1"/>
        <pt x="526" y="361" on="0"/>
        <pt x="689" y="259" on="1"/>
        <pt x="821" y="176" on="0"/>
        <pt x="849" y="158" on="1"/>
        <pt x="917" y="115" on="0"/>
        <pt x="974" y="16" on="0"/>
        <pt x="974" y="-55" on="1"/>
        <pt x="974" y="-114" on="0"/>
        <pt x="905" y="-246" on="0"/>
        <pt x="830" y="-328" on="1"/>
        <pt x="629" y="-178" on="1"/>
        <pt x="686" y="-128" on="0"/>
        <pt x="739" y="-51" on="0"/>
        <pt x="739" y="-17" on="1"/>
        <pt x="739" y="11" on="0"/>
        <pt x="716" y="55" on="0"/>
        <pt x="687" y="74" on="1"/>
        <pt x="610" y="122" on="1"/>
        <pt x="393" y="258" on="0"/>
        <pt x="327" y="298" on="1"/>
        <pt x="246" y="348" on="0"/>
        <pt x="175" y="410" on="0"/>
        <pt x="147" y="487" on="0"/>
        <pt x="147" y="555" on="1"/>
        <pt x="147" y="1019" on="1"/>
        <pt x="0" y="1019" on="1"/>
        <pt x="-52" y="1187" on="1"/>
        <pt x="859" y="1187" on="1"/>
        <pt x="828" y="1249" on="0"/>
        <pt x="738" y="1375" on="0"/>
        <pt x="651" y="1469" on="0"/>
        <pt x="622" y="1487" on="1"/>
        <pt x="581" y="1500" on="0"/>
        <pt x="507" y="1500" on="1"/>
        <pt x="441" y="1500" on="0"/>
        <pt x="341" y="1475" on="1"/>
        <pt x="277" y="1690" on="1"/>
        <pt x="360" y="1723" on="0"/>
        <pt x="483" y="1723" on="1"/>
        <pt x="554" y="1722" on="0"/>
        <pt x="679" y="1676" on="0"/>
        <pt x="722" y="1643" on="1"/>
        <pt x="810" y="1576" on="0"/>
        <pt x="966" y="1325" on="0"/>
        <pt x="1009" y="1187" on="1"/>
        <pt x="1198" y="1187" on="1"/>
        <pt x="1245" y="1019" on="1"/>
      </contour>
    </TTGlyph>
    <TTGlyph name="aivowelsigndeva" xMin="-413" yMin="1138" xMax="352" yMax="1824">
      <contour>
        <pt x="352" y="1138" on="1"/>
        <pt x="289" y="1138" on="1"/>
        <pt x="245" y="1138" on="1"/>
        <pt x="178" y="1138" on="1"/>
        <pt x="98" y="1212" on="0"/>
        <pt x="-24" y="1297" on="0"/>
        <pt x="-82" y="1319" on="1"/>
        <pt x="-125" y="1332" on="0"/>
        <pt x="-183" y="1332" on="1"/>
        <pt x="-254" y="1332" on="0"/>
        <pt x="-346" y="1304" on="1"/>
        <pt x="-413" y="1491" on="1"/>
        <pt x="-365" y="1511" on="0"/>
        <pt x="-282" y="1528" on="0"/>
        <pt x="-239" y="1528" on="1"/>
        <pt x="-171" y="1528" on="0"/>
        <pt x="-64" y="1499" on="0"/>
        <pt x="-16" y="1466" on="1"/>
        <pt x="35" y="1432" on="0"/>
        <pt x="136" y="1325" on="0"/>
        <pt x="217" y="1226" on="1"/>
        <pt x="184" y="1313" on="0"/>
        <pt x="87" y="1469" on="0"/>
        <pt x="-11" y="1579" on="0"/>
        <pt x="-46" y="1603" on="1"/>
        <pt x="-93" y="1616" on="0"/>
        <pt x="-161" y="1616" on="1"/>
        <pt x="-198" y="1616" on="0"/>
        <pt x="-292" y="1601" on="0"/>
        <pt x="-329" y="1590" on="1"/>
        <pt x="-390" y="1789" on="1"/>
        <pt x="-303" y="1824" on="0"/>
        <pt x="-195" y="1824" on="1"/>
        <pt x="-120" y="1824" on="0"/>
        <pt x="17" y="1779" on="0"/>
        <pt x="62" y="1745" on="1"/>
        <pt x="245" y="1605" on="0"/>
      </contour>
    </TTGlyph>
    <TTGlyph name="aivowelsigndeva_anusvaradeva" xMin="-413" yMin="1138" xMax="617" yMax="1824">
      <contour>
        <pt x="352" y="1138" on="1"/>
        <pt x="289" y="1138" on="1"/>
        <pt x="245" y="1138" on="1"/>
        <pt x="178" y="1138" on="1"/>
        <pt x="98" y="1212" on="0"/>
        <pt x="-24" y="1297" on="0"/>
        <pt x="-82" y="1319" on="1"/>
        <pt x="-125" y="1332" on="0"/>
        <pt x="-183" y="1332" on="1"/>
        <pt x="-254" y="1332" on="0"/>
        <pt x="-346" y="1304" on="1"/>
        <pt x="-413" y="1491" on="1"/>
        <pt x="-365" y="1511" on="0"/>
        <pt x="-282" y="1528" on="0"/>
        <pt x="-239" y="1528" on="1"/>
        <pt x="-171" y="1528" on="0"/>
        <pt x="-64" y="1499" on="0"/>
        <pt x="-16" y="1466" on="1"/>
        <pt x="35" y="1432" on="0"/>
        <pt x="136" y="1325" on="0"/>
        <pt x="217" y="1226" on="1"/>
        <pt x="184" y="1313" on="0"/>
        <pt x="87" y="1469" on="0"/>
        <pt x="-11" y="1579" on="0"/>
        <pt x="-46" y="1603" on="1"/>
        <pt x="-93" y="1616" on="0"/>
        <pt x="-161" y="1616" on="1"/>
        <pt x="-198" y="1616" on="0"/>
        <pt x="-292" y="1601" on="0"/>
        <pt x="-329" y="1590" on="1"/>
        <pt x="-390" y="1789" on="1"/>
        <pt x="-303" y="1824" on="0"/>
        <pt x="-195" y="1824" on="1"/>
        <pt x="-120" y="1824" on="0"/>
        <pt x="17" y="1779" on="0"/>
        <pt x="62" y="1745" on="1"/>
        <pt x="245" y="1605" on="0"/>
      </contour>
      <contour>
        <pt x="294" y="1492" on="1"/>
        <pt x="294" y="1515" on="0"/>
        <pt x="355" y="1593" on="0"/>
        <pt x="432" y="1653" on="0"/>
        <pt x="455" y="1653" on="1"/>
        <pt x="479" y="1653" on="0"/>
        <pt x="557" y="1592" on="0"/>
        <pt x="617" y="1514" on="0"/>
        <pt x="617" y="1492" on="1"/>
        <pt x="617" y="1467" on="0"/>
        <pt x="555" y="1389" on="0"/>
        <pt x="476" y="1330" on="0"/>
        <pt x="455" y="1330" on="1"/>
        <pt x="434" y="1330" on="0"/>
        <pt x="355" y="1389" on="0"/>
        <pt x="294" y="1467" on="0"/>
      </contour>
    </TTGlyph>
    <TTGlyph name="amacron" xMin="57" yMin="-25" xMax="1083" yMax="1316">
      <contour>
        <pt x="209" y="496" on="1"/>
        <pt x="259" y="518" on="0"/>
        <pt x="394" y="538" on="0"/>
        <pt x="466" y="538" on="1"/>
        <pt x="561" y="538" on="0"/>
        <pt x="628" y="527" on="1"/>
        <pt x="628" y="581" on="1"/>
        <pt x="628" y="799" on="0"/>
        <pt x="550" y="851" on="1"/>
        <pt x="533" y="863" on="0"/>
        <pt x="476" y="875" on="0"/>
        <pt x="445" y="875" on="1"/>
        <pt x="418" y="875" on="0"/>
        <pt x="392" y="868" on="1"/>
        <pt x="363" y="696" on="1"/>
        <pt x="341" y="674" on="0"/>
        <pt x="281" y="640" on="0"/>
        <pt x="264" y="640" on="1"/>
        <pt x="240" y="640" on="0"/>
        <pt x="156" y="698" on="0"/>
        <pt x="91" y="777" on="0"/>
        <pt x="91" y="808" on="1"/>
        <pt x="91" y="833" on="0"/>
        <pt x="175" y="887" on="0"/>
        <pt x="225" y="906" on="1"/>
        <pt x="313" y="940" on="0"/>
        <pt x="542" y="975" on="0"/>
        <pt x="611" y="975" on="1"/>
        <pt x="769" y="975" on="0"/>
        <pt x="910" y="813" on="0"/>
        <pt x="910" y="674" on="1"/>
        <pt x="910" y="198" on="1"/>
        <pt x="937" y="159" on="0"/>
        <pt x="1022" y="108" on="0"/>
        <pt x="1083" y="93" on="1"/>
        <pt x="1070" y="35" on="1"/>
        <pt x="948" y="-22" on="0"/>
        <pt x="793" y="-25" on="1"/>
        <pt x="765" y="26" on="0"/>
        <pt x="700" y="102" on="0"/>
        <pt x="655" y="132" on="1"/>
        <pt x="603" y="63" on="0"/>
        <pt x="446" y="-25" on="0"/>
        <pt x="342" y="-25" on="1"/>
        <pt x="241" y="-25" on="0"/>
        <pt x="113" y="55" on="0"/>
        <pt x="57" y="177" on="0"/>
        <pt x="57" y="241" on="1"/>
        <pt x="57" y="337" on="0"/>
        <pt x="130" y="461" on="0"/>
      </contour>
      <contour>
        <pt x="430" y="124" on="1"/>
        <pt x="469" y="124" on="0"/>
        <pt x="590" y="150" on="0"/>
        <pt x="628" y="165" on="1"/>
        <pt x="628" y="461" on="1"/>
        <pt x="548" y="449" on="0"/>
        <pt x="428" y="416" on="0"/>
        <pt x="359" y="382" on="0"/>
        <pt x="350" y="371" on="1"/>
        <pt x="336" y="352" on="0"/>
        <pt x="336" y="307" on="1"/>
        <pt x="336" y="262" on="0"/>
        <pt x="375" y="158" on="0"/>
        <pt x="400" y="136" on="1"/>
        <pt x="411" y="124" on="0"/>
      </contour>
      <contour>
        <pt x="815" y="1316" on="1"/>
        <pt x="782" y="1148" on="1"/>
        <pt x="537" y="1136" on="0"/>
        <pt x="262" y="1136" on="1"/>
        <pt x="207" y="1136" on="1"/>
        <pt x="242" y="1316" on="1"/>
      </contour>
    </TTGlyph>
</ttFont>
